SplineFontDB: 3.2
FontName: KoreeneSans-Bold
FullName: Koreene Sans Bold
FamilyName: Koreene Sans
Weight: Bold
Copyright: (C) Copyright HanYang I&C Co.,Ltd. All rights reserved.
Version: 2.50; ttfautohint (v1.8.4.7-5d5b-dirty)
ItalicAngle: 0
UnderlinePosition: -122
UnderlineWidth: 45
Ascent: 819
Descent: 205
InvalidEm: 0
sfntRevision: 0x00020147
LayerCount: 2
Layer: 0 1 "Back" 1
Layer: 1 1 "Fore" 0
XUID: [1021 531 -1996577725 14419638]
StyleMap: 0x0020
FSType: 0
OS2Version: 4
OS2_WeightWidthSlopeOnly: 0
OS2_UseTypoMetrics: 1
CreationTime: 1068260456
ModificationTime: 1702473898
PfmFamily: 81
TTFWeight: 700
TTFWidth: 5
LineGap: 256
VLineGap: 0
Panose: 0 0 0 0 0 0 0 0 0 0
OS2TypoAscent: 970
OS2TypoAOffset: 0
OS2TypoDescent: -235
OS2TypoDOffset: 0
OS2TypoLinegap: 256
OS2WinAscent: 1098
OS2WinAOffset: 0
OS2WinDescent: 363
OS2WinDOffset: 0
HheadAscent: 970
HheadAOffset: 0
HheadDescent: -235
HheadDOffset: 0
OS2SubXSize: 205
OS2SubYSize: 205
OS2SubXOff: 0
OS2SubYOff: 287
OS2SupXSize: 205
OS2SupYSize: 205
OS2SupXOff: 0
OS2SupYOff: 963
OS2StrikeYSize: 102
OS2StrikeYPos: 512
OS2CapHeight: 735
OS2XHeight: 536
OS2Vendor: 'HY  '
OS2CodePages: 2000019f.00000000
OS2UnicodeRanges: e10002ff.4000001b.00000000.00000000
Lookup: 1 0 0 "'aalt' Access All Alternates lookup 0" { "'aalt' Access All Alternates lookup 0 subtable"  } ['aalt' ('DFLT' <'dflt' > 'cyrl' <'dflt' > 'grek' <'dflt' > 'hang' <'dflt' > 'jamo' <'dflt' > 'latn' <'dflt' > ) ]
Lookup: 3 0 0 "'aalt' Access All Alternates lookup 1" { "'aalt' Access All Alternates lookup 1 subtable"  } ['aalt' ('DFLT' <'dflt' > 'cyrl' <'dflt' > 'grek' <'dflt' > 'hang' <'dflt' > 'jamo' <'dflt' > 'latn' <'dflt' > ) ]
Lookup: 1 0 0 "'locl' Localized Forms in Latin lookup 2" { "'locl' Localized Forms in Latin lookup 2 subtable"  } ['locl' ('latn' <'MOL ' > ) ]
Lookup: 1 0 0 "'locl' Localized Forms in Latin lookup 3" { "'locl' Localized Forms in Latin lookup 3 subtable"  } ['locl' ('latn' <'ROM ' > ) ]

StartChar: exclam
Encoding: 33 33 4
Width: 310
GlyphClass: 2
Flags: W
LayerCount: 2
Fore
SplineSet
77 -5 m 1,0,-1
 77 137 l 1,1,-1
 234 137 l 1,2,-1
 234 -5 l 1,3,-1
 77 -5 l 1,0,-1
213 208 m 1,4,-1
 98 208 l 1,5,-1
 89 740 l 1,6,-1
 220 740 l 1,7,-1
 213 208 l 1,4,-1
EndSplineSet
EndChar

StartChar: quotedbl
Encoding: 34 34 5
Width: 554
GlyphClass: 2
Flags: W
LayerCount: 2
Fore
SplineSet
290 517 m 1,0,-1
 380 817 l 1,1,-1
 515 817 l 1,2,-1
 386 517 l 1,3,-1
 290 517 l 1,0,-1
67 517 m 1,4,-1
 156 817 l 1,5,-1
 292 817 l 1,6,-1
 162 517 l 1,7,-1
 67 517 l 1,4,-1
EndSplineSet
EndChar

StartChar: numbersign
Encoding: 35 35 6
Width: 733
GlyphClass: 2
Flags: W
LayerCount: 2
Fore
SplineSet
50 184 m 1,0,-1
 50 275 l 1,1,-1
 172 275 l 1,2,-1
 194 441 l 1,3,-1
 81 441 l 1,4,-1
 81 532 l 1,5,-1
 205 532 l 1,6,-1
 230 715 l 1,7,-1
 338 715 l 1,8,-1
 314 532 l 1,9,-1
 466 532 l 1,10,-1
 491 715 l 1,11,-1
 599 715 l 1,12,-1
 575 532 l 1,13,-1
 685 532 l 1,14,-1
 685 441 l 1,15,-1
 563 441 l 1,16,-1
 542 275 l 1,17,-1
 654 275 l 1,18,-1
 654 184 l 1,19,-1
 530 184 l 1,20,-1
 506 2 l 1,21,-1
 397 2 l 1,22,-1
 421 184 l 1,23,-1
 269 184 l 1,24,-1
 244 2 l 1,25,-1
 136 2 l 1,26,-1
 160 184 l 1,27,-1
 50 184 l 1,0,-1
281 275 m 1,28,-1
 433 275 l 1,29,-1
 455 441 l 1,30,-1
 302 441 l 1,31,-1
 281 275 l 1,28,-1
EndSplineSet
EndChar

StartChar: dollar
Encoding: 36 36 7
Width: 583
GlyphClass: 2
Flags: W
LayerCount: 2
Fore
SplineSet
45 153 m 1,0,-1
 134 196 l 1,1,2
 162 151 162 151 205 126 c 128,-1,3
 248 101 248 101 298 101 c 0,4,5
 346 101 346 101 378.5 127 c 128,-1,6
 411 153 411 153 411 202 c 0,7,8
 411 227 411 227 401.5 245 c 128,-1,9
 392 263 392 263 369.5 278 c 128,-1,10
 347 293 347 293 325.5 302.5 c 128,-1,11
 304 312 304 312 262.5 330 c 128,-1,12
 221 348 221 348 192 361 c 0,13,14
 68 422 68 422 68 542 c 0,15,16
 68 603 68 603 111 658.5 c 128,-1,17
 154 714 154 714 239 728 c 1,18,-1
 239 809 l 1,19,-1
 350 809 l 1,20,-1
 350 727 l 1,21,22
 404 721 404 721 453 681.5 c 128,-1,23
 502 642 502 642 521 597 c 1,24,-1
 430 554 l 1,25,26
 377 633 377 633 295 633 c 0,27,28
 247 633 247 633 218 607 c 128,-1,29
 189 581 189 581 189 541 c 0,30,31
 189 525 189 525 192.5 512 c 128,-1,32
 196 499 196 499 206.5 488.5 c 128,-1,33
 217 478 217 478 226.5 470 c 128,-1,34
 236 462 236 462 256.5 452 c 128,-1,35
 277 442 277 442 291 436 c 128,-1,36
 305 430 305 430 334 418 c 128,-1,37
 363 406 363 406 382 399 c 0,38,39
 533 335 533 335 533 212 c 0,40,41
 533 128 533 128 482.5 74 c 128,-1,42
 432 20 432 20 350 5 c 1,43,-1
 350 -72 l 1,44,-1
 239 -72 l 1,45,-1
 239 7 l 1,46,47
 182 12 182 12 126.5 54.5 c 128,-1,48
 71 97 71 97 45 153 c 1,0,-1
EndSplineSet
EndChar

StartChar: percent
Encoding: 37 37 8
Width: 1001
GlyphClass: 2
Flags: W
LayerCount: 2
Fore
SplineSet
650 169 m 256,0,1
 650 124 650 124 676.5 98 c 128,-1,2
 703 72 703 72 740 72 c 256,3,4
 777 72 777 72 802.5 98.5 c 128,-1,5
 828 125 828 125 828 169 c 0,6,7
 828 214 828 214 803 240 c 128,-1,8
 778 266 778 266 740 266 c 256,9,10
 702 266 702 266 676 240 c 128,-1,11
 650 214 650 214 650 169 c 256,0,1
174 566 m 0,12,13
 174 520 174 520 200 494.5 c 128,-1,14
 226 469 226 469 262 469 c 0,15,16
 299 469 299 469 324.5 495.5 c 128,-1,17
 350 522 350 522 350 566 c 256,18,19
 350 610 350 610 325 636.5 c 128,-1,20
 300 663 300 663 262 663 c 256,21,22
 224 663 224 663 199 636.5 c 128,-1,23
 174 610 174 610 174 566 c 0,12,13
181 -5 m 1,24,-1
 699 740 l 1,25,-1
 821 740 l 1,26,-1
 302 -5 l 1,27,-1
 181 -5 l 1,24,-1
539 169 m 0,28,29
 539 249 539 249 594.5 302.5 c 128,-1,30
 650 356 650 356 740 356 c 0,31,32
 828 356 828 356 883.5 303 c 128,-1,33
 939 250 939 250 939 169 c 0,34,35
 939 86 939 86 882.5 34.5 c 128,-1,36
 826 -17 826 -17 740 -17 c 0,37,38
 651 -17 651 -17 595 35.5 c 128,-1,39
 539 88 539 88 539 169 c 0,28,29
62 566 m 0,40,41
 62 646 62 646 117.5 699 c 128,-1,42
 173 752 173 752 262 752 c 0,43,44
 350 752 350 752 406 699.5 c 128,-1,45
 462 647 462 647 462 566 c 0,46,47
 462 484 462 484 405.5 431.5 c 128,-1,48
 349 379 349 379 262 379 c 0,49,50
 174 379 174 379 118 432 c 128,-1,51
 62 485 62 485 62 566 c 0,40,41
EndSplineSet
EndChar

StartChar: ampersand
Encoding: 38 38 9
Width: 676
GlyphClass: 2
Flags: W
LayerCount: 2
Fore
SplineSet
167 196 m 0,0,1
 167 144 167 144 201 114 c 128,-1,2
 235 84 235 84 289 84 c 0,3,4
 358 84 358 84 416 145 c 1,5,-1
 260 349 l 1,6,7
 167 279 167 279 167 196 c 0,0,1
46 194 m 0,8,9
 46 332 46 332 203 433 c 1,10,11
 158 492 158 492 147 520 c 0,12,13
 138 545 138 545 138 571 c 0,14,15
 138 645 138 645 190.5 690 c 128,-1,16
 243 735 243 735 333 735 c 0,17,18
 410 735 410 735 463.5 696 c 128,-1,19
 517 657 517 657 542 598 c 1,20,-1
 453 560 l 1,21,22
 410 636 410 636 343 636 c 0,23,24
 304 636 304 636 281.5 617 c 128,-1,25
 259 598 259 598 259 568 c 0,26,27
 259 552 259 552 270.5 528.5 c 128,-1,28
 282 505 282 505 310 465 c 128,-1,29
 338 425 338 425 363 392 c 128,-1,30
 388 359 388 359 438 295 c 0,31,32
 463 262 463 262 476 245 c 1,33,34
 497 297 497 297 508 363 c 1,35,-1
 616 345 l 1,36,37
 599 237 599 237 549 151 c 1,38,-1
 668 0 l 1,39,-1
 526 0 l 1,40,-1
 481 58 l 1,41,42
 400 -18 400 -18 287 -18 c 0,43,44
 173 -18 173 -18 109.5 43.5 c 128,-1,45
 46 105 46 105 46 194 c 0,8,9
EndSplineSet
EndChar

StartChar: quotesingle
Encoding: 39 39 10
Width: 345
GlyphClass: 2
Flags: W
LayerCount: 2
Fore
SplineSet
83 517 m 1,0,-1
 172 817 l 1,1,-1
 308 817 l 1,2,-1
 178 517 l 1,3,-1
 83 517 l 1,0,-1
EndSplineSet
EndChar

StartChar: parenleft
Encoding: 40 40 11
Width: 442
GlyphClass: 2
Flags: W
LayerCount: 2
Fore
SplineSet
125 354 m 0,0,1
 125 625 125 625 295 851 c 1,2,-1
 382 802 l 1,3,4
 321 702 321 702 299 652 c 0,5,6
 243 521 243 521 243 354 c 0,7,8
 243 211 243 211 278 111 c 128,-1,9
 313 11 313 11 382 -95 c 1,10,-1
 295 -145 l 1,11,12
 214 -34 214 -34 169.5 85 c 128,-1,13
 125 204 125 204 125 354 c 0,0,1
EndSplineSet
Substitution2: "'sups' Superscript lookup 5 subtable" uni207D
Substitution2: "'aalt' Access All Alternates lookup 0 subtable" uni207D
EndChar

StartChar: parenright
Encoding: 41 41 12
Width: 442
GlyphClass: 2
Flags: W
LayerCount: 2
Fore
SplineSet
61 -95 m 1,0,1
 134 15 134 15 167 118.5 c 128,-1,2
 200 222 200 222 200 353 c 0,3,4
 200 432 200 432 189 498.5 c 128,-1,5
 178 565 178 565 156 620.5 c 128,-1,6
 134 676 134 676 114 713.5 c 128,-1,7
 94 751 94 751 61 802 c 1,8,-1
 148 851 l 1,9,10
 225 747 225 747 271.5 628.5 c 128,-1,11
 318 510 318 510 318 353 c 0,12,13
 318 201 318 201 273.5 82.5 c 128,-1,14
 229 -36 229 -36 148 -145 c 1,15,-1
 61 -95 l 1,0,1
EndSplineSet
Substitution2: "'sups' Superscript lookup 5 subtable" uni207E
Substitution2: "'aalt' Access All Alternates lookup 0 subtable" uni207E
EndChar

StartChar: asterisk
Encoding: 42 42 13
Width: 558
GlyphClass: 2
Flags: W
LayerCount: 2
Fore
SplineSet
18 401 m 1,0,-1
 59 498 l 1,1,-1
 230 431 l 1,2,-1
 224 610 l 1,3,-1
 333 610 l 1,4,-1
 327 431 l 1,5,-1
 498 498 l 1,6,-1
 539 401 l 1,7,-1
 349 344 l 1,8,-1
 494 189 l 1,9,-1
 404 122 l 1,10,-1
 279 292 l 1,11,-1
 152 122 l 1,12,-1
 63 189 l 1,13,-1
 208 344 l 1,14,-1
 18 401 l 1,0,-1
EndSplineSet
EndChar

StartChar: plus
Encoding: 43 43 14
Width: 558
GlyphClass: 2
Flags: W
LayerCount: 2
Fore
SplineSet
27 310 m 1,0,-1
 27 414 l 1,1,-1
 219 414 l 1,2,-1
 219 610 l 1,3,-1
 336 610 l 1,4,-1
 336 414 l 1,5,-1
 531 414 l 1,6,-1
 531 310 l 1,7,-1
 336 310 l 1,8,-1
 336 108 l 1,9,-1
 219 108 l 1,10,-1
 219 310 l 1,11,-1
 27 310 l 1,0,-1
EndSplineSet
Substitution2: "'sups' Superscript lookup 5 subtable" uni207A
Substitution2: "'aalt' Access All Alternates lookup 0 subtable" uni207A
EndChar

StartChar: comma
Encoding: 44 44 15
Width: 275
GlyphClass: 2
Flags: W
LayerCount: 2
Fore
SplineSet
4 -157 m 1,0,-1
 93 144 l 1,1,-1
 229 144 l 1,2,-1
 100 -157 l 1,3,-1
 4 -157 l 1,0,-1
EndSplineSet
EndChar

StartChar: hyphen
Encoding: 45 45 16
Width: 391
GlyphClass: 2
Flags: W
LayerCount: 2
Fore
SplineSet
34 310 m 1,0,-1
 34 414 l 1,1,-1
 356 414 l 1,2,-1
 356 310 l 1,3,-1
 34 310 l 1,0,-1
EndSplineSet
EndChar

StartChar: period
Encoding: 46 46 17
Width: 275
GlyphClass: 2
Flags: W
LayerCount: 2
Fore
SplineSet
60 0 m 1,0,-1
 60 143 l 1,1,-1
 217 143 l 1,2,-1
 217 0 l 1,3,-1
 60 0 l 1,0,-1
EndSplineSet
EndChar

StartChar: slash
Encoding: 47 47 18
Width: 376
GlyphClass: 2
Flags: W
LayerCount: 2
Fore
SplineSet
-15 -54 m 1,0,-1
 269 782 l 1,1,-1
 392 782 l 1,2,-1
 109 -54 l 1,3,-1
 -15 -54 l 1,0,-1
EndSplineSet
EndChar

StartChar: zero
Encoding: 48 48 19
Width: 550
GlyphClass: 2
Flags: W
LayerCount: 2
Fore
SplineSet
160 367 m 0,0,1
 160 84 160 84 276 84 c 0,2,3
 308 84 308 84 331 107.5 c 128,-1,4
 354 131 354 131 366.5 172.5 c 128,-1,5
 379 214 379 214 384.5 261.5 c 128,-1,6
 390 309 390 309 390 367 c 0,7,8
 390 426 390 426 384.5 474.5 c 128,-1,9
 379 523 379 523 366 564 c 128,-1,10
 353 605 353 605 329.5 628 c 128,-1,11
 306 651 306 651 275 651 c 0,12,13
 160 651 160 651 160 367 c 0,0,1
33 367 m 0,14,15
 33 476 33 476 55 555 c 128,-1,16
 77 634 77 634 114 674.5 c 128,-1,17
 151 715 151 715 190.5 733.5 c 128,-1,18
 230 752 230 752 275 752 c 0,19,20
 391 752 391 752 453.5 650.5 c 128,-1,21
 516 549 516 549 516 367 c 0,22,23
 516 190 516 190 454.5 86 c 128,-1,24
 393 -18 393 -18 276 -18 c 0,25,26
 233 -18 233 -18 193.5 0 c 128,-1,27
 154 18 154 18 116.5 58 c 128,-1,28
 79 98 79 98 56 177.5 c 128,-1,29
 33 257 33 257 33 367 c 0,14,15
EndSplineSet
EndChar

StartChar: one
Encoding: 49 49 20
Width: 550
GlyphClass: 2
Flags: W
LayerCount: 2
Fore
SplineSet
76 518 m 1,0,-1
 76 611 l 1,1,-1
 109 611 l 2,2,3
 261 611 261 611 261 723 c 2,4,-1
 261 742 l 1,5,-1
 367 742 l 1,6,-1
 367 -8 l 1,7,-1
 241 -8 l 1,8,-1
 241 518 l 1,9,-1
 76 518 l 1,0,-1
EndSplineSet
Substitution2: "'subs' Subscript lookup 6 subtable" uni2081
Substitution2: "'sups' Superscript lookup 5 subtable" onesuperior
Substitution2: "'sinf' Scientific Inferiors lookup 4 subtable" uni2081
AlternateSubs2: "'aalt' Access All Alternates lookup 1 subtable" uni2081 onesuperior
EndChar

StartChar: two
Encoding: 50 50 21
Width: 550
GlyphClass: 2
Flags: W
LayerCount: 2
Fore
SplineSet
38 554 m 1,0,1
 59 646 59 646 117.5 699 c 128,-1,2
 176 752 176 752 271 752 c 0,3,4
 370 752 370 752 433.5 694.5 c 128,-1,5
 497 637 497 637 497 540 c 0,6,7
 497 477 497 477 468 425.5 c 128,-1,8
 439 374 439 374 384 322 c 0,9,10
 374 311 374 311 331.5 269.5 c 128,-1,11
 289 228 289 228 273.5 211.5 c 128,-1,12
 258 195 258 195 233.5 163 c 128,-1,13
 209 131 209 131 194 100 c 1,14,-1
 495 100 l 1,15,-1
 495 0 l 1,16,-1
 45 0 l 1,17,18
 45 44 45 44 59.5 88 c 128,-1,19
 74 132 74 132 93 164.5 c 128,-1,20
 112 197 112 197 148 238.5 c 128,-1,21
 184 280 184 280 207.5 303 c 128,-1,22
 231 326 231 326 274 367 c 0,23,24
 284 376 284 376 289 381 c 0,25,26
 370 459 370 459 370 543 c 0,27,28
 370 594 370 594 342.5 622.5 c 128,-1,29
 315 651 315 651 269 651 c 0,30,31
 172 651 172 651 142 523 c 1,32,-1
 38 554 l 1,0,1
EndSplineSet
Substitution2: "'subs' Subscript lookup 6 subtable" uni2082
Substitution2: "'sups' Superscript lookup 5 subtable" twosuperior
Substitution2: "'sinf' Scientific Inferiors lookup 4 subtable" uni2082
AlternateSubs2: "'aalt' Access All Alternates lookup 1 subtable" uni2082 twosuperior
EndChar

StartChar: three
Encoding: 51 51 22
Width: 550
GlyphClass: 2
Flags: W
LayerCount: 2
Fore
SplineSet
24 149 m 1,0,-1
 122 185 l 1,1,2
 166 84 166 84 264 84 c 0,3,4
 317 84 317 84 353 117 c 128,-1,5
 389 150 389 150 389 210 c 0,6,7
 389 265 389 265 349 299.5 c 128,-1,8
 309 334 309 334 248 334 c 0,9,10
 214 334 214 334 181 330 c 1,11,-1
 181 430 l 1,12,13
 205 428 205 428 244 428 c 0,14,15
 293 428 293 428 328 459 c 128,-1,16
 363 490 363 490 363 544 c 0,17,18
 363 591 363 591 333.5 621 c 128,-1,19
 304 651 304 651 258 651 c 0,20,21
 178 651 178 651 141 545 c 1,22,-1
 41 577 l 1,23,24
 60 654 60 654 119 703 c 128,-1,25
 178 752 178 752 265 752 c 0,26,27
 368 752 368 752 428 696.5 c 128,-1,28
 488 641 488 641 488 556 c 0,29,30
 488 499 488 499 459 454.5 c 128,-1,31
 430 410 430 410 387 387 c 1,32,33
 438 370 438 370 476.5 325 c 128,-1,34
 515 280 515 280 515 210 c 0,35,36
 515 103 515 103 447 43 c 128,-1,37
 379 -17 379 -17 265 -17 c 0,38,39
 173 -17 173 -17 109 31.5 c 128,-1,40
 45 80 45 80 24 149 c 1,0,-1
EndSplineSet
Substitution2: "'subs' Subscript lookup 6 subtable" uni2083
Substitution2: "'sups' Superscript lookup 5 subtable" threesuperior
Substitution2: "'sinf' Scientific Inferiors lookup 4 subtable" uni2083
AlternateSubs2: "'aalt' Access All Alternates lookup 1 subtable" uni2083 threesuperior
EndChar

StartChar: four
Encoding: 52 52 23
Width: 550
GlyphClass: 2
Flags: W
LayerCount: 2
Fore
SplineSet
16 252 m 1,0,-1
 340 742 l 1,1,-1
 445 742 l 1,2,-1
 445 254 l 1,3,-1
 536 254 l 1,4,-1
 536 153 l 1,5,-1
 445 153 l 1,6,-1
 445 -7 l 1,7,-1
 324 -7 l 1,8,-1
 324 153 l 1,9,-1
 16 153 l 1,10,-1
 16 252 l 1,0,-1
132 254 m 1,11,-1
 324 254 l 1,12,-1
 324 460 l 2,13,14
 324 510 324 510 328 558 c 1,15,-1
 323 558 l 1,16,17
 303 522 303 522 273 473 c 2,18,-1
 132 254 l 1,11,-1
EndSplineSet
Substitution2: "'subs' Subscript lookup 6 subtable" uni2084
Substitution2: "'sups' Superscript lookup 5 subtable" uni2074
Substitution2: "'sinf' Scientific Inferiors lookup 4 subtable" uni2084
AlternateSubs2: "'aalt' Access All Alternates lookup 1 subtable" uni2084 uni2074
EndChar

StartChar: five
Encoding: 53 53 24
Width: 550
GlyphClass: 2
Flags: W
LayerCount: 2
Fore
SplineSet
33 137 m 1,0,-1
 134 173 l 1,1,2
 151 134 151 134 183.5 109 c 128,-1,3
 216 84 216 84 255 84 c 0,4,5
 314 84 314 84 348 123.5 c 128,-1,6
 382 163 382 163 382 229 c 0,7,8
 382 293 382 293 345.5 333.5 c 128,-1,9
 309 374 309 374 253 374 c 0,10,11
 185 374 185 374 134 308 c 1,12,-1
 56 337 l 1,13,-1
 95 735 l 1,14,-1
 467 735 l 1,15,-1
 467 634 l 1,16,-1
 208 634 l 1,17,-1
 186 441 l 1,18,19
 231 474 231 474 296 474 c 0,20,21
 390 474 390 474 448.5 408.5 c 128,-1,22
 507 343 507 343 507 231 c 0,23,24
 507 184 507 184 492.5 141 c 128,-1,25
 478 98 478 98 450 62 c 128,-1,26
 422 26 422 26 372.5 4.5 c 128,-1,27
 323 -17 323 -17 260 -17 c 0,28,29
 175 -17 175 -17 118.5 25.5 c 128,-1,30
 62 68 62 68 33 137 c 1,0,-1
EndSplineSet
EndChar

StartChar: six
Encoding: 54 54 25
Width: 550
GlyphClass: 2
Flags: W
LayerCount: 2
Fore
SplineSet
164 234 m 0,0,1
 164 165 164 165 196.5 124.5 c 128,-1,2
 229 84 229 84 280 84 c 256,3,4
 331 84 331 84 362.5 124 c 128,-1,5
 394 164 394 164 394 234 c 0,6,7
 394 306 394 306 362.5 346 c 128,-1,8
 331 386 331 386 279 386 c 0,9,10
 229 386 229 386 196.5 344 c 128,-1,11
 164 302 164 302 164 234 c 0,0,1
37 334 m 0,12,13
 37 418 37 418 52.5 491 c 128,-1,14
 68 564 68 564 98.5 623.5 c 128,-1,15
 129 683 129 683 181.5 717.5 c 128,-1,16
 234 752 234 752 303 752 c 0,17,18
 450 752 450 752 514 600 c 1,19,-1
 419 567 l 1,20,21
 373 651 373 651 304 651 c 0,22,23
 209 651 209 651 174 496 c 0,24,25
 166 459 166 459 161 412 c 1,26,27
 179 443 179 443 214.5 464.5 c 128,-1,28
 250 486 250 486 297 486 c 0,29,30
 395 486 395 486 456.5 415 c 128,-1,31
 518 344 518 344 518 235 c 0,32,33
 518 125 518 125 456 54 c 128,-1,34
 394 -17 394 -17 284 -17 c 0,35,36
 169 -17 169 -17 108 61 c 0,37,38
 37 150 37 150 37 334 c 0,12,13
EndSplineSet
EndChar

StartChar: seven
Encoding: 55 55 26
Width: 550
GlyphClass: 2
Flags: W
LayerCount: 2
Fore
SplineSet
39 631 m 1,0,-1
 39 735 l 1,1,-1
 505 735 l 1,2,-1
 505 652 l 1,3,4
 331 375 331 375 246 -7 c 1,5,-1
 120 -7 l 1,6,7
 182 316 182 316 363 631 c 1,8,-1
 39 631 l 1,0,-1
EndSplineSet
EndChar

StartChar: eight
Encoding: 56 56 27
Width: 550
GlyphClass: 2
Flags: W
LayerCount: 2
Fore
SplineSet
177 544 m 0,0,1
 177 495 177 495 204.5 465.5 c 128,-1,2
 232 436 232 436 275 436 c 256,3,4
 318 436 318 436 344.5 466 c 128,-1,5
 371 496 371 496 371 544 c 0,6,7
 371 589 371 589 344.5 620 c 128,-1,8
 318 651 318 651 275 651 c 0,9,10
 231 651 231 651 204 620 c 128,-1,11
 177 589 177 589 177 544 c 0,0,1
29 202 m 0,12,13
 29 275 29 275 67.5 321 c 128,-1,14
 106 367 106 367 157 387 c 1,15,16
 51 442 51 442 51 549 c 0,17,18
 51 637 51 637 115 694.5 c 128,-1,19
 179 752 179 752 275 752 c 0,20,21
 370 752 370 752 434 694.5 c 128,-1,22
 498 637 498 637 498 549 c 0,23,24
 498 441 498 441 392 387 c 1,25,26
 447 365 447 365 484.5 318.5 c 128,-1,27
 522 272 522 272 522 202 c 0,28,29
 522 104 522 104 452.5 43.5 c 128,-1,30
 383 -17 383 -17 275 -17 c 0,31,32
 172 -17 172 -17 100.5 40.5 c 128,-1,33
 29 98 29 98 29 202 c 0,12,13
155 208 m 0,34,35
 155 154 155 154 188.5 119 c 128,-1,36
 222 84 222 84 275 84 c 256,37,38
 328 84 328 84 361.5 119 c 128,-1,39
 395 154 395 154 395 208 c 0,40,41
 395 260 395 260 361.5 298 c 128,-1,42
 328 336 328 336 275 336 c 0,43,44
 223 336 223 336 189 298.5 c 128,-1,45
 155 261 155 261 155 208 c 0,34,35
EndSplineSet
EndChar

StartChar: nine
Encoding: 57 57 28
Width: 550
GlyphClass: 2
Flags: W
LayerCount: 2
Fore
SplineSet
154 503 m 0,0,1
 154 436 154 436 186 395 c 128,-1,2
 218 354 218 354 267 354 c 0,3,4
 318 354 318 354 349 395.5 c 128,-1,5
 380 437 380 437 380 503 c 0,6,7
 380 567 380 567 349.5 609 c 128,-1,8
 319 651 319 651 267 651 c 0,9,10
 217 651 217 651 185.5 609.5 c 128,-1,11
 154 568 154 568 154 503 c 0,0,1
30 136 m 1,12,-1
 129 168 l 1,13,14
 172 84 172 84 244 84 c 0,15,16
 282 84 282 84 310.5 105 c 128,-1,17
 339 126 339 126 354.5 162.5 c 128,-1,18
 370 199 370 199 377.5 238.5 c 128,-1,19
 385 278 385 278 386 323 c 1,20,21
 341 255 341 255 250 255 c 0,22,23
 158 255 158 255 94 322 c 128,-1,24
 30 389 30 389 30 502 c 0,25,26
 30 612 30 612 96.5 682 c 128,-1,27
 163 752 163 752 266 752 c 0,28,29
 354 752 354 752 412.5 696 c 128,-1,30
 471 640 471 640 492 549 c 0,31,32
 506 489 506 489 506 401 c 0,33,34
 506 202 506 202 441 92.5 c 128,-1,35
 376 -17 376 -17 243 -17 c 0,36,37
 166 -17 166 -17 109.5 29.5 c 128,-1,38
 53 76 53 76 30 136 c 1,12,-1
EndSplineSet
EndChar

StartChar: colon
Encoding: 58 58 29
Width: 275
GlyphClass: 2
Flags: W
LayerCount: 2
Fore
SplineSet
60 0 m 1,0,-1
 60 145 l 1,1,-1
 217 145 l 1,2,-1
 217 0 l 1,3,-1
 60 0 l 1,0,-1
60 394 m 1,4,-1
 60 539 l 1,5,-1
 217 539 l 1,6,-1
 217 394 l 1,7,-1
 60 394 l 1,4,-1
EndSplineSet
EndChar

StartChar: semicolon
Encoding: 59 59 30
Width: 275
GlyphClass: 2
Flags: W
LayerCount: 2
Fore
SplineSet
4 -156 m 1,0,-1
 93 145 l 1,1,-1
 229 145 l 1,2,-1
 100 -156 l 1,3,-1
 4 -156 l 1,0,-1
65 394 m 1,4,-1
 65 539 l 1,5,-1
 222 539 l 1,6,-1
 222 394 l 1,7,-1
 65 394 l 1,4,-1
EndSplineSet
EndChar

StartChar: less
Encoding: 60 60 31
Width: 558
GlyphClass: 2
Flags: W
LayerCount: 2
Fore
SplineSet
40 302 m 1,0,-1
 40 411 l 1,1,-1
 446 715 l 1,2,-1
 510 625 l 1,3,-1
 156 357 l 1,4,-1
 510 87 l 1,5,-1
 446 -2 l 1,6,-1
 40 302 l 1,0,-1
EndSplineSet
EndChar

StartChar: equal
Encoding: 61 61 32
Width: 558
GlyphClass: 2
Flags: W
LayerCount: 2
Fore
SplineSet
48 208 m 1,0,-1
 48 312 l 1,1,-1
 509 312 l 1,2,-1
 509 208 l 1,3,-1
 48 208 l 1,0,-1
48 413 m 1,4,-1
 48 518 l 1,5,-1
 509 518 l 1,6,-1
 509 413 l 1,7,-1
 48 413 l 1,4,-1
EndSplineSet
Substitution2: "'sups' Superscript lookup 5 subtable" uni207C
Substitution2: "'aalt' Access All Alternates lookup 0 subtable" uni207C
EndChar

StartChar: greater
Encoding: 62 62 33
Width: 558
GlyphClass: 2
Flags: W
LayerCount: 2
Fore
SplineSet
111 -2 m 1,0,-1
 47 87 l 1,1,-1
 400 357 l 1,2,-1
 47 625 l 1,3,-1
 111 715 l 1,4,-1
 518 411 l 1,5,-1
 518 302 l 1,6,-1
 111 -2 l 1,0,-1
EndSplineSet
EndChar

StartChar: question
Encoding: 63 63 34
Width: 571
GlyphClass: 2
Flags: W
LayerCount: 2
Fore
SplineSet
59 577 m 1,0,1
 81 653 81 653 141.5 704 c 128,-1,2
 202 755 202 755 290 755 c 0,3,4
 387 755 387 755 448 698 c 128,-1,5
 509 641 509 641 509 547 c 0,6,7
 509 503 509 503 492 467.5 c 128,-1,8
 475 432 475 432 450.5 408.5 c 128,-1,9
 426 385 426 385 401 362 c 128,-1,10
 376 339 376 339 359 307.5 c 128,-1,11
 342 276 342 276 342 238 c 2,12,-1
 342 205 l 1,13,-1
 219 205 l 1,14,-1
 219 246 l 2,15,16
 219 285 219 285 231 318 c 128,-1,17
 243 351 243 351 262 372.5 c 128,-1,18
 281 394 281 394 301.5 416 c 128,-1,19
 322 438 322 438 341 456 c 128,-1,20
 360 474 360 474 372 499 c 128,-1,21
 384 524 384 524 384 553 c 0,22,23
 384 597 384 597 359.5 624 c 128,-1,24
 335 651 335 651 292 651 c 0,25,26
 210 651 210 651 168 541 c 1,27,-1
 59 577 l 1,0,1
202 -5 m 1,28,-1
 202 137 l 1,29,-1
 359 137 l 1,30,-1
 359 -5 l 1,31,-1
 202 -5 l 1,28,-1
EndSplineSet
EndChar

StartChar: at
Encoding: 64 64 35
Width: 934
GlyphClass: 2
Flags: W
LayerCount: 2
Fore
SplineSet
48 346 m 0,0,1
 48 532 48 532 171 651 c 128,-1,2
 294 770 294 770 486 770 c 0,3,4
 662 770 662 770 774 664 c 128,-1,5
 886 558 886 558 886 399 c 0,6,7
 886 322 886 322 866 264.5 c 128,-1,8
 846 207 846 207 813.5 175.5 c 128,-1,9
 781 144 781 144 745.5 128.5 c 128,-1,10
 710 113 710 113 673 113 c 0,11,12
 633 113 633 113 602 137.5 c 128,-1,13
 571 162 571 162 563 199 c 1,14,-1
 562 199 l 1,15,16
 549 166 549 166 511.5 140 c 128,-1,17
 474 114 474 114 427 114 c 0,18,19
 355 114 355 114 305.5 169 c 128,-1,20
 256 224 256 224 256 314 c 0,21,22
 256 434 256 434 317.5 502.5 c 128,-1,23
 379 571 379 571 465 571 c 0,24,25
 528 571 528 571 565 523 c 1,26,-1
 568 564 l 1,27,-1
 658 564 l 1,28,-1
 642 270 l 2,29,30
 642 267 642 267 642 265 c 0,31,32
 642 236 642 236 652.5 219.5 c 128,-1,33
 663 203 663 203 680 203 c 0,34,35
 721 203 721 203 751.5 254 c 128,-1,36
 782 305 782 305 782 392 c 0,37,38
 782 521 782 521 701.5 602 c 128,-1,39
 621 683 621 683 486 683 c 0,40,41
 340 683 340 683 246.5 587.5 c 128,-1,42
 153 492 153 492 153 346 c 0,43,44
 153 190 153 190 243.5 99.5 c 128,-1,45
 334 9 334 9 477 9 c 0,46,47
 585 9 585 9 684 38 c 1,48,-1
 702 -43 l 1,49,50
 606 -77 606 -77 477 -77 c 0,51,52
 282 -77 282 -77 165 40.5 c 128,-1,53
 48 158 48 158 48 346 c 0,0,1
367 316 m 0,54,55
 367 273 367 273 387.5 241.5 c 128,-1,56
 408 210 408 210 442 210 c 0,57,58
 482 210 482 210 514 254 c 128,-1,59
 546 298 546 298 546 399 c 0,60,61
 546 436 546 436 528 459.5 c 128,-1,62
 510 483 510 483 474 483 c 0,63,64
 434 483 434 483 400.5 436.5 c 128,-1,65
 367 390 367 390 367 316 c 0,54,55
EndSplineSet
EndChar

StartChar: A
Encoding: 65 65 36
Width: 658
GlyphClass: 2
Flags: W
LayerCount: 2
Fore
SplineSet
219 281 m 1,0,-1
 439 281 l 1,1,-1
 376 471 l 2,2,3
 370 492 370 492 362 517 c 128,-1,4
 354 542 354 542 345 572 c 128,-1,5
 336 602 336 602 332 617 c 1,6,-1
 326 617 l 1,7,8
 323 608 323 608 282 471 c 1,9,-1
 219 281 l 1,0,-1
-4 0 m 1,10,-1
 262 735 l 1,11,-1
 397 735 l 1,12,-1
 662 0 l 1,13,-1
 532 0 l 1,14,-1
 471 182 l 1,15,-1
 187 182 l 1,16,-1
 126 0 l 1,17,-1
 -4 0 l 1,10,-1
EndSplineSet
Substitution2: "Single Substitution lookup 12 subtable" ordfeminine
EndChar

StartChar: B
Encoding: 66 66 37
Width: 663
GlyphClass: 2
Flags: W
LayerCount: 2
Fore
SplineSet
83 0 m 1,0,-1
 83 735 l 1,1,-1
 361 735 l 2,2,3
 479 735 479 735 537.5 683 c 128,-1,4
 596 631 596 631 596 541 c 0,5,6
 596 487 596 487 570.5 448.5 c 128,-1,7
 545 410 545 410 505 388 c 1,8,9
 551 372 551 372 586.5 326 c 128,-1,10
 622 280 622 280 622 214 c 0,11,12
 622 122 622 122 563 61 c 128,-1,13
 504 0 504 0 398 0 c 2,14,-1
 83 0 l 1,0,-1
205 104 m 1,15,-1
 376 104 l 2,16,17
 426 104 426 104 460.5 133 c 128,-1,18
 495 162 495 162 495 214 c 0,19,20
 495 263 495 263 463 294.5 c 128,-1,21
 431 326 431 326 374 326 c 2,22,-1
 205 326 l 1,23,-1
 205 104 l 1,15,-1
205 429 m 1,24,-1
 349 429 l 2,25,26
 402 429 402 429 435.5 454.5 c 128,-1,27
 469 480 469 480 469 532 c 0,28,29
 469 577 469 577 441 603.5 c 128,-1,30
 413 630 413 630 353 630 c 2,31,-1
 205 630 l 1,32,-1
 205 429 l 1,24,-1
EndSplineSet
EndChar

StartChar: C
Encoding: 67 67 38
Width: 663
GlyphClass: 2
Flags: W
LayerCount: 2
Fore
SplineSet
39 368 m 0,0,1
 39 545 39 545 130 648.5 c 128,-1,2
 221 752 221 752 365 752 c 0,3,4
 458 752 458 752 524.5 701 c 128,-1,5
 591 650 591 650 623 574 c 1,6,-1
 518 540 l 1,7,8
 459 647 459 647 363 647 c 0,9,10
 272 647 272 647 218.5 571 c 128,-1,11
 165 495 165 495 165 368 c 0,12,13
 165 239 165 239 219 163.5 c 128,-1,14
 273 88 273 88 363 88 c 0,15,16
 422 88 422 88 467 123.5 c 128,-1,17
 512 159 512 159 532 210 c 1,18,-1
 642 176 l 1,19,20
 628 142 628 142 606 111 c 128,-1,21
 584 80 584 80 551 50 c 128,-1,22
 518 20 518 20 470 1.5 c 128,-1,23
 422 -17 422 -17 365 -17 c 0,24,25
 224 -17 224 -17 131.5 86 c 128,-1,26
 39 189 39 189 39 368 c 0,0,1
EndSplineSet
EndChar

StartChar: D
Encoding: 68 68 39
Width: 685
GlyphClass: 2
Flags: W
LayerCount: 2
Fore
SplineSet
83 0 m 1,0,-1
 83 735 l 1,1,-1
 301 735 l 2,2,3
 467 735 467 735 557.5 640 c 128,-1,4
 648 545 648 545 648 368 c 0,5,6
 648 308 648 308 636.5 255.5 c 128,-1,7
 625 203 625 203 599.5 155.5 c 128,-1,8
 574 108 574 108 535 74 c 128,-1,9
 496 40 496 40 436 20 c 128,-1,10
 376 0 376 0 300 0 c 2,11,-1
 83 0 l 1,0,-1
205 103 m 1,12,-1
 286 103 l 2,13,14
 520 103 520 103 520 368 c 0,15,16
 520 509 520 509 459 570 c 128,-1,17
 398 631 398 631 288 631 c 2,18,-1
 205 631 l 1,19,-1
 205 103 l 1,12,-1
EndSplineSet
EndChar

StartChar: E
Encoding: 69 69 40
Width: 603
GlyphClass: 2
Flags: W
LayerCount: 2
Fore
SplineSet
83 0 m 1,0,-1
 83 735 l 1,1,-1
 565 735 l 1,2,-1
 565 630 l 1,3,-1
 205 630 l 1,4,-1
 205 431 l 1,5,-1
 530 431 l 1,6,-1
 530 328 l 1,7,-1
 205 328 l 1,8,-1
 205 104 l 1,9,-1
 574 104 l 1,10,-1
 574 0 l 1,11,-1
 83 0 l 1,0,-1
EndSplineSet
EndChar

StartChar: F
Encoding: 70 70 41
Width: 564
GlyphClass: 2
Flags: W
LayerCount: 2
Fore
SplineSet
83 0 m 1,0,-1
 83 735 l 1,1,-1
 551 735 l 1,2,-1
 551 630 l 1,3,-1
 205 630 l 1,4,-1
 205 420 l 1,5,-1
 515 420 l 1,6,-1
 515 317 l 1,7,-1
 205 317 l 1,8,-1
 205 0 l 1,9,-1
 83 0 l 1,0,-1
EndSplineSet
EndChar

StartChar: G
Encoding: 71 71 42
Width: 709
GlyphClass: 2
Flags: W
LayerCount: 2
Fore
SplineSet
39 368 m 0,0,1
 39 536 39 536 129 644 c 128,-1,2
 219 752 219 752 371 752 c 0,3,4
 427 752 427 752 475 733.5 c 128,-1,5
 523 715 523 715 554.5 685.5 c 128,-1,6
 586 656 586 656 605 629.5 c 128,-1,7
 624 603 624 603 637 576 c 1,8,-1
 532 542 l 1,9,10
 512 571 512 571 495.5 590.5 c 128,-1,11
 479 610 479 610 446 628.5 c 128,-1,12
 413 647 413 647 372 647 c 0,13,14
 275 647 275 647 220 570.5 c 128,-1,15
 165 494 165 494 165 368 c 0,16,17
 165 239 165 239 221 163.5 c 128,-1,18
 277 88 277 88 366 88 c 0,19,20
 443 88 443 88 487 132.5 c 128,-1,21
 531 177 531 177 536 246 c 0,22,23
 539 288 539 288 539 307 c 1,24,-1
 359 307 l 1,25,-1
 359 411 l 1,26,-1
 658 411 l 1,27,-1
 658 0 l 1,28,-1
 573 0 l 1,29,-1
 562 75 l 1,30,31
 502 -17 502 -17 362 -17 c 0,32,33
 223 -17 223 -17 131 87.5 c 128,-1,34
 39 192 39 192 39 368 c 0,0,1
EndSplineSet
EndChar

StartChar: H
Encoding: 72 72 43
Width: 705
GlyphClass: 2
Flags: W
LayerCount: 2
Fore
SplineSet
83 0 m 1,0,-1
 83 735 l 1,1,-1
 204 735 l 1,2,-1
 204 429 l 1,3,-1
 502 429 l 1,4,-1
 502 735 l 1,5,-1
 623 735 l 1,6,-1
 623 0 l 1,7,-1
 502 0 l 1,8,-1
 502 326 l 1,9,-1
 204 326 l 1,10,-1
 204 0 l 1,11,-1
 83 0 l 1,0,-1
EndSplineSet
EndChar

StartChar: I
Encoding: 73 73 44
Width: 286
GlyphClass: 2
Flags: W
LayerCount: 2
Fore
SplineSet
83 0 m 1,0,-1
 83 735 l 1,1,-1
 205 735 l 1,2,-1
 205 0 l 1,3,-1
 83 0 l 1,0,-1
EndSplineSet
EndChar

StartChar: J
Encoding: 74 74 45
Width: 513
GlyphClass: 2
Flags: W
LayerCount: 2
Fore
SplineSet
8 137 m 1,0,-1
 110 177 l 1,1,2
 121 139 121 139 147.5 113.5 c 128,-1,3
 174 88 174 88 212 88 c 0,4,5
 258 88 258 88 283 123.5 c 128,-1,6
 308 159 308 159 308 226 c 2,7,-1
 308 735 l 1,8,-1
 431 735 l 1,9,-1
 431 209 l 2,10,11
 431 101 431 101 375 42 c 128,-1,12
 319 -17 319 -17 215 -17 c 0,13,14
 130 -17 130 -17 78.5 27.5 c 128,-1,15
 27 72 27 72 8 137 c 1,0,-1
EndSplineSet
EndChar

StartChar: K
Encoding: 75 75 46
Width: 650
GlyphClass: 2
Flags: W
LayerCount: 2
Fore
SplineSet
83 0 m 1,0,-1
 83 735 l 1,1,-1
 205 735 l 1,2,-1
 205 402 l 1,3,-1
 207 402 l 1,4,-1
 492 735 l 1,5,-1
 648 735 l 1,6,-1
 363 413 l 1,7,-1
 655 0 l 1,8,-1
 507 0 l 1,9,-1
 286 327 l 1,10,-1
 205 235 l 1,11,-1
 205 0 l 1,12,-1
 83 0 l 1,0,-1
EndSplineSet
EndChar

StartChar: L
Encoding: 76 76 47
Width: 547
GlyphClass: 2
Flags: W
LayerCount: 2
Fore
SplineSet
83 0 m 1,0,-1
 83 735 l 1,1,-1
 205 735 l 1,2,-1
 205 104 l 1,3,-1
 538 104 l 1,4,-1
 538 0 l 1,5,-1
 83 0 l 1,0,-1
EndSplineSet
EndChar

StartChar: M
Encoding: 77 77 48
Width: 854
GlyphClass: 2
Flags: W
LayerCount: 2
Fore
SplineSet
83 0 m 1,0,-1
 83 735 l 1,1,-1
 232 735 l 1,2,-1
 361 393 l 2,3,4
 375 355 375 355 396.5 289.5 c 128,-1,5
 418 224 418 224 425 204 c 1,6,-1
 428 204 l 1,7,8
 475 339 475 339 494 393 c 2,9,-1
 621 735 l 1,10,-1
 772 735 l 1,11,-1
 772 0 l 1,12,-1
 651 0 l 1,13,-1
 651 334 l 2,14,15
 651 417 651 417 664 560 c 1,16,-1
 661 560 l 1,17,-1
 608 404 l 1,18,-1
 473 42 l 1,19,-1
 382 42 l 1,20,-1
 249 404 l 1,21,-1
 194 561 l 1,22,-1
 190 561 l 1,23,24
 204 427 204 427 204 334 c 2,25,-1
 204 0 l 1,26,-1
 83 0 l 1,0,-1
EndSplineSet
EndChar

StartChar: N
Encoding: 78 78 49
Width: 710
GlyphClass: 2
Flags: W
LayerCount: 2
Fore
SplineSet
83 0 m 1,0,-1
 83 735 l 1,1,-1
 211 735 l 1,2,-1
 515 182 l 1,3,-1
 519 182 l 1,4,5
 505 280 505 280 505 394 c 2,6,-1
 505 735 l 1,7,-1
 628 735 l 1,8,-1
 628 0 l 1,9,-1
 500 0 l 1,10,-1
 278 397 l 1,11,-1
 196 550 l 1,12,-1
 191 550 l 1,13,14
 205 441 205 441 205 338 c 2,15,-1
 205 0 l 1,16,-1
 83 0 l 1,0,-1
EndSplineSet
EndChar

StartChar: O
Encoding: 79 79 50
Width: 709
GlyphClass: 2
Flags: W
LayerCount: 2
Fore
SplineSet
39 367 m 0,0,1
 39 540 39 540 125.5 646 c 128,-1,2
 212 752 212 752 355 752 c 256,3,4
 498 752 498 752 584 646.5 c 128,-1,5
 670 541 670 541 670 367 c 256,6,7
 670 193 670 193 583.5 88 c 128,-1,8
 497 -17 497 -17 355 -17 c 0,9,10
 212 -17 212 -17 125.5 88 c 128,-1,11
 39 193 39 193 39 367 c 0,0,1
165 367 m 0,12,13
 165 238 165 238 216 163 c 128,-1,14
 267 88 267 88 355 88 c 0,15,16
 442 88 442 88 493 162.5 c 128,-1,17
 544 237 544 237 544 367 c 0,18,19
 544 495 544 495 494 571 c 128,-1,20
 444 647 444 647 355 647 c 0,21,22
 267 647 267 647 216 571 c 128,-1,23
 165 495 165 495 165 367 c 0,12,13
EndSplineSet
Substitution2: "Single Substitution lookup 12 subtable" ordmasculine
EndChar

StartChar: P
Encoding: 80 80 51
Width: 647
GlyphClass: 2
Flags: W
LayerCount: 2
Fore
SplineSet
83 0 m 1,0,-1
 83 735 l 1,1,-1
 370 735 l 2,2,3
 485 735 485 735 549.5 673 c 128,-1,4
 614 611 614 611 614 510 c 0,5,6
 614 406 614 406 547.5 345.5 c 128,-1,7
 481 285 481 285 372 285 c 2,8,-1
 205 285 l 1,9,-1
 205 0 l 1,10,-1
 83 0 l 1,0,-1
205 389 m 1,11,-1
 355 389 l 2,12,13
 418 389 418 389 453.5 420 c 128,-1,14
 489 451 489 451 489 510 c 256,15,16
 489 569 489 569 454.5 599.5 c 128,-1,17
 420 630 420 630 354 630 c 2,18,-1
 205 630 l 1,19,-1
 205 389 l 1,11,-1
EndSplineSet
EndChar

StartChar: Q
Encoding: 81 81 52
Width: 709
GlyphClass: 2
Flags: W
LayerCount: 2
Fore
SplineSet
39 367 m 0,0,1
 39 542 39 542 126 647 c 128,-1,2
 213 752 213 752 355 752 c 256,3,4
 497 752 497 752 583.5 646 c 128,-1,5
 670 540 670 540 670 367 c 0,6,7
 670 200 670 200 589 95 c 1,8,-1
 670 11 l 1,9,-1
 600 -51 l 1,10,-1
 521 31 l 1,11,12
 451 -17 451 -17 355 -17 c 0,13,14
 212 -17 212 -17 125.5 89 c 128,-1,15
 39 195 39 195 39 367 c 0,0,1
327 231 m 1,16,-1
 397 295 l 1,17,-1
 505 182 l 1,18,19
 544 254 544 254 544 367 c 0,20,21
 544 498 544 498 493.5 572.5 c 128,-1,22
 443 647 443 647 355 647 c 256,23,24
 267 647 267 647 216 571.5 c 128,-1,25
 165 496 165 496 165 367 c 256,26,27
 165 238 165 238 216 163 c 128,-1,28
 267 88 267 88 355 88 c 0,29,30
 405 88 405 88 442 112 c 1,31,-1
 327 231 l 1,16,-1
EndSplineSet
EndChar

StartChar: R
Encoding: 82 82 53
Width: 667
GlyphClass: 2
Flags: W
LayerCount: 2
Fore
SplineSet
205 398 m 1,0,-1
 360 398 l 2,1,2
 422 398 422 398 455.5 428.5 c 128,-1,3
 489 459 489 459 489 517 c 0,4,5
 489 568 489 568 454.5 599 c 128,-1,6
 420 630 420 630 357 630 c 2,7,-1
 205 630 l 1,8,-1
 205 398 l 1,0,-1
83 0 m 1,9,-1
 83 735 l 1,10,-1
 380 735 l 2,11,12
 493 735 493 735 554 675.5 c 128,-1,13
 615 616 615 616 615 527 c 0,14,15
 615 452 615 452 581.5 404.5 c 128,-1,16
 548 357 548 357 505 340 c 1,17,18
 540 316 540 316 555 289 c 128,-1,19
 570 262 570 262 580 207 c 0,20,21
 602 98 602 98 660 0 c 1,22,-1
 523 0 l 1,23,24
 478 77 478 77 452 198 c 0,25,26
 441 245 441 245 421 269.5 c 128,-1,27
 401 294 401 294 359 294 c 2,28,-1
 205 294 l 1,29,-1
 205 0 l 1,30,-1
 83 0 l 1,9,-1
EndSplineSet
EndChar

StartChar: S
Encoding: 83 83 54
Width: 608
GlyphClass: 2
Flags: W
LayerCount: 2
Fore
SplineSet
25 157 m 1,0,-1
 133 193 l 1,1,2
 159 147 159 147 208 117.5 c 128,-1,3
 257 88 257 88 317 88 c 0,4,5
 378 88 378 88 415.5 118 c 128,-1,6
 453 148 453 148 453 195 c 0,7,8
 453 245 453 245 413.5 273 c 128,-1,9
 374 301 374 301 297 327 c 0,10,11
 189 363 189 363 151 385 c 0,12,13
 51 441 51 441 51 549 c 0,14,15
 51 640 51 640 122.5 696 c 128,-1,16
 194 752 194 752 309 752 c 0,17,18
 404 752 404 752 471.5 707.5 c 128,-1,19
 539 663 539 663 570 595 c 1,20,-1
 466 560 l 1,21,22
 407 647 407 647 308 647 c 0,23,24
 248 647 248 647 212.5 620 c 128,-1,25
 177 593 177 593 177 549 c 0,26,27
 177 536 177 536 180 524.5 c 128,-1,28
 183 513 183 513 191.5 502.5 c 128,-1,29
 200 492 200 492 206.5 485 c 128,-1,30
 213 478 213 478 228 469.5 c 128,-1,31
 243 461 243 461 251.5 456.5 c 128,-1,32
 260 452 260 452 280.5 444.5 c 128,-1,33
 301 437 301 437 310 434 c 128,-1,34
 319 431 319 431 343 423 c 128,-1,35
 367 415 367 415 375 413 c 0,36,37
 418 399 418 399 450.5 383 c 128,-1,38
 483 367 483 367 514 342.5 c 128,-1,39
 545 318 545 318 562 281.5 c 128,-1,40
 579 245 579 245 579 200 c 0,41,42
 579 97 579 97 505 40 c 128,-1,43
 431 -17 431 -17 314 -17 c 0,44,45
 213 -17 213 -17 136.5 30 c 128,-1,46
 60 77 60 77 25 157 c 1,0,-1
EndSplineSet
EndChar

StartChar: T
Encoding: 84 84 55
Width: 565
GlyphClass: 2
Flags: W
LayerCount: 2
Fore
SplineSet
10 630 m 1,0,-1
 10 735 l 1,1,-1
 557 735 l 1,2,-1
 557 630 l 1,3,-1
 345 630 l 1,4,-1
 345 0 l 1,5,-1
 222 0 l 1,6,-1
 222 630 l 1,7,-1
 10 630 l 1,0,-1
EndSplineSet
EndChar

StartChar: U
Encoding: 85 85 56
Width: 701
GlyphClass: 2
Flags: W
LayerCount: 2
Fore
SplineSet
79 275 m 2,0,-1
 79 735 l 1,1,-1
 203 735 l 1,2,-1
 203 275 l 2,3,4
 203 180 203 180 242 134 c 128,-1,5
 281 88 281 88 350 88 c 0,6,7
 422 88 422 88 461 136 c 128,-1,8
 500 184 500 184 500 275 c 2,9,-1
 500 735 l 1,10,-1
 623 735 l 1,11,-1
 623 275 l 2,12,13
 623 135 623 135 554 59 c 128,-1,14
 485 -17 485 -17 350 -17 c 0,15,16
 220 -17 220 -17 149.5 56.5 c 128,-1,17
 79 130 79 130 79 275 c 2,0,-1
EndSplineSet
EndChar

StartChar: V
Encoding: 86 86 57
Width: 612
GlyphClass: 2
Flags: W
LayerCount: 2
Fore
SplineSet
1 735 m 1,0,-1
 134 735 l 1,1,-1
 257 310 l 1,2,3
 300 145 300 145 305 128 c 1,4,-1
 308 127 l 1,5,6
 331 213 331 213 356 310 c 2,7,-1
 479 735 l 1,8,-1
 612 735 l 1,9,-1
 375 0 l 1,10,-1
 238 0 l 1,11,-1
 1 735 l 1,0,-1
EndSplineSet
EndChar

StartChar: W
Encoding: 87 87 58
Width: 874
GlyphClass: 2
Flags: W
LayerCount: 2
Fore
SplineSet
12 735 m 1,0,-1
 141 735 l 1,1,-1
 217 330 l 2,2,3
 234 226 234 226 248 133 c 1,4,-1
 253 133 l 1,5,6
 281 287 281 287 289 330 c 2,7,-1
 375 735 l 1,8,-1
 499 735 l 1,9,-1
 586 330 l 2,10,11
 593 299 593 299 606.5 224.5 c 128,-1,12
 620 150 620 150 623 133 c 1,13,-1
 627 133 l 1,14,15
 632 162 632 162 643.5 231.5 c 128,-1,16
 655 301 655 301 660 330 c 2,17,-1
 734 735 l 1,18,-1
 863 735 l 1,19,-1
 698 0 l 1,20,-1
 558 0 l 1,21,-1
 474 400 l 2,22,23
 441 573 441 573 440 586 c 1,24,-1
 436 586 l 1,25,26
 436 584 436 584 401 400 c 2,27,-1
 318 0 l 1,28,-1
 178 0 l 1,29,-1
 12 735 l 1,0,-1
EndSplineSet
EndChar

StartChar: X
Encoding: 88 88 59
Width: 616
GlyphClass: 2
Flags: W
LayerCount: 2
Fore
SplineSet
2 0 m 1,0,-1
 237 377 l 1,1,-1
 14 735 l 1,2,-1
 159 735 l 1,3,-1
 248 575 l 2,4,5
 256 559 256 559 276 523.5 c 128,-1,6
 296 488 296 488 307 468 c 1,7,-1
 310 468 l 1,8,9
 313 474 313 474 371 575 c 2,10,-1
 461 735 l 1,11,-1
 605 735 l 1,12,-1
 381 377 l 1,13,-1
 617 0 l 1,14,-1
 475 0 l 1,15,-1
 374 172 l 2,16,17
 361 193 361 193 310 283 c 1,18,-1
 307 283 l 1,19,20
 253 187 253 187 244 172 c 2,21,-1
 145 0 l 1,22,-1
 2 0 l 1,0,-1
EndSplineSet
EndChar

StartChar: Y
Encoding: 89 89 60
Width: 627
GlyphClass: 2
Flags: W
LayerCount: 2
Fore
SplineSet
-2 735 m 1,0,-1
 138 735 l 1,1,-1
 252 518 l 2,2,3
 295 435 295 435 312 398 c 1,4,-1
 316 398 l 1,5,6
 336 437 336 437 377 518 c 2,7,-1
 490 735 l 1,8,-1
 631 735 l 1,9,-1
 376 298 l 1,10,-1
 376 0 l 1,11,-1
 254 0 l 1,12,-1
 254 298 l 1,13,-1
 -2 735 l 1,0,-1
EndSplineSet
EndChar

StartChar: Z
Encoding: 90 90 61
Width: 602
GlyphClass: 2
Flags: W
LayerCount: 2
Fore
SplineSet
32 89 m 1,0,-1
 413 630 l 1,1,-1
 62 630 l 1,2,-1
 62 735 l 1,3,-1
 564 735 l 1,4,-1
 564 644 l 1,5,-1
 182 104 l 1,6,-1
 574 104 l 1,7,-1
 574 0 l 1,8,-1
 32 0 l 1,9,-1
 32 89 l 1,0,-1
EndSplineSet
EndChar

StartChar: bracketleft
Encoding: 91 91 62
Width: 442
GlyphClass: 2
Flags: W
LayerCount: 2
Fore
SplineSet
124 -120 m 1,0,-1
 124 826 l 1,1,-1
 360 826 l 1,2,-1
 360 729 l 1,3,-1
 243 729 l 1,4,-1
 243 -22 l 1,5,-1
 360 -22 l 1,6,-1
 360 -120 l 1,7,-1
 124 -120 l 1,0,-1
EndSplineSet
EndChar

StartChar: backslash
Encoding: 92 92 63
Width: 361
GlyphClass: 2
Flags: W
LayerCount: 2
Fore
SplineSet
-15 782 m 1,0,-1
 108 782 l 1,1,-1
 378 -53 l 1,2,-1
 256 -53 l 1,3,-1
 -15 782 l 1,0,-1
EndSplineSet
EndChar

StartChar: bracketright
Encoding: 93 93 64
Width: 442
GlyphClass: 2
Flags: W
LayerCount: 2
Fore
SplineSet
83 -22 m 1,0,-1
 202 -22 l 1,1,-1
 202 729 l 1,2,-1
 83 729 l 1,3,-1
 83 826 l 1,4,-1
 320 826 l 1,5,-1
 320 -120 l 1,6,-1
 83 -120 l 1,7,-1
 83 -22 l 1,0,-1
EndSplineSet
EndChar

StartChar: asciicircum
Encoding: 94 94 65
Width: 530
GlyphClass: 2
Flags: W
LayerCount: 2
Fore
SplineSet
10 460 m 1,0,-1
 210 809 l 1,1,-1
 320 809 l 1,2,-1
 519 460 l 1,3,-1
 398 460 l 1,4,-1
 298 650 l 1,5,-1
 266 715 l 1,6,-1
 265 715 l 1,7,-1
 132 460 l 1,8,-1
 10 460 l 1,0,-1
EndSplineSet
EndChar

StartChar: underscore
Encoding: 95 95 66
Width: 487
GlyphClass: 2
Flags: W
LayerCount: 2
Fore
SplineSet
6 -8 m 1,0,-1
 484 -8 l 1,1,-1
 484 -105 l 1,2,-1
 6 -105 l 1,3,-1
 6 -8 l 1,0,-1
EndSplineSet
EndChar

StartChar: grave
Encoding: 96 96 67
Width: 345
GlyphClass: 2
Flags: W
LayerCount: 2
Fore
SplineSet
167 517 m 1,0,-1
 38 817 l 1,1,-1
 173 817 l 1,2,-1
 263 517 l 1,3,-1
 167 517 l 1,0,-1
EndSplineSet
EndChar

StartChar: a
Encoding: 97 97 68
Width: 547
GlyphClass: 2
Flags: W
LayerCount: 2
Fore
SplineSet
151 151 m 0,0,1
 151 121 151 121 175 101 c 128,-1,2
 199 81 199 81 238 81 c 0,3,4
 294 81 294 81 333.5 118 c 128,-1,5
 373 155 373 155 373 216 c 2,6,-1
 373 265 l 1,7,8
 330 255 330 255 269 245 c 0,9,10
 151 227 151 227 151 151 c 0,0,1
33 140 m 0,11,12
 33 292 33 292 257 325 c 0,13,14
 339 337 339 337 373 348 c 1,15,-1
 373 376 l 2,16,17
 373 415 373 415 345 437.5 c 128,-1,18
 317 460 317 460 270 460 c 0,19,20
 182 460 182 460 118 387 c 1,21,-1
 46 449 l 1,22,23
 88 498 88 498 146 525.5 c 128,-1,24
 204 553 204 553 269 553 c 0,25,26
 388 553 388 553 439.5 495 c 128,-1,27
 491 437 491 437 491 333 c 2,28,-1
 491 0 l 1,29,-1
 376 0 l 1,30,-1
 376 67 l 1,31,32
 360 33 360 33 318.5 8 c 128,-1,33
 277 -17 277 -17 221 -17 c 0,34,35
 133 -17 133 -17 83 27 c 128,-1,36
 33 71 33 71 33 140 c 0,11,12
EndSplineSet
Substitution2: "Single Substitution lookup 12 subtable" ordfeminine
EndChar

StartChar: b
Encoding: 98 98 69
Width: 584
GlyphClass: 2
Flags: W
LayerCount: 2
Fore
SplineSet
70 0 m 1,0,-1
 70 759 l 1,1,-1
 186 759 l 1,2,-1
 186 476 l 1,3,4
 207 507 207 507 243 530 c 128,-1,5
 279 553 279 553 324 553 c 0,6,7
 423 553 423 553 487 477 c 128,-1,8
 551 401 551 401 551 269 c 0,9,10
 551 208 551 208 537 159 c 128,-1,11
 523 110 523 110 501 78 c 128,-1,12
 479 46 479 46 448.5 24 c 128,-1,13
 418 2 418 2 387.5 -7.5 c 128,-1,14
 357 -17 357 -17 325 -17 c 0,15,16
 278 -17 278 -17 239.5 8.5 c 128,-1,17
 201 34 201 34 184 69 c 1,18,-1
 184 0 l 1,19,-1
 70 0 l 1,0,-1
185 269 m 0,20,21
 185 183 185 183 219 133.5 c 128,-1,22
 253 84 253 84 308 84 c 0,23,24
 361 84 361 84 395.5 131 c 128,-1,25
 430 178 430 178 430 269 c 0,26,27
 430 353 430 353 397 403 c 128,-1,28
 364 453 364 453 308 453 c 256,29,30
 252 453 252 453 218.5 402 c 128,-1,31
 185 351 185 351 185 269 c 0,20,21
EndSplineSet
EndChar

StartChar: c
Encoding: 99 99 70
Width: 516
GlyphClass: 2
Flags: W
LayerCount: 2
Fore
SplineSet
33 268 m 0,0,1
 33 397 33 397 102.5 475 c 128,-1,2
 172 553 172 553 282 553 c 0,3,4
 361 553 361 553 416 504.5 c 128,-1,5
 471 456 471 456 485 394 c 1,6,-1
 385 366 l 1,7,8
 374 401 374 401 347 427 c 128,-1,9
 320 453 320 453 282 453 c 0,10,11
 222 453 222 453 188 400 c 128,-1,12
 154 347 154 347 154 268 c 0,13,14
 154 180 154 180 190.5 132 c 128,-1,15
 227 84 227 84 282 84 c 0,16,17
 323 84 323 84 354.5 112 c 128,-1,18
 386 140 386 140 398 177 c 1,19,-1
 498 148 l 1,20,21
 480 83 480 83 420.5 33 c 128,-1,22
 361 -17 361 -17 282 -17 c 0,23,24
 172 -17 172 -17 102.5 60.5 c 128,-1,25
 33 138 33 138 33 268 c 0,0,1
EndSplineSet
EndChar

StartChar: d
Encoding: 100 100 71
Width: 584
GlyphClass: 2
Flags: W
LayerCount: 2
Fore
SplineSet
33 269 m 0,0,1
 33 400 33 400 98 476.5 c 128,-1,2
 163 553 163 553 262 553 c 0,3,4
 309 553 309 553 344 530 c 128,-1,5
 379 507 379 507 398 477 c 1,6,-1
 398 759 l 1,7,-1
 515 759 l 1,8,-1
 515 0 l 1,9,-1
 401 0 l 1,10,-1
 401 70 l 1,11,12
 385 34 385 34 346.5 8.5 c 128,-1,13
 308 -17 308 -17 261 -17 c 0,14,15
 219 -17 219 -17 180 -1 c 128,-1,16
 141 15 141 15 107 47.5 c 128,-1,17
 73 80 73 80 53 137 c 128,-1,18
 33 194 33 194 33 269 c 0,0,1
154 269 m 0,19,20
 154 181 154 181 188 132.5 c 128,-1,21
 222 84 222 84 278 84 c 0,22,23
 332 84 332 84 366 133.5 c 128,-1,24
 400 183 400 183 400 269 c 0,25,26
 400 351 400 351 367 402 c 128,-1,27
 334 453 334 453 278 453 c 0,28,29
 219 453 219 453 186.5 402.5 c 128,-1,30
 154 352 154 352 154 269 c 0,19,20
EndSplineSet
EndChar

StartChar: e
Encoding: 101 101 72
Width: 558
GlyphClass: 2
Flags: W
LayerCount: 2
Fore
SplineSet
33 270 m 0,0,1
 33 400 33 400 104.5 476.5 c 128,-1,2
 176 553 176 553 283 553 c 0,3,4
 389 553 389 553 458 476 c 128,-1,5
 527 399 527 399 527 275 c 0,6,7
 527 251 527 251 524 228 c 1,8,-1
 152 228 l 1,9,10
 152 166 152 166 189 122 c 128,-1,11
 226 78 226 78 290 78 c 0,12,13
 335 78 335 78 368.5 100 c 128,-1,14
 402 122 402 122 420 156 c 1,15,-1
 518 123 l 1,16,17
 492 63 492 63 433.5 23 c 128,-1,18
 375 -17 375 -17 288 -17 c 0,19,20
 176 -17 176 -17 104.5 61 c 128,-1,21
 33 139 33 139 33 270 c 0,0,1
154 310 m 1,22,-1
 407 310 l 1,23,24
 407 372 407 372 374.5 415 c 128,-1,25
 342 458 342 458 283 458 c 0,26,27
 225 458 225 458 190 414 c 128,-1,28
 155 370 155 370 154 310 c 1,22,-1
EndSplineSet
EndChar

StartChar: f
Encoding: 102 102 73
Width: 347
GlyphClass: 2
Flags: W
LayerCount: 2
Fore
SplineSet
22 436 m 1,0,-1
 22 536 l 1,1,-1
 104 536 l 1,2,-1
 104 594 l 2,3,4
 104 676 104 676 145.5 717.5 c 128,-1,5
 187 759 187 759 262 759 c 2,6,-1
 347 759 l 1,7,-1
 347 660 l 1,8,-1
 279 660 l 2,9,10
 250 660 250 660 236.5 642 c 128,-1,11
 223 624 223 624 223 585 c 2,12,-1
 223 536 l 1,13,-1
 335 536 l 1,14,-1
 335 436 l 1,15,-1
 223 436 l 1,16,-1
 223 0 l 1,17,-1
 104 0 l 1,18,-1
 104 436 l 1,19,-1
 22 436 l 1,0,-1
EndSplineSet
EndChar

StartChar: g
Encoding: 103 103 74
Width: 569
GlyphClass: 2
Flags: W
LayerCount: 2
Fore
SplineSet
156 278 m 0,0,1
 156 196 156 196 188 150.5 c 128,-1,2
 220 105 220 105 273 105 c 0,3,4
 325 105 325 105 356.5 149.5 c 128,-1,5
 388 194 388 194 388 279 c 0,6,7
 388 361 388 361 356.5 407 c 128,-1,8
 325 453 325 453 274 453 c 0,9,10
 220 453 220 453 188 405.5 c 128,-1,11
 156 358 156 358 156 278 c 0,0,1
36 277 m 0,12,13
 36 402 36 402 98.5 477.5 c 128,-1,14
 161 553 161 553 258 553 c 0,15,16
 308 553 308 553 341.5 528.5 c 128,-1,17
 375 504 375 504 389 474 c 1,18,-1
 389 536 l 1,19,-1
 506 536 l 1,20,-1
 506 74 l 2,21,22
 506 -77 506 -77 447 -150 c 128,-1,23
 388 -223 388 -223 266 -223 c 0,24,25
 131 -223 131 -223 57 -119 c 1,26,-1
 135 -65 l 1,27,28
 189 -128 189 -128 268 -128 c 0,29,30
 319 -128 319 -128 352.5 -89 c 128,-1,31
 386 -50 386 -50 388 13 c 0,32,33
 390 50 390 50 390 74 c 1,34,35
 373 45 373 45 337.5 25 c 128,-1,36
 302 5 302 5 262 5 c 0,37,38
 161 5 161 5 98.5 79.5 c 128,-1,39
 36 154 36 154 36 277 c 0,12,13
EndSplineSet
EndChar

StartChar: h
Encoding: 104 104 75
Width: 564
GlyphClass: 2
Flags: W
LayerCount: 2
Fore
SplineSet
70 0 m 1,0,-1
 70 759 l 1,1,-1
 186 759 l 1,2,-1
 186 481 l 1,3,-1
 189 481 l 1,4,5
 210 512 210 512 247.5 532.5 c 128,-1,6
 285 553 285 553 327 553 c 0,7,8
 404 553 404 553 455 503 c 128,-1,9
 506 453 506 453 506 345 c 2,10,-1
 506 0 l 1,11,-1
 389 0 l 1,12,-1
 389 330 l 2,13,14
 389 453 389 453 306 453 c 0,15,16
 255 453 255 453 220.5 409 c 128,-1,17
 186 365 186 365 186 307 c 2,18,-1
 186 0 l 1,19,-1
 70 0 l 1,0,-1
EndSplineSet
Substitution2: "'sups' Superscript lookup 5 subtable" uni02B0
Substitution2: "'aalt' Access All Alternates lookup 0 subtable" uni02B0
EndChar

StartChar: i
Encoding: 105 105 76
Width: 268
GlyphClass: 2
Flags: W
LayerCount: 2
Fore
SplineSet
71 616 m 1,0,-1
 71 745 l 1,1,-1
 197 745 l 1,2,-1
 197 616 l 1,3,-1
 71 616 l 1,0,-1
76 0 m 1,4,-1
 76 536 l 1,5,-1
 192 536 l 1,6,-1
 192 0 l 1,7,-1
 76 0 l 1,4,-1
EndSplineSet
EndChar

StartChar: j
Encoding: 106 106 77
Width: 273
GlyphClass: 2
Flags: W
LayerCount: 2
Fore
SplineSet
75 616 m 1,0,-1
 75 745 l 1,1,-1
 203 745 l 1,2,-1
 203 616 l 1,3,-1
 75 616 l 1,0,-1
-11 -111 m 1,4,-1
 7 -111 l 2,5,6
 81 -111 81 -111 81 -7 c 2,7,-1
 81 536 l 1,8,-1
 199 536 l 1,9,-1
 199 -11 l 2,10,11
 199 -111 199 -111 155 -161 c 128,-1,12
 111 -211 111 -211 27 -211 c 2,13,-1
 -11 -211 l 1,14,-1
 -11 -111 l 1,4,-1
EndSplineSet
Substitution2: "'sups' Superscript lookup 5 subtable" uni02B2
Substitution2: "'aalt' Access All Alternates lookup 0 subtable" uni02B2
EndChar

StartChar: k
Encoding: 107 107 78
Width: 528
GlyphClass: 2
Flags: W
LayerCount: 2
Fore
SplineSet
71 0 m 1,0,-1
 71 759 l 1,1,-1
 188 759 l 1,2,-1
 188 322 l 1,3,-1
 378 536 l 1,4,-1
 526 536 l 1,5,-1
 328 318 l 1,6,-1
 538 0 l 1,7,-1
 400 0 l 1,8,-1
 252 235 l 1,9,-1
 188 164 l 1,10,-1
 188 0 l 1,11,-1
 71 0 l 1,0,-1
EndSplineSet
EndChar

StartChar: l
Encoding: 108 108 79
Width: 265
GlyphClass: 2
Flags: W
LayerCount: 2
Fore
SplineSet
74 0 m 1,0,-1
 74 759 l 1,1,-1
 191 759 l 1,2,-1
 191 0 l 1,3,-1
 74 0 l 1,0,-1
EndSplineSet
Substitution2: "'sups' Superscript lookup 5 subtable" uni02E1
Substitution2: "'aalt' Access All Alternates lookup 0 subtable" uni02E1
EndChar

StartChar: m
Encoding: 109 109 80
Width: 829
GlyphClass: 2
Flags: W
LayerCount: 2
Fore
SplineSet
64 0 m 1,0,-1
 64 536 l 1,1,-1
 178 536 l 1,2,-1
 178 474 l 1,3,4
 192 501 192 501 228.5 527 c 128,-1,5
 265 553 265 553 316 553 c 0,6,7
 404 553 404 553 446 457 c 1,8,9
 453 470 453 470 463.5 483 c 128,-1,10
 474 496 474 496 493 514 c 128,-1,11
 512 532 512 532 542 542.5 c 128,-1,12
 572 553 572 553 608 553 c 0,13,14
 772 553 772 553 772 345 c 2,15,-1
 772 0 l 1,16,-1
 653 0 l 1,17,-1
 653 341 l 2,18,19
 653 397 653 397 637.5 425 c 128,-1,20
 622 453 622 453 582 453 c 0,21,22
 534 453 534 453 505 413.5 c 128,-1,23
 476 374 476 374 476 316 c 2,24,-1
 476 0 l 1,25,-1
 360 0 l 1,26,-1
 360 344 l 2,27,28
 360 453 360 453 287 453 c 0,29,30
 237 453 237 453 209.5 415.5 c 128,-1,31
 182 378 182 378 182 318 c 2,32,-1
 182 0 l 1,33,-1
 64 0 l 1,0,-1
EndSplineSet
EndChar

StartChar: n
Encoding: 110 110 81
Width: 559
GlyphClass: 2
Flags: W
LayerCount: 2
Fore
SplineSet
64 0 m 1,0,-1
 64 536 l 1,1,-1
 178 536 l 1,2,-1
 178 468 l 1,3,-1
 179 468 l 1,4,5
 193 498 193 498 231 525.5 c 128,-1,6
 269 553 269 553 328 553 c 0,7,8
 408 553 408 553 455.5 503.5 c 128,-1,9
 503 454 503 454 503 345 c 2,10,-1
 503 0 l 1,11,-1
 385 0 l 1,12,-1
 385 329 l 2,13,14
 385 453 385 453 301 453 c 0,15,16
 250 453 250 453 216 412 c 128,-1,17
 182 371 182 371 182 310 c 2,18,-1
 182 0 l 1,19,-1
 64 0 l 1,0,-1
EndSplineSet
Substitution2: "'sups' Superscript lookup 5 subtable" uni207F
Substitution2: "'aalt' Access All Alternates lookup 0 subtable" uni207F
EndChar

StartChar: o
Encoding: 111 111 82
Width: 561
GlyphClass: 2
Flags: W
LayerCount: 2
Fore
SplineSet
154 268 m 0,0,1
 154 175 154 175 192 129.5 c 128,-1,2
 230 84 230 84 282 84 c 0,3,4
 332 84 332 84 370 129.5 c 128,-1,5
 408 175 408 175 408 268 c 0,6,7
 408 362 408 362 370 407.5 c 128,-1,8
 332 453 332 453 282 453 c 0,9,10
 231 453 231 453 192.5 407.5 c 128,-1,11
 154 362 154 362 154 268 c 0,0,1
33 268 m 0,12,13
 33 387 33 387 96.5 470 c 128,-1,14
 160 553 160 553 282 553 c 0,15,16
 402 553 402 553 465.5 470 c 128,-1,17
 529 387 529 387 529 268 c 0,18,19
 529 230 529 230 522 193 c 128,-1,20
 515 156 515 156 497 117.5 c 128,-1,21
 479 79 479 79 452.5 49.5 c 128,-1,22
 426 20 426 20 381.5 1.5 c 128,-1,23
 337 -17 337 -17 282 -17 c 256,24,25
 227 -17 227 -17 182.5 1.5 c 128,-1,26
 138 20 138 20 111 48 c 128,-1,27
 84 76 84 76 65.5 114.5 c 128,-1,28
 47 153 47 153 40 191 c 128,-1,29
 33 229 33 229 33 268 c 0,12,13
EndSplineSet
Substitution2: "Single Substitution lookup 12 subtable" ordmasculine
EndChar

StartChar: p
Encoding: 112 112 83
Width: 584
GlyphClass: 2
Flags: W
LayerCount: 2
Fore
SplineSet
186 269 m 0,0,1
 186 184 186 184 218 134 c 128,-1,2
 250 84 250 84 308 84 c 0,3,4
 362 84 362 84 396.5 132.5 c 128,-1,5
 431 181 431 181 431 269 c 0,6,7
 431 353 431 353 398 403 c 128,-1,8
 365 453 365 453 308 453 c 256,9,10
 251 453 251 453 218.5 401.5 c 128,-1,11
 186 350 186 350 186 269 c 0,0,1
70 -219 m 1,12,-1
 70 536 l 1,13,-1
 183 536 l 1,14,-1
 183 466 l 1,15,16
 232 553 232 553 324 553 c 0,17,18
 422 553 422 553 486.5 476.5 c 128,-1,19
 551 400 551 400 551 269 c 0,20,21
 551 195 551 195 530.5 138 c 128,-1,22
 510 81 510 81 476 48.5 c 128,-1,23
 442 16 442 16 403.5 -0.5 c 128,-1,24
 365 -17 365 -17 324 -17 c 0,25,26
 272 -17 272 -17 237.5 7 c 128,-1,27
 203 31 203 31 187 62 c 1,28,-1
 187 -219 l 1,29,-1
 70 -219 l 1,12,-1
EndSplineSet
EndChar

StartChar: q
Encoding: 113 113 84
Width: 584
GlyphClass: 2
Flags: W
LayerCount: 2
Fore
SplineSet
154 269 m 0,0,1
 154 181 154 181 187.5 132.5 c 128,-1,2
 221 84 221 84 277 84 c 256,3,4
 333 84 333 84 366.5 133.5 c 128,-1,5
 400 183 400 183 400 269 c 0,6,7
 400 350 400 350 367.5 401.5 c 128,-1,8
 335 453 335 453 278 453 c 0,9,10
 219 453 219 453 186.5 401.5 c 128,-1,11
 154 350 154 350 154 269 c 0,0,1
33 269 m 0,12,13
 33 400 33 400 97.5 476.5 c 128,-1,14
 162 553 162 553 261 553 c 0,15,16
 308 553 308 553 344 528.5 c 128,-1,17
 380 504 380 504 401 466 c 1,18,-1
 401 536 l 1,19,-1
 515 536 l 1,20,-1
 515 -219 l 1,21,-1
 398 -219 l 1,22,-1
 398 63 l 1,23,24
 380 30 380 30 344.5 6.5 c 128,-1,25
 309 -17 309 -17 261 -17 c 0,26,27
 220 -17 220 -17 181 -0.5 c 128,-1,28
 142 16 142 16 108 48.5 c 128,-1,29
 74 81 74 81 53.5 138 c 128,-1,30
 33 195 33 195 33 269 c 0,12,13
EndSplineSet
EndChar

StartChar: r
Encoding: 114 114 85
Width: 374
GlyphClass: 2
Flags: W
LayerCount: 2
Fore
SplineSet
64 0 m 1,0,-1
 64 536 l 1,1,-1
 177 536 l 1,2,-1
 177 479 l 1,3,4
 195 508 195 508 228 530.5 c 128,-1,5
 261 553 261 553 307 553 c 0,6,7
 349 553 349 553 376 541 c 1,8,-1
 376 434 l 1,9,10
 341 445 341 445 307 445 c 0,11,12
 246 445 246 445 214 398 c 128,-1,13
 182 351 182 351 182 273 c 2,14,-1
 182 0 l 1,15,-1
 64 0 l 1,0,-1
EndSplineSet
Substitution2: "'sups' Superscript lookup 5 subtable" uni02B3
Substitution2: "'aalt' Access All Alternates lookup 0 subtable" uni02B3
EndChar

StartChar: s
Encoding: 115 115 86
Width: 496
GlyphClass: 2
Flags: W
LayerCount: 2
Fore
SplineSet
24 112 m 1,0,-1
 109 161 l 1,1,2
 164 79 164 79 254 79 c 0,3,4
 297 79 297 79 322.5 96 c 128,-1,5
 348 113 348 113 348 142 c 0,6,7
 348 165 348 165 327.5 183 c 128,-1,8
 307 201 307 201 283.5 209.5 c 128,-1,9
 260 218 260 218 214 233 c 0,10,11
 205 236 205 236 202 237 c 0,12,13
 168 248 168 248 145.5 258.5 c 128,-1,14
 123 269 123 269 97.5 287.5 c 128,-1,15
 72 306 72 306 59 333.5 c 128,-1,16
 46 361 46 361 46 397 c 0,17,18
 46 467 46 467 105.5 510 c 128,-1,19
 165 553 165 553 254 553 c 0,20,21
 320 553 320 553 378.5 518 c 128,-1,22
 437 483 437 483 466 429 c 1,23,-1
 387 382 l 1,24,25
 333 457 333 457 255 457 c 0,26,27
 212 457 212 457 189 440 c 128,-1,28
 166 423 166 423 166 395 c 0,29,30
 166 372 166 372 186 353.5 c 128,-1,31
 206 335 206 335 227.5 327 c 128,-1,32
 249 319 249 319 288 306 c 0,33,34
 298 303 298 303 303 301 c 0,35,36
 468 248 468 248 468 141 c 0,37,38
 468 75 468 75 413 29 c 128,-1,39
 358 -17 358 -17 256 -17 c 0,40,41
 178 -17 178 -17 117.5 17.5 c 128,-1,42
 57 52 57 52 24 112 c 1,0,-1
EndSplineSet
Substitution2: "'hist' Historical Forms lookup 11 subtable" longs
Substitution2: "'sups' Superscript lookup 5 subtable" uni02E2
AlternateSubs2: "'aalt' Access All Alternates lookup 1 subtable" uni02E2 longs
EndChar

StartChar: t
Encoding: 116 116 87
Width: 368
GlyphClass: 2
Flags: W
LayerCount: 2
Fore
SplineSet
17 436 m 1,0,-1
 17 536 l 1,1,-1
 99 536 l 1,2,-1
 99 695 l 1,3,-1
 217 695 l 1,4,-1
 217 536 l 1,5,-1
 339 536 l 1,6,-1
 339 436 l 1,7,-1
 217 436 l 1,8,-1
 217 172 l 2,9,10
 217 134 217 134 232 117 c 128,-1,11
 247 100 247 100 279 100 c 2,12,-1
 340 100 l 1,13,-1
 340 0 l 1,14,-1
 264 0 l 2,15,16
 99 0 99 0 99 164 c 2,17,-1
 99 436 l 1,18,-1
 17 436 l 1,0,-1
EndSplineSet
EndChar

StartChar: u
Encoding: 117 117 88
Width: 558
GlyphClass: 2
Flags: W
LayerCount: 2
Fore
SplineSet
58 194 m 2,0,-1
 58 536 l 1,1,-1
 176 536 l 1,2,-1
 176 209 l 2,3,4
 176 84 176 84 264 84 c 0,5,6
 317 84 317 84 346.5 129 c 128,-1,7
 376 174 376 174 376 236 c 2,8,-1
 376 536 l 1,9,-1
 493 536 l 1,10,-1
 493 0 l 1,11,-1
 380 0 l 1,12,-1
 380 62 l 1,13,-1
 379 62 l 1,14,15
 366 33 366 33 329.5 8 c 128,-1,16
 293 -17 293 -17 238 -17 c 0,17,18
 205 -17 205 -17 176 -7 c 128,-1,19
 147 3 147 3 119 24.5 c 128,-1,20
 91 46 91 46 74.5 90 c 128,-1,21
 58 134 58 134 58 194 c 2,0,-1
EndSplineSet
EndChar

StartChar: v
Encoding: 118 118 89
Width: 520
GlyphClass: 2
Flags: W
LayerCount: 2
Fore
SplineSet
8 536 m 1,0,-1
 137 536 l 1,1,-1
 217 261 l 2,2,3
 225 233 225 233 239.5 176.5 c 128,-1,4
 254 120 254 120 259 99 c 1,5,-1
 261 99 l 1,6,7
 267 121 267 121 282.5 177.5 c 128,-1,8
 298 234 298 234 306 261 c 2,9,-1
 386 536 l 1,10,-1
 514 536 l 1,11,-1
 328 0 l 1,12,-1
 194 0 l 1,13,-1
 8 536 l 1,0,-1
EndSplineSet
EndChar

StartChar: w
Encoding: 119 119 90
Width: 740
GlyphClass: 2
Flags: W
LayerCount: 2
Fore
SplineSet
8 536 m 1,0,-1
 135 536 l 1,1,-1
 190 267 l 2,2,3
 196 235 196 235 218 114 c 1,4,-1
 222 114 l 1,5,6
 227 140 227 140 237.5 194 c 128,-1,7
 248 248 248 248 252 267 c 2,8,-1
 308 536 l 1,9,-1
 432 536 l 1,10,-1
 490 265 l 2,11,12
 493 243 493 243 504 192 c 128,-1,13
 515 141 515 141 519 114 c 1,14,-1
 523 114 l 1,15,16
 528 140 528 140 538.5 198 c 128,-1,17
 549 256 549 256 551 267 c 2,18,-1
 606 536 l 1,19,-1
 732 536 l 1,20,-1
 587 0 l 1,21,-1
 456 0 l 1,22,-1
 400 261 l 2,23,24
 387 321 387 321 373 409 c 1,25,-1
 369 409 l 1,26,27
 364 380 364 380 354 327 c 128,-1,28
 344 274 344 274 341 261 c 2,29,-1
 284 0 l 1,30,-1
 153 0 l 1,31,-1
 8 536 l 1,0,-1
EndSplineSet
Substitution2: "'sups' Superscript lookup 5 subtable" uni02B7
Substitution2: "'aalt' Access All Alternates lookup 0 subtable" uni02B7
EndChar

StartChar: x
Encoding: 120 120 91
Width: 532
GlyphClass: 2
Flags: W
LayerCount: 2
Fore
SplineSet
6 0 m 1,0,-1
 196 275 l 1,1,-1
 15 536 l 1,2,-1
 157 536 l 1,3,-1
 226 420 l 2,4,5
 252 374 252 374 263 355 c 1,6,-1
 267 355 l 1,7,8
 282 382 282 382 303 420 c 2,9,-1
 372 536 l 1,10,-1
 515 536 l 1,11,-1
 334 275 l 1,12,-1
 525 0 l 1,13,-1
 386 0 l 1,14,-1
 307 129 l 2,15,16
 299 141 299 141 286 162.5 c 128,-1,17
 273 184 273 184 267 196 c 1,18,-1
 263 196 l 1,19,20
 259 190 259 190 223 129 c 2,21,-1
 144 0 l 1,22,-1
 6 0 l 1,0,-1
EndSplineSet
Substitution2: "'sups' Superscript lookup 5 subtable" uni02E3
Substitution2: "'aalt' Access All Alternates lookup 0 subtable" uni02E3
EndChar

StartChar: y
Encoding: 121 121 92
Width: 520
GlyphClass: 2
Flags: W
LayerCount: 2
Fore
SplineSet
7 536 m 1,0,-1
 136 536 l 1,1,-1
 228 260 l 2,2,3
 251 184 251 184 263 137 c 1,4,-1
 267 137 l 1,5,6
 271 153 271 153 301 260 c 2,7,-1
 386 536 l 1,8,-1
 514 536 l 1,9,-1
 292 -71 l 2,10,11
 262 -152 262 -152 215 -185.5 c 128,-1,12
 168 -219 168 -219 98 -219 c 2,13,-1
 62 -219 l 1,14,-1
 62 -121 l 1,15,-1
 79 -121 l 2,16,17
 121 -121 121 -121 147.5 -103 c 128,-1,18
 174 -85 174 -85 190 -40 c 2,19,-1
 207 13 l 1,20,-1
 7 536 l 1,0,-1
EndSplineSet
Substitution2: "'sups' Superscript lookup 5 subtable" uni02B8
Substitution2: "'aalt' Access All Alternates lookup 0 subtable" uni02B8
EndChar

StartChar: z
Encoding: 122 122 93
Width: 489
GlyphClass: 2
Flags: W
LayerCount: 2
Fore
SplineSet
24 0 m 1,0,-1
 24 78 l 1,1,-1
 301 436 l 1,2,-1
 46 436 l 1,3,-1
 46 536 l 1,4,-1
 454 536 l 1,5,-1
 454 463 l 1,6,-1
 176 100 l 1,7,-1
 466 100 l 1,8,-1
 466 0 l 1,9,-1
 24 0 l 1,0,-1
EndSplineSet
EndChar

StartChar: braceleft
Encoding: 123 123 94
Width: 442
GlyphClass: 2
Flags: W
LayerCount: 2
Fore
SplineSet
58 307 m 1,0,-1
 58 398 l 1,1,-1
 89 398 l 2,2,3
 114 398 114 398 127.5 426.5 c 128,-1,4
 141 455 141 455 141 505 c 2,5,-1
 141 685 l 2,6,7
 141 753 141 753 179 789.5 c 128,-1,8
 217 826 217 826 281 826 c 2,9,-1
 364 826 l 1,10,-1
 364 729 l 1,11,-1
 302 729 l 2,12,13
 282 729 282 729 270.5 714 c 128,-1,14
 259 699 259 699 259 672 c 2,15,-1
 259 490 l 2,16,17
 259 400 259 400 189 352 c 1,18,19
 259 308 259 308 259 219 c 2,20,-1
 259 37 l 2,21,22
 259 -22 259 -22 304 -22 c 2,23,-1
 364 -22 l 1,24,-1
 364 -120 l 1,25,-1
 281 -120 l 2,26,27
 220 -120 220 -120 180.5 -84.5 c 128,-1,28
 141 -49 141 -49 141 20 c 2,29,-1
 141 204 l 2,30,31
 141 247 141 247 127.5 277 c 128,-1,32
 114 307 114 307 89 307 c 2,33,-1
 58 307 l 1,0,-1
EndSplineSet
EndChar

StartChar: bar
Encoding: 124 124 95
Width: 294
GlyphClass: 2
Flags: W
LayerCount: 2
Fore
SplineSet
88 -156 m 1,0,-1
 88 860 l 1,1,-1
 206 860 l 1,2,-1
 206 -156 l 1,3,-1
 88 -156 l 1,0,-1
EndSplineSet
EndChar

StartChar: braceright
Encoding: 125 125 96
Width: 442
GlyphClass: 2
Flags: W
LayerCount: 2
Fore
SplineSet
79 -22 m 1,0,-1
 140 -22 l 2,1,2
 184 -22 184 -22 184 37 c 2,3,-1
 184 219 l 2,4,5
 184 306 184 306 255 353 c 1,6,7
 184 400 184 400 184 490 c 2,8,-1
 184 672 l 2,9,10
 184 699 184 699 172.5 714 c 128,-1,11
 161 729 161 729 141 729 c 2,12,-1
 79 729 l 1,13,-1
 79 826 l 1,14,-1
 163 826 l 2,15,16
 226 826 226 826 264 789.5 c 128,-1,17
 302 753 302 753 302 685 c 2,18,-1
 302 505 l 2,19,20
 302 398 302 398 354 398 c 2,21,-1
 386 398 l 1,22,-1
 386 307 l 1,23,-1
 354 307 l 2,24,25
 328 307 328 307 315 277 c 128,-1,26
 302 247 302 247 302 204 c 2,27,-1
 302 20 l 2,28,29
 302 -49 302 -49 262.5 -84.5 c 128,-1,30
 223 -120 223 -120 163 -120 c 2,31,-1
 79 -120 l 1,32,-1
 79 -22 l 1,0,-1
EndSplineSet
EndChar

StartChar: asciitilde
Encoding: 126 126 97
Width: 789
GlyphClass: 2
Flags: W
LayerCount: 2
Fore
SplineSet
63 300 m 1,0,1
 130 472 130 472 276 472 c 0,2,3
 317 472 317 472 353.5 452 c 128,-1,4
 390 432 390 432 412 408.5 c 128,-1,5
 434 385 434 385 461 365 c 128,-1,6
 488 345 488 345 512 345 c 0,7,8
 532 345 532 345 549 353 c 128,-1,9
 566 361 566 361 576.5 370 c 128,-1,10
 587 379 587 379 597.5 396.5 c 128,-1,11
 608 414 608 414 612.5 424 c 128,-1,12
 617 434 617 434 624 453 c 1,13,-1
 727 408 l 1,14,15
 662 235 662 235 516 235 c 0,16,17
 483 235 483 235 453 248.5 c 128,-1,18
 423 262 423 262 401 280.5 c 128,-1,19
 379 299 379 299 359 318 c 128,-1,20
 339 337 339 337 317.5 350.5 c 128,-1,21
 296 364 296 364 276 364 c 0,22,23
 208 364 208 364 165 256 c 1,24,-1
 63 300 l 1,0,1
EndSplineSet
EndChar

StartChar: exclamdown
Encoding: 161 161 99
Width: 310
GlyphClass: 2
Flags: W
LayerCount: 2
Fore
SplineSet
89 -203 m 1,0,-1
 98 327 l 1,1,-1
 213 327 l 1,2,-1
 220 -203 l 1,3,-1
 89 -203 l 1,0,-1
77 399 m 1,4,-1
 77 540 l 1,5,-1
 234 540 l 1,6,-1
 234 399 l 1,7,-1
 77 399 l 1,4,-1
EndSplineSet
EndChar

StartChar: cent
Encoding: 162 162 100
Width: 515
GlyphClass: 2
Flags: W
LayerCount: 2
Fore
SplineSet
33 269 m 0,0,1
 33 374 33 374 83 450.5 c 128,-1,2
 133 527 133 527 223 545 c 1,3,-1
 223 623 l 1,4,-1
 330 623 l 1,5,-1
 330 546 l 1,6,7
 391 532 391 532 431.5 488.5 c 128,-1,8
 472 445 472 445 485 394 c 1,9,-1
 386 366 l 1,10,11
 373 401 373 401 347.5 427 c 128,-1,12
 322 453 322 453 284 453 c 0,13,14
 222 453 222 453 188 400.5 c 128,-1,15
 154 348 154 348 154 269 c 0,16,17
 154 185 154 185 189 134.5 c 128,-1,18
 224 84 224 84 283 84 c 0,19,20
 325 84 325 84 355.5 111 c 128,-1,21
 386 138 386 138 398 177 c 1,22,-1
 497 149 l 1,23,24
 483 97 483 97 440 51.5 c 128,-1,25
 397 6 397 6 330 -11 c 1,26,-1
 330 -93 l 1,27,-1
 223 -93 l 1,28,-1
 223 -9 l 1,29,30
 139 7 139 7 86 81.5 c 128,-1,31
 33 156 33 156 33 269 c 0,0,1
EndSplineSet
EndChar

StartChar: sterling
Encoding: 163 163 101
Width: 602
GlyphClass: 2
Flags: W
LayerCount: 2
Fore
SplineSet
39 310 m 1,0,-1
 39 414 l 1,1,-1
 144 414 l 1,2,-1
 144 561 l 2,3,4
 144 653 144 653 205.5 702.5 c 128,-1,5
 267 752 267 752 370 752 c 0,6,7
 438 752 438 752 490 715.5 c 128,-1,8
 542 679 542 679 566 634 c 1,9,-1
 474 587 l 1,10,11
 435 645 435 645 371 645 c 0,12,13
 324 645 324 645 294.5 621 c 128,-1,14
 265 597 265 597 265 549 c 2,15,-1
 265 414 l 1,16,-1
 466 414 l 1,17,-1
 466 310 l 1,18,-1
 265 310 l 1,19,-1
 265 219 l 2,20,21
 265 145 265 145 238 115 c 1,22,23
 274 122 274 122 293 122 c 0,24,25
 322 122 322 122 368.5 104.5 c 128,-1,26
 415 87 415 87 450 87 c 0,27,28
 505 87 505 87 562 117 c 1,29,-1
 595 17 l 1,30,31
 518 -17 518 -17 449 -17 c 0,32,33
 415 -17 415 -17 350 0.5 c 128,-1,34
 285 18 285 18 254 18 c 0,35,36
 218 18 218 18 171 11 c 128,-1,37
 124 4 124 4 94 -4 c 2,38,-1
 64 -11 l 1,39,-1
 34 75 l 1,40,41
 144 100 144 100 144 213 c 2,42,-1
 144 310 l 1,43,-1
 39 310 l 1,0,-1
EndSplineSet
EndChar

StartChar: currency
Encoding: 164 164 102
Width: 657
GlyphClass: 2
Flags: W
LayerCount: 2
Fore
SplineSet
21 149 m 1,0,-1
 131 250 l 1,1,2
 97 298 97 298 97 364 c 0,3,4
 97 432 97 432 130 479 c 1,5,-1
 21 579 l 1,6,-1
 103 656 l 1,7,-1
 206 556 l 1,8,9
 266 593 266 593 329 593 c 0,10,11
 389 593 389 593 452 556 c 1,12,-1
 555 656 l 1,13,-1
 636 579 l 1,14,-1
 528 479 l 1,15,16
 561 434 561 434 561 364 c 0,17,18
 561 298 561 298 527 250 c 1,19,-1
 636 149 l 1,20,-1
 555 72 l 1,21,-1
 452 172 l 1,22,23
 392 135 392 135 329 135 c 0,24,25
 264 135 264 135 206 172 c 1,26,-1
 103 72 l 1,27,-1
 21 149 l 1,0,-1
204 364 m 0,28,29
 204 313 204 313 239 276.5 c 128,-1,30
 274 240 274 240 329 240 c 256,31,32
 384 240 384 240 418.5 276 c 128,-1,33
 453 312 453 312 453 364 c 256,34,35
 453 416 453 416 418 452 c 128,-1,36
 383 488 383 488 329 488 c 0,37,38
 274 488 274 488 239 450.5 c 128,-1,39
 204 413 204 413 204 364 c 0,28,29
EndSplineSet
EndChar

StartChar: yen
Encoding: 165 165 103
Width: 626
GlyphClass: 2
Flags: W
LayerCount: 2
Fore
SplineSet
-2 735 m 1,0,-1
 138 735 l 1,1,-1
 243 563 l 2,2,3
 290 483 290 483 312 443 c 1,4,-1
 316 443 l 1,5,6
 326 462 326 462 337.5 482 c 128,-1,7
 349 502 349 502 363.5 526 c 128,-1,8
 378 550 378 550 386 563 c 2,9,-1
 490 735 l 1,10,-1
 631 735 l 1,11,-1
 424 421 l 1,12,-1
 566 421 l 1,13,-1
 566 334 l 1,14,-1
 375 334 l 1,15,-1
 375 236 l 1,16,-1
 566 236 l 1,17,-1
 566 150 l 1,18,-1
 375 150 l 1,19,-1
 375 0 l 1,20,-1
 253 0 l 1,21,-1
 253 150 l 1,22,-1
 62 150 l 1,23,-1
 62 236 l 1,24,-1
 253 236 l 1,25,-1
 253 334 l 1,26,-1
 62 334 l 1,27,-1
 62 421 l 1,28,-1
 204 421 l 1,29,-1
 -2 735 l 1,0,-1
EndSplineSet
EndChar

StartChar: brokenbar
Encoding: 166 166 104
Width: 294
GlyphClass: 2
Flags: W
LayerCount: 2
Fore
SplineSet
88 454 m 1,0,-1
 88 860 l 1,1,-1
 206 860 l 1,2,-1
 206 454 l 1,3,-1
 88 454 l 1,0,-1
88 -155 m 1,4,-1
 88 249 l 1,5,-1
 206 249 l 1,6,-1
 206 -155 l 1,7,-1
 88 -155 l 1,4,-1
EndSplineSet
EndChar

StartChar: section
Encoding: 167 167 105
Width: 550
GlyphClass: 2
Flags: W
LayerCount: 2
Fore
SplineSet
38 54 m 1,0,-1
 117 113 l 1,1,2
 139 85 139 85 175.5 67 c 128,-1,3
 212 49 212 49 255 49 c 0,4,5
 347 49 347 49 347 99 c 0,6,7
 347 116 347 116 334.5 128 c 128,-1,8
 322 140 322 140 295 152 c 2,9,-1
 190 202 l 2,10,11
 57 261 57 261 57 359 c 0,12,13
 57 437 57 437 138 496 c 1,14,15
 83 541 83 541 83 600 c 0,16,17
 83 668 83 668 137 710 c 128,-1,18
 191 752 191 752 300 752 c 0,19,20
 436 752 436 752 512 650 c 1,21,-1
 435 588 l 1,22,23
 378 650 378 650 297 650 c 0,24,25
 253 650 253 650 229 636.5 c 128,-1,26
 205 623 205 623 205 599 c 0,27,28
 205 590 205 590 208.5 582.5 c 128,-1,29
 212 575 212 575 219.5 567.5 c 128,-1,30
 227 560 227 560 234.5 555 c 128,-1,31
 242 550 242 550 255.5 543 c 128,-1,32
 269 536 269 536 279.5 531.5 c 128,-1,33
 290 527 290 527 308 519.5 c 128,-1,34
 326 512 326 512 337 506 c 0,35,36
 420 468 420 468 448 446 c 0,37,38
 509 399 509 399 509 326 c 0,39,40
 509 247 509 247 435 190 c 1,41,42
 469 150 469 150 469 99 c 0,43,44
 469 29 469 29 415.5 -12.5 c 128,-1,45
 362 -54 362 -54 255 -54 c 0,46,47
 184 -54 184 -54 124.5 -22 c 128,-1,48
 65 10 65 10 38 54 c 1,0,-1
180 362 m 0,49,50
 180 333 180 333 198 316.5 c 128,-1,51
 216 300 216 300 256 282 c 2,52,-1
 341 243 l 1,53,54
 387 284 387 284 387 326 c 0,55,56
 387 351 387 351 367 369 c 128,-1,57
 347 387 347 387 308 405 c 2,58,-1
 230 444 l 1,59,60
 180 407 180 407 180 362 c 0,49,50
EndSplineSet
EndChar

StartChar: dieresis
Encoding: 168 168 106
Width: 515
GlyphClass: 2
Flags: W
LayerCount: 2
Fore
SplineSet
96 605 m 1,0,-1
 96 735 l 1,1,-1
 223 735 l 1,2,-1
 223 605 l 1,3,-1
 96 605 l 1,0,-1
293 605 m 1,4,-1
 293 735 l 1,5,-1
 420 735 l 1,6,-1
 420 605 l 1,7,-1
 293 605 l 1,4,-1
EndSplineSet
EndChar

StartChar: copyright
Encoding: 169 169 107
Width: 853
GlyphClass: 2
Flags: W
LayerCount: 2
Fore
SplineSet
235 373 m 0,0,1
 235 483 235 483 291.5 544 c 128,-1,2
 348 605 348 605 439 605 c 0,3,4
 506 605 506 605 547.5 567.5 c 128,-1,5
 589 530 589 530 605 476 c 1,6,-1
 522 451 l 1,7,8
 492 520 492 520 440 520 c 256,9,10
 388 520 388 520 361.5 482 c 128,-1,11
 335 444 335 444 335 373 c 0,12,13
 335 297 335 297 363 261 c 128,-1,14
 391 225 391 225 440 225 c 0,15,16
 474 225 474 225 497.5 247 c 128,-1,17
 521 269 521 269 532 300 c 1,18,-1
 615 276 l 1,19,20
 600 218 600 218 554 179 c 128,-1,21
 508 140 508 140 439 140 c 0,22,23
 348 140 348 140 291.5 201 c 128,-1,24
 235 262 235 262 235 373 c 0,0,1
36 372 m 0,25,26
 36 552 36 552 147 661 c 128,-1,27
 258 770 258 770 427 770 c 0,28,29
 597 770 597 770 707.5 660 c 128,-1,30
 818 550 818 550 818 372 c 0,31,32
 818 196 818 196 707.5 85.5 c 128,-1,33
 597 -25 597 -25 427 -25 c 0,34,35
 258 -25 258 -25 147 83 c 128,-1,36
 36 191 36 191 36 372 c 0,25,26
124 372 m 256,37,38
 124 226 124 226 207.5 138.5 c 128,-1,39
 291 51 291 51 427 51 c 0,40,41
 558 51 558 51 644.5 136 c 128,-1,42
 731 221 731 221 731 372 c 0,43,44
 731 519 731 519 646 606.5 c 128,-1,45
 561 694 561 694 427 694 c 0,46,47
 292 694 292 694 208 606 c 128,-1,48
 124 518 124 518 124 372 c 256,37,38
EndSplineSet
EndChar

StartChar: ordfeminine
Encoding: 170 170 108
Width: 386
GlyphClass: 2
Flags: W
LayerCount: 2
Fore
SplineSet
29 285 m 1,0,-1
 29 361 l 1,1,-1
 358 361 l 1,2,-1
 358 285 l 1,3,-1
 29 285 l 1,0,-1
109 536 m 0,4,5
 109 516 109 516 125 502 c 128,-1,6
 141 488 141 488 168 488 c 0,7,8
 207 488 207 488 234.5 514 c 128,-1,9
 262 540 262 540 262 582 c 2,10,-1
 262 617 l 1,11,12
 249 614 249 614 224.5 609.5 c 128,-1,13
 200 605 200 605 187.5 602.5 c 128,-1,14
 175 600 175 600 157 594 c 128,-1,15
 139 588 139 588 130.5 581 c 128,-1,16
 122 574 122 574 115.5 562.5 c 128,-1,17
 109 551 109 551 109 536 c 0,4,5
24 530 m 0,18,19
 24 567 24 567 41.5 593 c 128,-1,20
 59 619 59 619 90 632.5 c 128,-1,21
 121 646 121 646 149.5 653.5 c 128,-1,22
 178 661 178 661 213.5 666.5 c 128,-1,23
 249 672 249 672 262 676 c 1,24,-1
 262 695 l 2,25,26
 262 723 262 723 242 738.5 c 128,-1,27
 222 754 222 754 190 754 c 0,28,29
 129 754 129 754 85 702 c 1,30,-1
 33 745 l 1,31,32
 58 775 58 775 100 796.5 c 128,-1,33
 142 818 142 818 190 818 c 0,34,35
 274 818 274 818 310 778 c 128,-1,36
 346 738 346 738 346 664 c 2,37,-1
 346 430 l 1,38,-1
 266 430 l 1,39,-1
 266 478 l 1,40,41
 230 419 230 419 157 419 c 0,42,43
 96 419 96 419 60 449.5 c 128,-1,44
 24 480 24 480 24 530 c 0,18,19
EndSplineSet
EndChar

StartChar: guillemotleft
Encoding: 171 171 109
Width: 519
GlyphClass: 2
Flags: W
LayerCount: 2
Fore
SplineSet
37 265 m 1,0,-1
 203 511 l 1,1,-1
 288 454 l 1,2,-1
 164 265 l 1,3,-1
 286 78 l 1,4,-1
 203 20 l 1,5,-1
 37 265 l 1,0,-1
236 265 m 1,6,-1
 401 499 l 1,7,-1
 483 436 l 1,8,-1
 361 265 l 1,9,-1
 483 92 l 1,10,-1
 401 31 l 1,11,-1
 236 265 l 1,6,-1
EndSplineSet
EndChar

StartChar: logicalnot
Encoding: 172 172 110
Width: 556
GlyphClass: 2
Flags: W
LayerCount: 2
Fore
SplineSet
46 295 m 1,0,-1
 46 400 l 1,1,-1
 511 400 l 1,2,-1
 511 119 l 1,3,-1
 399 119 l 1,4,-1
 399 295 l 1,5,-1
 46 295 l 1,0,-1
EndSplineSet
EndChar

StartChar: uni00AD
Encoding: 173 173 111
Width: 564
GlyphClass: 2
Flags: W
LayerCount: 2
Fore
SplineSet
56 314 m 1,0,-1
 56 418 l 1,1,-1
 508 418 l 1,2,-1
 508 314 l 1,3,-1
 56 314 l 1,0,-1
EndSplineSet
EndChar

StartChar: registered
Encoding: 174 174 112
Width: 853
GlyphClass: 2
Flags: W
LayerCount: 2
Fore
SplineSet
272 144 m 1,0,-1
 272 595 l 1,1,-1
 458 595 l 2,2,3
 527 595 527 595 564.5 556 c 128,-1,4
 602 517 602 517 602 462 c 0,5,6
 602 386 602 386 544 353 c 1,7,8
 561 338 561 338 568.5 321.5 c 128,-1,9
 576 305 576 305 583 275 c 0,10,11
 594 226 594 226 637 144 c 1,12,-1
 527 144 l 1,13,14
 497 187 497 187 481 266 c 0,15,16
 473 306 473 306 464 313 c 0,17,18
 456 321 456 321 443 321 c 2,19,-1
 372 321 l 1,20,-1
 372 144 l 1,21,-1
 272 144 l 1,0,-1
372 397 m 1,22,-1
 444 397 l 2,23,24
 471 397 471 397 486 412 c 128,-1,25
 501 427 501 427 501 453 c 0,26,27
 501 475 501 475 485.5 490.5 c 128,-1,28
 470 506 470 506 444 506 c 2,29,-1
 372 506 l 1,30,-1
 372 397 l 1,22,-1
36 374 m 0,31,32
 36 554 36 554 147 662 c 128,-1,33
 258 770 258 770 427 770 c 0,34,35
 597 770 597 770 707.5 660 c 128,-1,36
 818 550 818 550 818 374 c 0,37,38
 818 197 818 197 708 86 c 128,-1,39
 598 -25 598 -25 427 -25 c 0,40,41
 259 -25 259 -25 147.5 84 c 128,-1,42
 36 193 36 193 36 374 c 0,31,32
124 374 m 0,43,44
 124 226 124 226 206 141 c 128,-1,45
 288 56 288 56 427 56 c 0,46,47
 561 56 561 56 646 140 c 128,-1,48
 731 224 731 224 731 374 c 0,49,50
 731 523 731 523 645.5 606 c 128,-1,51
 560 689 560 689 427 689 c 0,52,53
 290 689 290 689 207 604 c 128,-1,54
 124 519 124 519 124 374 c 0,43,44
EndSplineSet
EndChar

StartChar: macron
Encoding: 175 175 113
Width: 493
GlyphClass: 2
Flags: W
LayerCount: 2
Fore
SplineSet
3 692 m 1,0,-1
 3 795 l 1,1,-1
 492 795 l 1,2,-1
 492 692 l 1,3,-1
 3 692 l 1,0,-1
EndSplineSet
EndChar

StartChar: degree
Encoding: 176 176 114
Width: 430
GlyphClass: 2
Flags: W
LayerCount: 2
Fore
SplineSet
82 610 m 0,0,1
 82 664 82 664 120 702.5 c 128,-1,2
 158 741 158 741 216 741 c 0,3,4
 271 741 271 741 310 704 c 128,-1,5
 349 667 349 667 349 610 c 0,6,7
 349 554 349 554 309.5 516 c 128,-1,8
 270 478 270 478 216 478 c 0,9,10
 160 478 160 478 121 516 c 128,-1,11
 82 554 82 554 82 610 c 0,0,1
158 610 m 0,12,13
 158 584 158 584 174 567 c 128,-1,14
 190 550 190 550 216 550 c 0,15,16
 240 550 240 550 256.5 567 c 128,-1,17
 273 584 273 584 273 610 c 0,18,19
 273 634 273 634 257 651 c 128,-1,20
 241 668 241 668 216 668 c 0,21,22
 190 668 190 668 174 651 c 128,-1,23
 158 634 158 634 158 610 c 0,12,13
EndSplineSet
EndChar

StartChar: plusminus
Encoding: 177 177 115
Width: 564
GlyphClass: 2
Flags: W
LayerCount: 2
Fore
SplineSet
38 399 m 1,0,-1
 38 500 l 1,1,-1
 223 500 l 1,2,-1
 223 663 l 1,3,-1
 340 663 l 1,4,-1
 340 500 l 1,5,-1
 525 500 l 1,6,-1
 525 399 l 1,7,-1
 340 399 l 1,8,-1
 340 239 l 1,9,-1
 223 239 l 1,10,-1
 223 399 l 1,11,-1
 38 399 l 1,0,-1
40 79 m 1,12,-1
 40 181 l 1,13,-1
 524 181 l 1,14,-1
 524 79 l 1,15,-1
 40 79 l 1,12,-1
EndSplineSet
EndChar

StartChar: twosuperior
Encoding: 178 178 116
Width: 329
GlyphClass: 2
Flags: W
LayerCount: 2
Fore
SplineSet
24 694 m 1,0,1
 29 714 29 714 34 726.5 c 128,-1,2
 39 739 39 739 54 764.5 c 128,-1,3
 69 790 69 790 97 804.5 c 128,-1,4
 125 819 125 819 164 819 c 0,5,6
 224 819 224 819 261.5 784 c 128,-1,7
 299 749 299 749 299 691 c 0,8,9
 299 630 299 630 237 566 c 0,10,11
 231 559 231 559 203 532 c 128,-1,12
 175 505 175 505 159 487 c 128,-1,13
 143 469 143 469 132 449 c 1,14,-1
 298 449 l 1,15,-1
 298 377 l 1,16,-1
 29 377 l 1,17,18
 29 439 29 439 58.5 484 c 128,-1,19
 88 529 88 529 169 606 c 0,20,21
 214 648 214 648 214 692 c 0,22,23
 214 718 214 718 200.5 732.5 c 128,-1,24
 187 747 187 747 164 747 c 0,25,26
 114 747 114 747 96 674 c 1,27,-1
 24 694 l 1,0,1
EndSplineSet
EndChar

StartChar: threesuperior
Encoding: 179 179 117
Width: 329
GlyphClass: 2
Flags: W
LayerCount: 2
Fore
SplineSet
16 473 m 1,0,-1
 83 498 l 1,1,2
 109 439 109 439 159 439 c 0,3,4
 187 439 187 439 205.5 455.5 c 128,-1,5
 224 472 224 472 224 504 c 0,6,7
 224 532 224 532 203.5 549 c 128,-1,8
 183 566 183 566 151 566 c 0,9,10
 121 566 121 566 106 564 c 1,11,-1
 106 636 l 1,12,13
 139 634 139 634 149 634 c 0,14,15
 175 634 175 634 192 649 c 128,-1,16
 209 664 209 664 209 692 c 0,17,18
 209 716 209 716 194 731.5 c 128,-1,19
 179 747 179 747 156 747 c 0,20,21
 131 747 131 747 118 731 c 128,-1,22
 105 715 105 715 95 686 c 1,23,-1
 25 707 l 1,24,25
 33 742 33 742 50.5 765.5 c 128,-1,26
 68 789 68 789 89 799.5 c 128,-1,27
 110 810 110 810 126.5 814 c 128,-1,28
 143 818 143 818 160 818 c 0,29,30
 221 818 221 818 258 784.5 c 128,-1,31
 295 751 295 751 295 700 c 0,32,33
 295 638 295 638 246 605 c 1,34,35
 310 572 310 572 310 504 c 0,36,37
 310 440 310 440 269.5 403.5 c 128,-1,38
 229 367 229 367 160 367 c 0,39,40
 110 367 110 367 70.5 394.5 c 128,-1,41
 31 422 31 422 16 473 c 1,0,-1
EndSplineSet
EndChar

StartChar: acute
Encoding: 180 180 118
Width: 382
GlyphClass: 2
Flags: W
LayerCount: 2
Fore
SplineSet
83 647 m 1,0,-1
 189 822 l 1,1,-1
 331 822 l 1,2,-1
 182 647 l 1,3,-1
 83 647 l 1,0,-1
EndSplineSet
EndChar

StartChar: uni00B5
Encoding: 181 181 119
Width: 565
GlyphClass: 2
Flags: W
LayerCount: 2
Fore
SplineSet
70 -219 m 1,0,-1
 70 536 l 1,1,-1
 187 536 l 1,2,-1
 187 209 l 2,3,4
 187 84 187 84 275 84 c 0,5,6
 329 84 329 84 358 129.5 c 128,-1,7
 387 175 387 175 387 236 c 2,8,-1
 387 536 l 1,9,-1
 505 536 l 1,10,-1
 505 0 l 1,11,-1
 392 0 l 1,12,-1
 392 60 l 1,13,-1
 391 60 l 1,14,15
 379 31 379 31 342 7 c 128,-1,16
 305 -17 305 -17 254 -17 c 0,17,18
 212 -17 212 -17 187 10 c 1,19,-1
 187 -219 l 1,20,-1
 70 -219 l 1,0,-1
EndSplineSet
EndChar

StartChar: paragraph
Encoding: 182 182 120
Width: 633
GlyphClass: 2
Flags: W
LayerCount: 2
Fore
SplineSet
50 548 m 0,0,1
 50 649 50 649 103 710 c 128,-1,2
 156 771 156 771 256 771 c 2,3,-1
 553 771 l 1,4,-1
 553 -72 l 1,5,-1
 456 -72 l 1,6,-1
 456 663 l 1,7,-1
 383 663 l 1,8,-1
 383 -72 l 1,9,-1
 286 -72 l 1,10,-1
 286 322 l 1,11,12
 264 316 264 316 243 316 c 0,13,14
 161 316 161 316 105.5 376 c 128,-1,15
 50 436 50 436 50 548 c 0,0,1
EndSplineSet
EndChar

StartChar: periodcentered
Encoding: 183 183 121
Width: 348
GlyphClass: 2
Flags: W
LayerCount: 2
Fore
SplineSet
97 282 m 1,0,-1
 97 425 l 1,1,-1
 253 425 l 1,2,-1
 253 282 l 1,3,-1
 97 282 l 1,0,-1
EndSplineSet
EndChar

StartChar: cedilla
Encoding: 184 184 122
Width: 309
GlyphClass: 2
Flags: W
LayerCount: 2
Fore
SplineSet
43 -133 m 1,0,1
 82 -141 82 -141 105 -141 c 0,2,3
 156 -141 156 -141 156 -114 c 0,4,5
 156 -80 156 -80 67 -75 c 1,6,-1
 124 40 l 1,7,-1
 227 40 l 1,8,-1
 197 -21 l 1,9,10
 266 -45 266 -45 266 -116 c 0,11,12
 266 -161 266 -161 231 -193 c 128,-1,13
 196 -225 196 -225 114 -225 c 0,14,15
 68 -225 68 -225 43 -217 c 1,16,-1
 43 -133 l 1,0,1
EndSplineSet
EndChar

StartChar: onesuperior
Encoding: 185 185 123
Width: 329
GlyphClass: 2
Flags: W
LayerCount: 2
Fore
SplineSet
44 673 m 1,0,-1
 44 740 l 1,1,-1
 69 740 l 2,2,3
 148 740 148 740 148 796 c 2,4,-1
 148 813 l 1,5,-1
 223 813 l 1,6,-1
 223 378 l 1,7,-1
 138 378 l 1,8,-1
 138 673 l 1,9,-1
 44 673 l 1,0,-1
EndSplineSet
EndChar

StartChar: ordmasculine
Encoding: 186 186 124
Width: 392
GlyphClass: 2
Flags: W
LayerCount: 2
Fore
SplineSet
108 619 m 0,0,1
 108 554 108 554 134.5 522 c 128,-1,2
 161 490 161 490 196 490 c 256,3,4
 231 490 231 490 258 522 c 128,-1,5
 285 554 285 554 285 619 c 0,6,7
 285 685 285 685 258 716.5 c 128,-1,8
 231 748 231 748 196 748 c 0,9,10
 160 748 160 748 134 716.5 c 128,-1,11
 108 685 108 685 108 619 c 0,0,1
22 619 m 0,12,13
 22 703 22 703 66.5 761 c 128,-1,14
 111 819 111 819 196 819 c 256,15,16
 281 819 281 819 325.5 761 c 128,-1,17
 370 703 370 703 370 619 c 0,18,19
 370 585 370 585 361.5 552.5 c 128,-1,20
 353 520 353 520 334.5 489 c 128,-1,21
 316 458 316 458 280 438.5 c 128,-1,22
 244 419 244 419 196 419 c 0,23,24
 149 419 149 419 113 437.5 c 128,-1,25
 77 456 77 456 58.5 487 c 128,-1,26
 40 518 40 518 31 551 c 128,-1,27
 22 584 22 584 22 619 c 0,12,13
29 291 m 1,28,-1
 29 365 l 1,29,-1
 364 365 l 1,30,-1
 364 291 l 1,31,-1
 29 291 l 1,28,-1
EndSplineSet
EndChar

StartChar: guillemotright
Encoding: 187 187 125
Width: 518
GlyphClass: 2
Flags: W
LayerCount: 2
Fore
SplineSet
37 436 m 1,0,-1
 119 499 l 1,1,-1
 284 265 l 1,2,-1
 119 31 l 1,3,-1
 37 92 l 1,4,-1
 159 265 l 1,5,-1
 37 436 l 1,0,-1
234 79 m 1,6,-1
 357 265 l 1,7,-1
 232 454 l 1,8,-1
 318 511 l 1,9,-1
 483 265 l 1,10,-1
 318 20 l 1,11,-1
 234 79 l 1,6,-1
EndSplineSet
EndChar

StartChar: onequarter
Encoding: 188 188 126
Width: 975
GlyphClass: 3
Flags: W
LayerCount: 2
Fore
SplineSet
664 141 m 1,0,-1
 757 141 l 1,1,-1
 757 240 l 2,2,3
 757 248 757 248 757.5 270 c 128,-1,4
 758 292 758 292 758 295 c 1,5,-1
 729 245 l 1,6,-1
 664 141 l 1,0,-1
62 625 m 1,7,-1
 62 708 l 1,8,-1
 96 708 l 2,9,10
 182 708 182 708 182 769 c 2,11,-1
 182 793 l 1,12,-1
 273 793 l 1,13,-1
 273 290 l 1,14,-1
 169 290 l 1,15,-1
 169 625 l 1,16,-1
 62 625 l 1,7,-1
168 -51 m 1,17,-1
 638 782 l 1,18,-1
 749 782 l 1,19,-1
 281 -51 l 1,20,-1
 168 -51 l 1,17,-1
559 132 m 1,21,-1
 774 457 l 1,22,-1
 860 457 l 1,23,-1
 860 141 l 1,24,-1
 917 141 l 1,25,-1
 917 53 l 1,26,-1
 860 53 l 1,27,-1
 860 -50 l 1,28,-1
 757 -50 l 1,29,-1
 757 53 l 1,30,-1
 559 53 l 1,31,-1
 559 132 l 1,21,-1
EndSplineSet
Ligature2: "'frac' Diagonal Fractions lookup 7 subtable" one fraction four
Ligature2: "'frac' Diagonal Fractions lookup 7 subtable" one slash four
EndChar

StartChar: onehalf
Encoding: 189 189 127
Width: 975
GlyphClass: 3
Flags: W
LayerCount: 2
Fore
SplineSet
154 -51 m 1,0,-1
 630 782 l 1,1,-1
 741 782 l 1,2,-1
 268 -51 l 1,3,-1
 154 -51 l 1,0,-1
576 315 m 1,4,5
 609 462 609 462 740 462 c 0,6,7
 808 462 808 462 852.5 422 c 128,-1,8
 897 382 897 382 897 314 c 0,9,10
 897 280 897 280 882.5 248.5 c 128,-1,11
 868 217 868 217 851.5 197.5 c 128,-1,12
 835 178 835 178 805 149 c 0,13,14
 727 74 727 74 709 42 c 1,15,-1
 896 42 l 1,16,-1
 896 -46 l 1,17,-1
 583 -46 l 1,18,19
 583 23 583 23 614 74.5 c 128,-1,20
 645 126 645 126 742 219 c 0,21,22
 793 267 793 267 793 315 c 0,23,24
 793 343 793 343 778.5 358.5 c 128,-1,25
 764 374 764 374 739 374 c 0,26,27
 723 374 723 374 710.5 367 c 128,-1,28
 698 360 698 360 691 352 c 128,-1,29
 684 344 684 344 678 329 c 128,-1,30
 672 314 672 314 670.5 308 c 128,-1,31
 669 302 669 302 665 288 c 1,32,-1
 576 315 l 1,4,5
62 625 m 1,33,-1
 62 708 l 1,34,-1
 96 708 l 2,35,36
 182 708 182 708 182 769 c 2,37,-1
 182 793 l 1,38,-1
 273 793 l 1,39,-1
 273 290 l 1,40,-1
 169 290 l 1,41,-1
 169 625 l 1,42,-1
 62 625 l 1,33,-1
EndSplineSet
Ligature2: "'frac' Diagonal Fractions lookup 7 subtable" one fraction two
Ligature2: "'frac' Diagonal Fractions lookup 7 subtable" one slash two
EndChar

StartChar: threequarters
Encoding: 190 190 128
Width: 975
GlyphClass: 3
Flags: W
LayerCount: 2
Fore
SplineSet
52 408 m 1,0,-1
 135 439 l 1,1,2
 164 371 164 371 220 371 c 0,3,4
 250 371 250 371 270 388.5 c 128,-1,5
 290 406 290 406 290 440 c 0,6,7
 290 471 290 471 267.5 489.5 c 128,-1,8
 245 508 245 508 210 508 c 0,9,10
 181 508 181 508 155 505 c 1,11,-1
 155 595 l 1,12,13
 176 593 176 593 207 593 c 0,14,15
 234 593 234 593 253.5 609 c 128,-1,16
 273 625 273 625 273 655 c 0,17,18
 273 680 273 680 257.5 697 c 128,-1,19
 242 714 242 714 217 714 c 0,20,21
 197 714 197 714 183 702 c 128,-1,22
 169 690 169 690 162.5 677 c 128,-1,23
 156 664 156 664 149 643 c 1,24,-1
 63 670 l 1,25,26
 80 739 80 739 124.5 770.5 c 128,-1,27
 169 802 169 802 221 802 c 0,28,29
 292 802 292 802 334.5 762.5 c 128,-1,30
 377 723 377 723 377 663 c 0,31,32
 377 597 377 597 324 557 c 1,33,34
 395 518 395 518 395 440 c 0,35,36
 395 367 395 367 347.5 324.5 c 128,-1,37
 300 282 300 282 221 282 c 0,38,39
 167 282 167 282 119.5 311.5 c 128,-1,40
 72 341 72 341 52 408 c 1,0,-1
564 132 m 1,41,-1
 778 457 l 1,42,-1
 864 457 l 1,43,-1
 864 141 l 1,44,-1
 922 141 l 1,45,-1
 922 53 l 1,46,-1
 864 53 l 1,47,-1
 864 -50 l 1,48,-1
 762 -50 l 1,49,-1
 762 53 l 1,50,-1
 564 53 l 1,51,-1
 564 132 l 1,41,-1
669 141 m 1,52,-1
 762 141 l 1,53,-1
 762 236 l 2,54,55
 762 244 762 244 762.5 268 c 128,-1,56
 763 292 763 292 763 295 c 1,57,-1
 732 242 l 1,58,-1
 669 141 l 1,52,-1
222 -51 m 1,59,-1
 702 782 l 1,60,-1
 812 782 l 1,61,-1
 335 -51 l 1,62,-1
 222 -51 l 1,59,-1
EndSplineSet
Ligature2: "'frac' Diagonal Fractions lookup 7 subtable" three fraction four
Ligature2: "'frac' Diagonal Fractions lookup 7 subtable" three slash four
EndChar

StartChar: questiondown
Encoding: 191 191 129
Width: 571
GlyphClass: 2
Flags: W
LayerCount: 2
Fore
SplineSet
62 -11 m 0,0,1
 62 33 62 33 79.5 69 c 128,-1,2
 97 105 97 105 121.5 128.5 c 128,-1,3
 146 152 146 152 170.5 175 c 128,-1,4
 195 198 195 198 212.5 229.5 c 128,-1,5
 230 261 230 261 230 300 c 2,6,-1
 230 330 l 1,7,-1
 353 330 l 1,8,-1
 353 290 l 2,9,10
 353 243 353 243 336.5 206 c 128,-1,11
 320 169 320 169 295.5 144.5 c 128,-1,12
 271 120 271 120 246.5 97.5 c 128,-1,13
 222 75 222 75 205.5 46.5 c 128,-1,14
 189 18 189 18 189 -17 c 0,15,16
 189 -62 189 -62 213.5 -88 c 128,-1,17
 238 -114 238 -114 280 -114 c 0,18,19
 361 -114 361 -114 403 -5 c 1,20,-1
 512 -41 l 1,21,22
 491 -117 491 -117 430 -168 c 128,-1,23
 369 -219 369 -219 281 -219 c 0,24,25
 184 -219 184 -219 123 -162 c 128,-1,26
 62 -105 62 -105 62 -11 c 0,0,1
212 400 m 1,27,-1
 212 540 l 1,28,-1
 369 540 l 1,29,-1
 369 400 l 1,30,-1
 212 400 l 1,27,-1
EndSplineSet
EndChar

StartChar: AE
Encoding: 198 198 136
Width: 956
GlyphClass: 2
Flags: W
LayerCount: 2
Fore
SplineSet
270 281 m 1,0,-1
 461 281 l 1,1,-1
 461 619 l 1,2,-1
 452 619 l 1,3,-1
 270 281 l 1,0,-1
-5 0 m 1,4,-1
 389 735 l 1,5,-1
 918 735 l 1,6,-1
 918 631 l 1,7,-1
 583 631 l 1,8,-1
 583 431 l 1,9,-1
 883 431 l 1,10,-1
 883 328 l 1,11,-1
 575 328 l 1,12,-1
 575 104 l 1,13,-1
 927 104 l 1,14,-1
 927 0 l 1,15,-1
 461 0 l 1,16,-1
 461 182 l 1,17,-1
 221 182 l 1,18,-1
 125 0 l 1,19,-1
 -5 0 l 1,4,-1
EndSplineSet
EndChar

StartChar: multiply
Encoding: 215 215 153
Width: 558
GlyphClass: 2
Flags: W
LayerCount: 2
Fore
SplineSet
35 204 m 1,0,-1
 205 365 l 1,1,-1
 35 525 l 1,2,-1
 112 599 l 1,3,-1
 279 437 l 1,4,-1
 445 599 l 1,5,-1
 521 526 l 1,6,-1
 352 365 l 1,7,-1
 521 203 l 1,8,-1
 445 130 l 1,9,-1
 279 293 l 1,10,-1
 112 130 l 1,11,-1
 35 204 l 1,0,-1
EndSplineSet
EndChar

StartChar: Oslash
Encoding: 216 216 154
Width: 709
GlyphClass: 2
Flags: W
LayerCount: 2
Fore
SplineSet
39 367 m 0,0,1
 39 540 39 540 126 646 c 128,-1,2
 213 752 213 752 355 752 c 0,3,4
 433 752 433 752 495 718 c 1,5,-1
 533 789 l 1,6,-1
 636 789 l 1,7,-1
 569 663 l 1,8,9
 671 557 671 557 671 367 c 0,10,11
 671 193 671 193 584 88 c 128,-1,12
 497 -17 497 -17 355 -17 c 0,13,14
 281 -17 281 -17 224 11 c 1,15,-1
 187 -58 l 1,16,-1
 86 -58 l 1,17,-1
 151 61 l 1,18,19
 39 168 39 168 39 367 c 0,0,1
505 549 m 1,20,-1
 277 107 l 1,21,22
 306 88 306 88 355 88 c 0,23,24
 442 88 442 88 493 162.5 c 128,-1,25
 544 237 544 237 544 367 c 0,26,27
 544 480 544 480 505 549 c 1,20,-1
444 622 m 1,28,29
 405 647 405 647 355 647 c 0,30,31
 267 647 267 647 216 571 c 128,-1,32
 165 495 165 495 165 367 c 0,33,34
 165 252 165 252 212 174 c 1,35,-1
 444 622 l 1,28,29
EndSplineSet
EndChar

StartChar: Thorn
Encoding: 222 222 160
Width: 584
GlyphClass: 2
Flags: W
LayerCount: 2
Fore
SplineSet
83 0 m 1,0,-1
 83 735 l 1,1,-1
 204 735 l 1,2,-1
 204 616 l 1,3,-1
 278 616 l 2,4,5
 353 616 353 616 408 595.5 c 128,-1,6
 463 575 463 575 493 540 c 128,-1,7
 523 505 523 505 537 464 c 128,-1,8
 551 423 551 423 551 375 c 0,9,10
 551 255 551 255 478 193 c 128,-1,11
 405 131 405 131 280 131 c 2,12,-1
 204 131 l 1,13,-1
 204 0 l 1,14,-1
 83 0 l 1,0,-1
204 236 m 1,15,-1
 269 236 l 2,16,17
 422 236 422 236 422 377 c 0,18,19
 422 512 422 512 269 512 c 2,20,-1
 204 512 l 1,21,-1
 204 236 l 1,15,-1
EndSplineSet
EndChar

StartChar: germandbls
Encoding: 223 223 161
Width: 643
GlyphClass: 2
Flags: W
LayerCount: 2
Fore
SplineSet
83 0 m 1,0,-1
 83 535 l 2,1,2
 83 640 83 640 148.5 696 c 128,-1,3
 214 752 214 752 310 752 c 0,4,5
 417 752 417 752 482.5 698 c 128,-1,6
 548 644 548 644 548 551 c 0,7,8
 548 448 548 448 465 398 c 1,9,-1
 465 396 l 1,10,11
 528 375 528 375 565.5 326.5 c 128,-1,12
 603 278 603 278 603 202 c 0,13,14
 603 100 603 100 541 41.5 c 128,-1,15
 479 -17 479 -17 371 -17 c 0,16,17
 303 -17 303 -17 246 1 c 1,18,-1
 248 109 l 1,19,20
 303 87 303 87 366 87 c 0,21,22
 412 87 412 87 444.5 120 c 128,-1,23
 477 153 477 153 477 203 c 0,24,25
 477 265 477 265 441 298.5 c 128,-1,26
 405 332 405 332 339 332 c 2,27,-1
 273 332 l 1,28,-1
 273 436 l 1,29,-1
 329 436 l 2,30,31
 369 436 369 436 395.5 464.5 c 128,-1,32
 422 493 422 493 422 545 c 0,33,34
 422 590 422 590 392.5 618.5 c 128,-1,35
 363 647 363 647 314 647 c 0,36,37
 263 647 263 647 234 614.5 c 128,-1,38
 205 582 205 582 205 526 c 2,39,-1
 205 0 l 1,40,-1
 83 0 l 1,0,-1
EndSplineSet
EndChar

StartChar: ae
Encoding: 230 230 168
Width: 888
GlyphClass: 2
Flags: W
LayerCount: 2
Fore
SplineSet
33 143 m 0,0,1
 33 217 33 217 92 263.5 c 128,-1,2
 151 310 151 310 267 327 c 0,3,4
 341 338 341 338 373 347 c 1,5,-1
 373 378 l 2,6,7
 373 413 373 413 344 436.5 c 128,-1,8
 315 460 315 460 272 460 c 0,9,10
 184 460 184 460 117 387 c 1,11,-1
 46 448 l 1,12,13
 132 552 132 552 272 552 c 0,14,15
 393 552 393 552 447 473 c 1,16,17
 510 552 510 552 618 552 c 0,18,19
 720 552 720 552 788.5 474 c 128,-1,20
 857 396 857 396 857 273 c 0,21,22
 857 247 857 247 856 228 c 1,23,-1
 488 228 l 1,24,-1
 488 214 l 1,25,26
 492 162 492 162 525 120 c 128,-1,27
 558 78 558 78 621 78 c 0,28,29
 707 78 707 78 751 156 c 1,30,-1
 847 123 l 1,31,32
 821 63 821 63 763 23 c 128,-1,33
 705 -17 705 -17 620 -17 c 0,34,35
 555 -17 555 -17 503.5 12.5 c 128,-1,36
 452 42 452 42 420 93 c 1,37,38
 340 -17 340 -17 221 -17 c 0,39,40
 134 -17 134 -17 83.5 27.5 c 128,-1,41
 33 72 33 72 33 143 c 0,0,1
151 151 m 0,42,43
 151 123 151 123 174.5 102 c 128,-1,44
 198 81 198 81 236 81 c 0,45,46
 293 81 293 81 333 119 c 128,-1,47
 373 157 373 157 373 214 c 2,48,-1
 373 265 l 1,49,50
 308 251 308 251 278 246 c 0,51,52
 151 229 151 229 151 151 c 0,42,43
488 310 m 1,53,-1
 738 310 l 1,54,55
 738 312 738 312 738 314 c 0,56,57
 738 374 738 374 704 416 c 128,-1,58
 670 458 670 458 619 458 c 0,59,60
 564 458 564 458 532 422.5 c 128,-1,61
 500 387 500 387 490 332 c 1,62,-1
 488 310 l 1,53,-1
EndSplineSet
EndChar

StartChar: eth
Encoding: 240 240 178
Width: 558
GlyphClass: 2
Flags: W
LayerCount: 2
Fore
SplineSet
33 231 m 0,0,1
 33 349 33 349 99 419.5 c 128,-1,2
 165 490 165 490 270 490 c 0,3,4
 310 490 310 490 343 475.5 c 128,-1,5
 376 461 376 461 390 443 c 1,6,7
 371 525 371 525 311 585 c 1,8,-1
 212 512 l 1,9,-1
 143 586 l 1,10,-1
 225 647 l 1,11,12
 181 669 181 669 130 677 c 1,13,-1
 172 772 l 1,14,15
 223 764 223 764 270 746 c 0,16,17
 296 736 296 736 323 719 c 1,18,-1
 425 795 l 1,19,-1
 492 719 l 1,20,-1
 405 654 l 1,21,22
 428 630 428 630 447 601 c 0,23,24
 481 548 481 548 503.5 464.5 c 128,-1,25
 526 381 526 381 526 277 c 0,26,27
 526 145 526 145 459.5 64 c 128,-1,28
 393 -17 393 -17 273 -17 c 0,29,30
 164 -17 164 -17 98.5 53 c 128,-1,31
 33 123 33 123 33 231 c 0,0,1
154 237 m 0,32,33
 154 169 154 169 187 126.5 c 128,-1,34
 220 84 220 84 277 84 c 0,35,36
 331 84 331 84 363.5 125 c 128,-1,37
 396 166 396 166 396 237 c 0,38,39
 396 305 396 305 363 346.5 c 128,-1,40
 330 388 330 388 276 388 c 256,41,42
 222 388 222 388 188 347.5 c 128,-1,43
 154 307 154 307 154 237 c 0,32,33
EndSplineSet
EndChar

StartChar: divide
Encoding: 247 247 185
Width: 558
GlyphClass: 2
Flags: W
LayerCount: 2
Fore
SplineSet
207 489 m 1,0,-1
 207 624 l 1,1,-1
 348 624 l 1,2,-1
 348 489 l 1,3,-1
 207 489 l 1,0,-1
27 310 m 1,4,-1
 27 414 l 1,5,-1
 531 414 l 1,6,-1
 531 310 l 1,7,-1
 27 310 l 1,4,-1
207 99 m 1,8,-1
 207 236 l 1,9,-1
 348 236 l 1,10,-1
 348 99 l 1,11,-1
 207 99 l 1,8,-1
EndSplineSet
EndChar

StartChar: oslash
Encoding: 248 248 186
Width: 561
GlyphClass: 2
Flags: W
LayerCount: 2
Fore
SplineSet
33 268 m 0,0,1
 33 387 33 387 96.5 469.5 c 128,-1,2
 160 552 160 552 282 552 c 0,3,4
 338 552 338 552 385 532 c 1,5,-1
 421 600 l 1,6,-1
 511 600 l 1,7,-1
 451 487 l 1,8,9
 528 410 528 410 528 268 c 0,10,11
 528 230 528 230 521.5 193 c 128,-1,12
 515 156 515 156 497 117.5 c 128,-1,13
 479 79 479 79 452.5 49.5 c 128,-1,14
 426 20 426 20 381.5 1.5 c 128,-1,15
 337 -17 337 -17 282 -17 c 256,16,17
 227 -17 227 -17 182 1 c 1,18,-1
 151 -57 l 1,19,-1
 61 -57 l 1,20,-1
 115 44 l 1,21,22
 33 123 33 123 33 268 c 0,0,1
386 373 m 1,23,-1
 233 95 l 1,24,25
 256 84 256 84 282 84 c 0,26,27
 332 84 332 84 370 129.5 c 128,-1,28
 408 175 408 175 408 268 c 0,29,30
 408 331 408 331 386 373 c 1,23,-1
335 438 m 1,31,32
 309 453 309 453 282 453 c 0,33,34
 231 453 231 453 192.5 407.5 c 128,-1,35
 154 362 154 362 154 268 c 0,36,37
 154 202 154 202 179 156 c 1,38,-1
 335 438 l 1,31,32
EndSplineSet
EndChar

StartChar: thorn
Encoding: 254 254 192
Width: 590
GlyphClass: 2
Flags: W
LayerCount: 2
Fore
SplineSet
191 269 m 0,0,1
 191 184 191 184 225 134 c 128,-1,2
 259 84 259 84 313 84 c 0,3,4
 371 84 371 84 404 132 c 128,-1,5
 437 180 437 180 437 269 c 0,6,7
 437 354 437 354 404.5 403.5 c 128,-1,8
 372 453 372 453 313 453 c 0,9,10
 259 453 259 453 225 402.5 c 128,-1,11
 191 352 191 352 191 269 c 0,0,1
76 -219 m 1,12,-1
 76 759 l 1,13,-1
 193 759 l 1,14,-1
 193 472 l 1,15,16
 207 506 207 506 245.5 529 c 128,-1,17
 284 552 284 552 329 552 c 0,18,19
 429 552 429 552 493.5 476 c 128,-1,20
 558 400 558 400 558 269 c 0,21,22
 558 194 558 194 537.5 137.5 c 128,-1,23
 517 81 517 81 483 48.5 c 128,-1,24
 449 16 449 16 410 -0.5 c 128,-1,25
 371 -17 371 -17 329 -17 c 0,26,27
 277 -17 277 -17 242 7.5 c 128,-1,28
 207 32 207 32 193 61 c 1,29,-1
 193 -219 l 1,30,-1
 76 -219 l 1,12,-1
EndSplineSet
EndChar

StartChar: dcroat
Encoding: 273 273 211
Width: 584
GlyphClass: 2
Flags: W
LayerCount: 2
Fore
SplineSet
33 264 m 0,0,1
 33 398 33 398 98.5 470.5 c 128,-1,2
 164 543 164 543 260 543 c 0,3,4
 308 543 308 543 344 521 c 128,-1,5
 380 499 380 499 398 469 c 1,6,-1
 398 593 l 1,7,-1
 191 593 l 1,8,-1
 191 683 l 1,9,-1
 398 683 l 1,10,-1
 398 759 l 1,11,-1
 515 759 l 1,12,-1
 515 683 l 1,13,-1
 572 683 l 1,14,-1
 572 593 l 1,15,-1
 515 593 l 1,16,-1
 515 0 l 1,17,-1
 400 0 l 1,18,-1
 400 70 l 1,19,20
 380 32 380 32 344 7.5 c 128,-1,21
 308 -17 308 -17 260 -17 c 0,22,23
 166 -17 166 -17 99.5 54.5 c 128,-1,24
 33 126 33 126 33 264 c 0,0,1
154 264 m 0,25,26
 154 177 154 177 189 130.5 c 128,-1,27
 224 84 224 84 278 84 c 256,28,29
 332 84 332 84 366 133 c 128,-1,30
 400 182 400 182 400 264 c 0,31,32
 400 343 400 343 366 392.5 c 128,-1,33
 332 442 332 442 277 442 c 0,34,35
 223 442 223 442 188.5 393.5 c 128,-1,36
 154 345 154 345 154 264 c 0,25,26
EndSplineSet
EndChar

StartChar: uni0123
Encoding: 291 291 229
Width: 571
GlyphClass: 2
Flags: W
LayerCount: 2
Fore
SplineSet
207 624 m 1,0,-1
 297 813 l 1,1,-1
 377 813 l 1,2,-1
 335 624 l 1,3,-1
 207 624 l 1,0,-1
156 279 m 0,4,5
 156 196 156 196 188.5 150.5 c 128,-1,6
 221 105 221 105 272 105 c 0,7,8
 326 105 326 105 357 149.5 c 128,-1,9
 388 194 388 194 388 279 c 0,10,11
 388 361 388 361 356.5 407 c 128,-1,12
 325 453 325 453 273 453 c 0,13,14
 220 453 220 453 188 406.5 c 128,-1,15
 156 360 156 360 156 279 c 0,4,5
36 278 m 0,16,17
 36 403 36 403 98.5 477.5 c 128,-1,18
 161 552 161 552 257 552 c 0,19,20
 308 552 308 552 341.5 528 c 128,-1,21
 375 504 375 504 389 474 c 1,22,-1
 389 536 l 1,23,-1
 506 536 l 1,24,-1
 506 74 l 2,25,26
 506 -77 506 -77 447 -150 c 128,-1,27
 388 -223 388 -223 265 -223 c 0,28,29
 202 -223 202 -223 146.5 -196 c 128,-1,30
 91 -169 91 -169 56 -119 c 1,31,-1
 134 -65 l 1,32,33
 187 -128 187 -128 268 -128 c 0,34,35
 321 -128 321 -128 352.5 -89.5 c 128,-1,36
 384 -51 384 -51 387 12 c 0,37,38
 390 68 390 68 390 74 c 1,39,40
 373 44 373 44 337.5 24.5 c 128,-1,41
 302 5 302 5 262 5 c 0,42,43
 162 5 162 5 99 79.5 c 128,-1,44
 36 154 36 154 36 278 c 0,16,17
EndSplineSet
EndChar

StartChar: Hbar
Encoding: 294 294 232
Width: 705
GlyphClass: 2
Flags: W
LayerCount: 2
Fore
SplineSet
10 545 m 1,0,-1
 10 642 l 1,1,-1
 83 642 l 1,2,-1
 83 735 l 1,3,-1
 204 735 l 1,4,-1
 204 642 l 1,5,-1
 502 642 l 1,6,-1
 502 735 l 1,7,-1
 623 735 l 1,8,-1
 623 642 l 1,9,-1
 697 642 l 1,10,-1
 697 545 l 1,11,-1
 623 545 l 1,12,-1
 623 0 l 1,13,-1
 502 0 l 1,14,-1
 502 326 l 1,15,-1
 204 326 l 1,16,-1
 204 0 l 1,17,-1
 83 0 l 1,18,-1
 83 545 l 1,19,-1
 10 545 l 1,0,-1
502 545 m 1,20,-1
 204 545 l 1,21,-1
 204 429 l 1,22,-1
 502 429 l 1,23,-1
 502 545 l 1,20,-1
EndSplineSet
EndChar

StartChar: hbar
Encoding: 295 295 233
Width: 564
GlyphClass: 2
Flags: W
LayerCount: 2
Fore
SplineSet
4 594 m 1,0,-1
 4 683 l 1,1,-1
 70 683 l 1,2,-1
 70 759 l 1,3,-1
 186 759 l 1,4,-1
 186 683 l 1,5,-1
 381 683 l 1,6,-1
 381 594 l 1,7,-1
 186 594 l 1,8,-1
 186 457 l 1,9,-1
 187 457 l 1,10,11
 207 486 207 486 244.5 507.5 c 128,-1,12
 282 529 282 529 326 529 c 0,13,14
 358 529 358 529 386.5 519.5 c 128,-1,15
 415 510 415 510 443.5 488.5 c 128,-1,16
 472 467 472 467 489 424 c 128,-1,17
 506 381 506 381 506 321 c 2,18,-1
 506 0 l 1,19,-1
 388 0 l 1,20,-1
 388 307 l 2,21,22
 388 427 388 427 304 427 c 0,23,24
 254 427 254 427 220 383.5 c 128,-1,25
 186 340 186 340 186 282 c 2,26,-1
 186 0 l 1,27,-1
 70 0 l 1,28,-1
 70 594 l 1,29,-1
 4 594 l 1,0,-1
EndSplineSet
EndChar

StartChar: dotlessi
Encoding: 305 305 243
Width: 258
GlyphClass: 2
Flags: W
LayerCount: 2
Fore
SplineSet
71 0 m 1,0,-1
 71 536 l 1,1,-1
 188 536 l 1,2,-1
 188 0 l 1,3,-1
 71 0 l 1,0,-1
EndSplineSet
EndChar

StartChar: kgreenlandic
Encoding: 312 312 250
Width: 536
GlyphClass: 2
Flags: W
LayerCount: 2
Fore
SplineSet
70 0 m 1,0,-1
 70 536 l 1,1,-1
 186 536 l 1,2,-1
 186 338 l 1,3,-1
 189 338 l 1,4,-1
 394 536 l 1,5,-1
 543 536 l 1,6,-1
 292 294 l 1,7,-1
 546 0 l 1,8,-1
 406 0 l 1,9,-1
 217 209 l 1,10,-1
 186 177 l 1,11,-1
 186 0 l 1,12,-1
 70 0 l 1,0,-1
EndSplineSet
EndChar

StartChar: Lslash
Encoding: 321 321 259
Width: 547
GlyphClass: 2
Flags: W
LayerCount: 2
Fore
SplineSet
205 336 m 1,0,-1
 205 104 l 1,1,-1
 538 104 l 1,2,-1
 538 0 l 1,3,-1
 83 0 l 1,4,-1
 83 261 l 1,5,-1
 -2 207 l 1,6,-1
 -58 296 l 1,7,-1
 83 385 l 1,8,-1
 83 735 l 1,9,-1
 205 735 l 1,10,-1
 205 460 l 1,11,-1
 308 526 l 1,12,-1
 364 437 l 1,13,-1
 205 336 l 1,0,-1
EndSplineSet
EndChar

StartChar: lslash
Encoding: 322 322 260
Width: 265
GlyphClass: 2
Flags: W
LayerCount: 2
Fore
SplineSet
192 352 m 1,0,-1
 192 0 l 1,1,-1
 74 0 l 1,2,-1
 74 282 l 1,3,-1
 -9 231 l 1,4,-1
 -65 322 l 1,5,-1
 74 406 l 1,6,-1
 74 759 l 1,7,-1
 192 759 l 1,8,-1
 192 477 l 1,9,-1
 276 527 l 1,10,-1
 330 437 l 1,11,-1
 192 352 l 1,0,-1
EndSplineSet
EndChar

StartChar: Eng
Encoding: 330 330 268
Width: 710
GlyphClass: 2
Flags: W
LayerCount: 2
Fore
SplineSet
83 0 m 1,0,-1
 83 735 l 1,1,-1
 211 735 l 1,2,-1
 449 306 l 1,3,-1
 515 182 l 1,4,-1
 519 182 l 1,5,6
 506 270 506 270 506 390 c 2,7,-1
 506 735 l 1,8,-1
 628 735 l 1,9,-1
 628 15 l 2,10,11
 628 -99 628 -99 577 -157.5 c 128,-1,12
 526 -216 526 -216 439 -216 c 0,13,14
 410 -216 410 -216 335 -205 c 1,15,-1
 335 -103 l 1,16,17
 385 -112 385 -112 413 -112 c 0,18,19
 460 -112 460 -112 479 -86.5 c 128,-1,20
 498 -61 498 -61 501 -2 c 1,21,-1
 258 432 l 1,22,-1
 196 551 l 1,23,-1
 191 551 l 1,24,25
 205 435 205 435 205 351 c 2,26,-1
 205 0 l 1,27,-1
 83 0 l 1,0,-1
EndSplineSet
EndChar

StartChar: eng
Encoding: 331 331 269
Width: 559
GlyphClass: 2
Flags: W
LayerCount: 2
Fore
SplineSet
64 0 m 1,0,-1
 64 536 l 1,1,-1
 177 536 l 1,2,-1
 177 469 l 1,3,-1
 178 469 l 1,4,5
 197 503 197 503 235.5 527.5 c 128,-1,6
 274 552 274 552 327 552 c 0,7,8
 502 552 502 552 502 345 c 2,9,-1
 502 8 l 2,10,11
 502 -55 502 -55 485 -102.5 c 128,-1,12
 468 -150 468 -150 440.5 -175 c 128,-1,13
 413 -200 413 -200 382 -211.5 c 128,-1,14
 351 -223 351 -223 317 -223 c 0,15,16
 299 -223 299 -223 281.5 -221 c 128,-1,17
 264 -219 264 -219 245.5 -216 c 128,-1,18
 227 -213 227 -213 223 -212 c 1,19,-1
 223 -111 l 1,20,21
 273 -119 273 -119 297 -119 c 0,22,23
 343 -119 343 -119 364 -91.5 c 128,-1,24
 385 -64 385 -64 385 -7 c 2,25,-1
 385 329 l 2,26,27
 385 453 385 453 301 453 c 0,28,29
 251 453 251 453 216.5 411.5 c 128,-1,30
 182 370 182 370 182 310 c 2,31,-1
 182 0 l 1,32,-1
 64 0 l 1,0,-1
EndSplineSet
EndChar

StartChar: OE
Encoding: 338 338 276
Width: 974
GlyphClass: 2
Flags: W
LayerCount: 2
Fore
SplineSet
39 367 m 256,0,1
 39 541 39 541 128 646.5 c 128,-1,2
 217 752 217 752 360 752 c 0,3,4
 423 752 423 752 463 735 c 1,5,-1
 934 735 l 1,6,-1
 934 630 l 1,7,-1
 580 630 l 1,8,-1
 580 431 l 1,9,-1
 899 431 l 1,10,-1
 899 328 l 1,11,-1
 580 328 l 1,12,-1
 580 104 l 1,13,-1
 944 104 l 1,14,-1
 944 0 l 1,15,-1
 465 0 l 1,16,17
 416 -17 416 -17 360 -17 c 0,18,19
 215 -17 215 -17 127 88 c 128,-1,20
 39 193 39 193 39 367 c 256,0,1
165 367 m 0,21,22
 165 239 165 239 218 163 c 128,-1,23
 271 87 271 87 360 87 c 0,24,25
 415 87 415 87 457 121 c 1,26,-1
 457 612 l 1,27,28
 417 647 417 647 360 647 c 0,29,30
 269 647 269 647 217 570.5 c 128,-1,31
 165 494 165 494 165 367 c 0,21,22
EndSplineSet
EndChar

StartChar: uni0163
Encoding: 355 355 293
Width: 368
GlyphClass: 2
Flags: W
LayerCount: 2
Fore
SplineSet
17 436 m 1,0,-1
 17 536 l 1,1,-1
 99 536 l 1,2,-1
 99 695 l 1,3,-1
 217 695 l 1,4,-1
 217 536 l 1,5,-1
 339 536 l 1,6,-1
 339 436 l 1,7,-1
 217 436 l 1,8,-1
 217 172 l 2,9,10
 217 134 217 134 232 117 c 128,-1,11
 247 100 247 100 279 100 c 2,12,-1
 340 100 l 1,13,-1
 340 0 l 1,14,-1
 281 0 l 1,15,-1
 273 -31 l 1,16,17
 312 -38 312 -38 333.5 -60.5 c 128,-1,18
 355 -83 355 -83 355 -116 c 0,19,20
 355 -157 355 -157 319.5 -187 c 128,-1,21
 284 -217 284 -217 206 -217 c 0,22,23
 160 -217 160 -217 119 -207 c 1,24,-1
 119 -135 l 1,25,26
 164 -144 164 -144 203 -144 c 0,27,28
 263 -144 263 -144 263 -109 c 0,29,30
 263 -75 263 -75 159 -71 c 1,31,-1
 180 15 l 1,32,33
 99 49 99 49 99 164 c 2,34,-1
 99 436 l 1,35,-1
 17 436 l 1,0,-1
EndSplineSet
Substitution2: "'locl' Localized Forms in Latin lookup 3 subtable" uni021B
Substitution2: "'locl' Localized Forms in Latin lookup 2 subtable" uni021B
Substitution2: "'aalt' Access All Alternates lookup 0 subtable" uni021B
EndChar

StartChar: tbar
Encoding: 359 359 297
Width: 368
GlyphClass: 2
Flags: W
LayerCount: 2
Fore
SplineSet
17 436 m 1,0,-1
 17 536 l 1,1,-1
 99 536 l 1,2,-1
 99 695 l 1,3,-1
 217 695 l 1,4,-1
 217 536 l 1,5,-1
 339 536 l 1,6,-1
 339 436 l 1,7,-1
 217 436 l 1,8,-1
 217 361 l 1,9,-1
 339 361 l 1,10,-1
 339 264 l 1,11,-1
 217 264 l 1,12,-1
 217 172 l 2,13,14
 217 134 217 134 232 117 c 128,-1,15
 247 100 247 100 279 100 c 2,16,-1
 340 100 l 1,17,-1
 340 0 l 1,18,-1
 264 0 l 2,19,20
 99 0 99 0 99 164 c 2,21,-1
 99 264 l 1,22,-1
 5 264 l 1,23,-1
 5 361 l 1,24,-1
 99 361 l 1,25,-1
 99 436 l 1,26,-1
 17 436 l 1,0,-1
EndSplineSet
EndChar

StartChar: longs
Encoding: 383 383 321
Width: 312
GlyphClass: 2
Flags: W
LayerCount: 2
Fore
SplineSet
74 0 m 1,0,-1
 74 594 l 2,1,2
 74 676 74 676 115 717.5 c 128,-1,3
 156 759 156 759 231 759 c 2,4,-1
 313 759 l 1,5,-1
 313 659 l 1,6,-1
 255 659 l 2,7,8
 223 659 223 659 207 641 c 128,-1,9
 191 623 191 623 191 582 c 2,10,-1
 191 0 l 1,11,-1
 74 0 l 1,0,-1
EndSplineSet
EndChar

StartChar: uni0180
Encoding: 384 384 322
Width: 584
GlyphClass: 2
Flags: W
LayerCount: 2
Fore
SplineSet
185 265 m 0,0,1
 185 182 185 182 219.5 133 c 128,-1,2
 254 84 254 84 308 84 c 256,3,4
 362 84 362 84 396 131 c 128,-1,5
 430 178 430 178 430 265 c 0,6,7
 430 347 430 347 396.5 396 c 128,-1,8
 363 445 363 445 308 445 c 0,9,10
 254 445 254 445 219.5 395.5 c 128,-1,11
 185 346 185 346 185 265 c 0,0,1
5 593 m 1,12,-1
 5 684 l 1,13,-1
 70 684 l 1,14,-1
 70 759 l 1,15,-1
 187 759 l 1,16,-1
 187 684 l 1,17,-1
 378 684 l 1,18,-1
 378 593 l 1,19,-1
 187 593 l 1,20,-1
 187 467 l 1,21,22
 207 498 207 498 243 521.5 c 128,-1,23
 279 545 279 545 325 545 c 0,24,25
 425 545 425 545 488 470 c 128,-1,26
 551 395 551 395 551 265 c 0,27,28
 551 191 551 191 530 135 c 128,-1,29
 509 79 509 79 475 47 c 128,-1,30
 441 15 441 15 403 -1 c 128,-1,31
 365 -17 365 -17 326 -17 c 0,32,33
 277 -17 277 -17 239 8.5 c 128,-1,34
 201 34 201 34 184 69 c 1,35,-1
 184 0 l 1,36,-1
 70 0 l 1,37,-1
 70 593 l 1,38,-1
 5 593 l 1,12,-1
EndSplineSet
EndChar

StartChar: uni0182
Encoding: 386 386 324
Width: 657
GlyphClass: 2
Flags: W
LayerCount: 2
Fore
SplineSet
205 104 m 1,0,-1
 374 104 l 2,1,2
 425 104 425 104 459 131.5 c 128,-1,3
 493 159 493 159 493 214 c 0,4,5
 493 261 493 261 461 294.5 c 128,-1,6
 429 328 429 328 372 328 c 2,7,-1
 205 328 l 1,8,-1
 205 104 l 1,0,-1
83 0 m 1,9,-1
 83 735 l 1,10,-1
 535 735 l 1,11,-1
 535 630 l 1,12,-1
 205 630 l 1,13,-1
 205 431 l 1,14,-1
 381 431 l 2,15,16
 495 431 495 431 558 369.5 c 128,-1,17
 621 308 621 308 621 214 c 0,18,19
 621 123 621 123 559 61.5 c 128,-1,20
 497 0 497 0 391 0 c 2,21,-1
 83 0 l 1,9,-1
EndSplineSet
EndChar

StartChar: uni0183
Encoding: 387 387 325
Width: 584
GlyphClass: 2
Flags: W
LayerCount: 2
Fore
SplineSet
185 269 m 0,0,1
 185 182 185 182 219 133 c 128,-1,2
 253 84 253 84 308 84 c 0,3,4
 362 84 362 84 396 132 c 128,-1,5
 430 180 430 180 430 269 c 0,6,7
 430 354 430 354 397 403.5 c 128,-1,8
 364 453 364 453 308 453 c 0,9,10
 253 453 253 453 219 402 c 128,-1,11
 185 351 185 351 185 269 c 0,0,1
70 0 m 1,12,-1
 70 752 l 1,13,-1
 456 752 l 1,14,-1
 456 652 l 1,15,-1
 187 652 l 1,16,-1
 187 476 l 1,17,18
 200 501 200 501 236.5 526.5 c 128,-1,19
 273 552 273 552 325 552 c 0,20,21
 425 552 425 552 488 476 c 128,-1,22
 551 400 551 400 551 269 c 0,23,24
 551 195 551 195 530.5 137.5 c 128,-1,25
 510 80 510 80 476.5 48 c 128,-1,26
 443 16 443 16 404.5 -0.5 c 128,-1,27
 366 -17 366 -17 326 -17 c 0,28,29
 277 -17 277 -17 238.5 9 c 128,-1,30
 200 35 200 35 184 69 c 1,31,-1
 184 0 l 1,32,-1
 70 0 l 1,12,-1
EndSplineSet
EndChar

StartChar: uni0184
Encoding: 388 388 326
Width: 661
GlyphClass: 2
Flags: W
LayerCount: 2
Fore
SplineSet
-5 663 m 1,0,-1
 137 735 l 1,1,-1
 205 735 l 1,2,-1
 205 429 l 1,3,-1
 384 429 l 2,4,5
 498 429 498 429 560.5 368 c 128,-1,6
 623 307 623 307 623 214 c 0,7,8
 623 125 623 125 562.5 62.5 c 128,-1,9
 502 0 502 0 397 0 c 2,10,-1
 83 0 l 1,11,-1
 83 594 l 1,12,-1
 -5 663 l 1,0,-1
205 104 m 1,13,-1
 376 104 l 2,14,15
 427 104 427 104 462 132 c 128,-1,16
 497 160 497 160 497 214 c 0,17,18
 497 260 497 260 465.5 293 c 128,-1,19
 434 326 434 326 375 326 c 2,20,-1
 205 326 l 1,21,-1
 205 104 l 1,13,-1
EndSplineSet
EndChar

StartChar: uni0185
Encoding: 389 389 327
Width: 584
GlyphClass: 2
Flags: W
LayerCount: 2
Fore
SplineSet
-11 685 m 1,0,-1
 123 759 l 1,1,-1
 187 759 l 1,2,-1
 187 477 l 1,3,4
 202 508 202 508 241.5 530 c 128,-1,5
 281 552 281 552 325 552 c 0,6,7
 426 552 426 552 488.5 476 c 128,-1,8
 551 400 551 400 551 269 c 0,9,10
 551 128 551 128 483 55.5 c 128,-1,11
 415 -17 415 -17 326 -17 c 0,12,13
 278 -17 278 -17 240.5 8 c 128,-1,14
 203 33 203 33 184 69 c 1,15,-1
 184 0 l 1,16,-1
 70 0 l 1,17,-1
 70 617 l 1,18,-1
 -11 685 l 1,0,-1
185 269 m 0,19,20
 185 182 185 182 219.5 133 c 128,-1,21
 254 84 254 84 308 84 c 0,22,23
 364 84 364 84 397 132.5 c 128,-1,24
 430 181 430 181 430 269 c 0,25,26
 430 352 430 352 398 402.5 c 128,-1,27
 366 453 366 453 308 453 c 0,28,29
 253 453 253 453 219 403 c 128,-1,30
 185 353 185 353 185 269 c 0,19,20
EndSplineSet
EndChar

StartChar: uni0186
Encoding: 390 390 328
Width: 663
GlyphClass: 2
Flags: W
LayerCount: 2
Fore
SplineSet
20 176 m 1,0,-1
 130 210 l 1,1,2
 151 160 151 160 196 124 c 128,-1,3
 241 88 241 88 299 88 c 0,4,5
 389 88 389 88 443.5 164 c 128,-1,6
 498 240 498 240 498 368 c 0,7,8
 498 495 498 495 444 571 c 128,-1,9
 390 647 390 647 299 647 c 0,10,11
 203 647 203 647 144 540 c 1,12,-1
 39 574 l 1,13,14
 72 650 72 650 138 701 c 128,-1,15
 204 752 204 752 298 752 c 0,16,17
 442 752 442 752 533 648.5 c 128,-1,18
 624 545 624 545 624 368 c 0,19,20
 624 189 624 189 532 86 c 128,-1,21
 440 -17 440 -17 298 -17 c 0,22,23
 242 -17 242 -17 193 1.5 c 128,-1,24
 144 20 144 20 111 50 c 128,-1,25
 78 80 78 80 56 111 c 128,-1,26
 34 142 34 142 20 176 c 1,0,-1
EndSplineSet
EndChar

StartChar: uni018B
Encoding: 395 395 333
Width: 657
GlyphClass: 2
Flags: W
LayerCount: 2
Fore
SplineSet
164 214 m 0,0,1
 164 160 164 160 198.5 132 c 128,-1,2
 233 104 233 104 283 104 c 2,3,-1
 453 104 l 1,4,-1
 453 328 l 1,5,-1
 287 328 l 2,6,7
 230 328 230 328 197 294.5 c 128,-1,8
 164 261 164 261 164 214 c 0,0,1
37 214 m 0,9,10
 37 308 37 308 100 369.5 c 128,-1,11
 163 431 163 431 277 431 c 2,12,-1
 453 431 l 1,13,-1
 453 630 l 1,14,-1
 123 630 l 1,15,-1
 123 735 l 1,16,-1
 575 735 l 1,17,-1
 575 0 l 1,18,-1
 266 0 l 2,19,20
 161 0 161 0 99 61.5 c 128,-1,21
 37 123 37 123 37 214 c 0,9,10
EndSplineSet
EndChar

StartChar: uni018C
Encoding: 396 396 334
Width: 584
GlyphClass: 2
Flags: W
LayerCount: 2
Fore
SplineSet
154 269 m 0,0,1
 154 179 154 179 188.5 131.5 c 128,-1,2
 223 84 223 84 278 84 c 256,3,4
 333 84 333 84 366 134 c 128,-1,5
 399 184 399 184 399 269 c 0,6,7
 399 351 399 351 366 402 c 128,-1,8
 333 453 333 453 277 453 c 0,9,10
 220 453 220 453 187 404 c 128,-1,11
 154 355 154 355 154 269 c 0,0,1
33 269 m 0,12,13
 33 400 33 400 97.5 476 c 128,-1,14
 162 552 162 552 261 552 c 0,15,16
 314 552 314 552 350 527 c 128,-1,17
 386 502 386 502 398 477 c 1,18,-1
 398 660 l 1,19,-1
 125 660 l 1,20,-1
 125 759 l 1,21,-1
 515 759 l 1,22,-1
 515 0 l 1,23,-1
 400 0 l 1,24,-1
 400 69 l 1,25,26
 383 35 383 35 346 9 c 128,-1,27
 309 -17 309 -17 259 -17 c 0,28,29
 217 -17 217 -17 179 -0.5 c 128,-1,30
 141 16 141 16 107 48.5 c 128,-1,31
 73 81 73 81 53 137.5 c 128,-1,32
 33 194 33 194 33 269 c 0,12,13
EndSplineSet
EndChar

StartChar: uni018D
Encoding: 397 397 335
Width: 609
GlyphClass: 2
Flags: W
LayerCount: 2
Fore
SplineSet
154 321 m 0,0,1
 154 265 154 265 199 219 c 128,-1,2
 244 173 244 173 312 144 c 1,3,4
 375 174 375 174 415 220 c 128,-1,5
 455 266 455 266 455 319 c 0,6,7
 455 376 455 376 417 414.5 c 128,-1,8
 379 453 379 453 309 453 c 0,9,10
 238 453 238 453 196 415.5 c 128,-1,11
 154 378 154 378 154 321 c 0,0,1
33 317 m 0,12,13
 33 429 33 429 107.5 490.5 c 128,-1,14
 182 552 182 552 310 552 c 0,15,16
 436 552 436 552 506 488.5 c 128,-1,17
 576 425 576 425 576 323 c 0,18,19
 576 258 576 258 533.5 195.5 c 128,-1,20
 491 133 491 133 412 93 c 1,21,22
 505 36 505 36 505 -47 c 0,23,24
 505 -128 505 -128 443 -172.5 c 128,-1,25
 381 -217 381 -217 282 -217 c 0,26,27
 198 -217 198 -217 138.5 -182 c 128,-1,28
 79 -147 79 -147 47 -90 c 1,29,-1
 133 -43 l 1,30,31
 154 -73 154 -73 193 -95 c 128,-1,32
 232 -117 232 -117 281 -117 c 0,33,34
 328 -117 328 -117 357 -98.5 c 128,-1,35
 386 -80 386 -80 386 -50 c 0,36,37
 386 -36 386 -36 375.5 -22 c 128,-1,38
 365 -8 365 -8 339 8 c 128,-1,39
 313 24 313 24 296 33.5 c 128,-1,40
 279 43 279 43 239 63 c 0,41,42
 33 165 33 165 33 317 c 0,12,13
EndSplineSet
EndChar

StartChar: uni018E
Encoding: 398 398 336
Width: 603
GlyphClass: 2
Flags: W
LayerCount: 2
Fore
SplineSet
35 0 m 1,0,-1
 35 104 l 1,1,-1
 400 104 l 1,2,-1
 400 328 l 1,3,-1
 75 328 l 1,4,-1
 75 431 l 1,5,-1
 400 431 l 1,6,-1
 400 630 l 1,7,-1
 34 630 l 1,8,-1
 34 735 l 1,9,-1
 522 735 l 1,10,-1
 522 0 l 1,11,-1
 35 0 l 1,0,-1
EndSplineSet
EndChar

StartChar: uni018F
Encoding: 399 399 337
Width: 706
GlyphClass: 2
Flags: W
LayerCount: 2
Fore
SplineSet
37 359 m 0,0,1
 37 394 37 394 40 422 c 1,2,-1
 538 422 l 1,3,4
 529 530 529 530 477.5 588.5 c 128,-1,5
 426 647 426 647 345 647 c 0,6,7
 232 647 232 647 162 543 c 1,8,-1
 58 584 l 1,9,10
 99 666 99 666 174 709 c 128,-1,11
 249 752 249 752 347 752 c 0,12,13
 499 752 499 752 584 644 c 128,-1,14
 669 536 669 536 669 366 c 0,15,16
 669 195 669 195 579 89 c 128,-1,17
 489 -17 489 -17 348 -17 c 0,18,19
 205 -17 205 -17 121 86.5 c 128,-1,20
 37 190 37 190 37 359 c 0,0,1
166 317 m 1,21,22
 166 305 166 305 167 299 c 0,23,24
 175 211 175 211 220 149 c 128,-1,25
 265 87 265 87 349 87 c 0,26,27
 426 87 426 87 480.5 148.5 c 128,-1,28
 535 210 535 210 539 317 c 1,29,-1
 166 317 l 1,21,22
EndSplineSet
EndChar

StartChar: uni0190
Encoding: 400 400 338
Width: 610
GlyphClass: 2
Flags: W
LayerCount: 2
Fore
SplineSet
41 208 m 0,0,1
 41 279 41 279 82 324.5 c 128,-1,2
 123 370 123 370 176 387 c 1,3,4
 132 410 132 410 100.5 455.5 c 128,-1,5
 69 501 69 501 69 557 c 0,6,7
 69 644 69 644 135.5 698 c 128,-1,8
 202 752 202 752 308 752 c 0,9,10
 366 752 366 752 413.5 734 c 128,-1,11
 461 716 461 716 490 687.5 c 128,-1,12
 519 659 519 659 536.5 631.5 c 128,-1,13
 554 604 554 604 563 577 c 1,14,-1
 460 545 l 1,15,16
 409 651 409 651 315 651 c 0,17,18
 262 651 262 651 228 621 c 128,-1,19
 194 591 194 591 194 545 c 0,20,21
 194 492 194 492 238 460 c 128,-1,22
 282 428 282 428 335 428 c 256,23,24
 388 428 388 428 413 430 c 1,25,-1
 413 330 l 1,26,27
 361 334 361 334 334 334 c 0,28,29
 265 334 265 334 216 300 c 128,-1,30
 167 266 167 266 167 209 c 0,31,32
 167 148 167 148 211.5 116 c 128,-1,33
 256 84 256 84 319 84 c 0,34,35
 367 84 367 84 414 113.5 c 128,-1,36
 461 143 461 143 482 184 c 1,37,-1
 581 148 l 1,38,39
 550 71 550 71 479.5 27 c 128,-1,40
 409 -17 409 -17 313 -17 c 0,41,42
 190 -17 190 -17 115.5 44 c 128,-1,43
 41 105 41 105 41 208 c 0,0,1
EndSplineSet
EndChar

StartChar: uni0191
Encoding: 401 401 339
Width: 569
GlyphClass: 2
Flags: W
LayerCount: 2
Fore
SplineSet
-43 -113 m 1,0,1
 -11 -119 -11 -119 8 -119 c 0,2,3
 46 -119 46 -119 64.5 -92 c 128,-1,4
 83 -65 83 -65 83 -7 c 2,5,-1
 83 735 l 1,6,-1
 551 735 l 1,7,-1
 551 630 l 1,8,-1
 204 630 l 1,9,-1
 204 420 l 1,10,-1
 515 420 l 1,11,-1
 515 317 l 1,12,-1
 204 317 l 1,13,-1
 204 -7 l 2,14,15
 204 -69 204 -69 189 -113 c 128,-1,16
 174 -157 174 -157 147.5 -180 c 128,-1,17
 121 -203 121 -203 92.5 -213 c 128,-1,18
 64 -223 64 -223 33 -223 c 0,19,20
 7 -223 7 -223 -43 -216 c 1,21,-1
 -43 -113 l 1,0,1
EndSplineSet
EndChar

StartChar: florin
Encoding: 402 402 340
Width: 347
GlyphClass: 2
Flags: W
LayerCount: 2
Fore
SplineSet
-23 -113 m 1,0,1
 8 -119 8 -119 29 -119 c 0,2,3
 104 -119 104 -119 104 -6 c 2,4,-1
 104 436 l 1,5,-1
 22 436 l 1,6,-1
 22 536 l 1,7,-1
 104 536 l 1,8,-1
 104 594 l 2,9,10
 104 676 104 676 145 717.5 c 128,-1,11
 186 759 186 759 261 759 c 2,12,-1
 347 759 l 1,13,-1
 347 660 l 1,14,-1
 279 660 l 2,15,16
 222 660 222 660 222 585 c 2,17,-1
 222 536 l 1,18,-1
 335 536 l 1,19,-1
 335 436 l 1,20,-1
 222 436 l 1,21,-1
 222 -6 l 2,22,23
 222 -123 222 -123 173 -173 c 128,-1,24
 124 -223 124 -223 53 -223 c 0,25,26
 26 -223 26 -223 -23 -216 c 1,27,-1
 -23 -113 l 1,0,1
EndSplineSet
EndChar

StartChar: uni0194
Encoding: 404 404 342
Width: 636
GlyphClass: 2
Flags: W
LayerCount: 2
Fore
SplineSet
1 735 m 1,0,-1
 132 735 l 1,1,-1
 318 187 l 1,2,-1
 320 187 l 1,3,-1
 504 735 l 1,4,-1
 636 735 l 1,5,-1
 411 129 l 1,6,7
 498 22 498 22 498 -59 c 0,8,9
 498 -130 498 -130 447 -176.5 c 128,-1,10
 396 -223 396 -223 318 -223 c 0,11,12
 238 -223 238 -223 186.5 -178.5 c 128,-1,13
 135 -134 135 -134 135 -59 c 0,14,15
 135 -33 135 -33 143 -6.5 c 128,-1,16
 151 20 151 20 170 50 c 128,-1,17
 189 80 189 80 196.5 90.5 c 128,-1,18
 204 101 204 101 226 129 c 1,19,-1
 1 735 l 1,0,-1
257 -54 m 0,20,21
 257 -85 257 -85 274 -105 c 128,-1,22
 291 -125 291 -125 318 -125 c 256,23,24
 345 -125 345 -125 361 -105 c 128,-1,25
 377 -85 377 -85 377 -53 c 0,26,27
 377 1 377 1 317 68 c 1,28,29
 257 7 257 7 257 -54 c 0,20,21
EndSplineSet
EndChar

StartChar: uni0195
Encoding: 405 405 343
Width: 882
GlyphClass: 2
Flags: W
LayerCount: 2
Fore
SplineSet
70 0 m 1,0,-1
 70 759 l 1,1,-1
 187 759 l 1,2,-1
 187 481 l 1,3,-1
 188 481 l 1,4,5
 210 513 210 513 246.5 532.5 c 128,-1,6
 283 552 283 552 327 552 c 0,7,8
 361 552 361 552 390 542.5 c 128,-1,9
 419 533 419 533 447 512 c 128,-1,10
 475 491 475 491 490.5 448 c 128,-1,11
 506 405 506 405 506 345 c 2,12,-1
 506 195 l 2,13,14
 506 84 506 84 609 84 c 0,15,16
 705 84 705 84 705 196 c 2,17,-1
 705 536 l 1,18,-1
 824 536 l 1,19,-1
 824 177 l 2,20,21
 824 79 824 79 763 31 c 128,-1,22
 702 -17 702 -17 609 -17 c 0,23,24
 565 -17 565 -17 528.5 -8 c 128,-1,25
 492 1 492 1 459.5 21.5 c 128,-1,26
 427 42 427 42 408 81 c 128,-1,27
 389 120 389 120 389 174 c 2,28,-1
 389 330 l 2,29,30
 389 453 389 453 306 453 c 0,31,32
 256 453 256 453 221.5 409 c 128,-1,33
 187 365 187 365 187 307 c 2,34,-1
 187 0 l 1,35,-1
 70 0 l 1,0,-1
EndSplineSet
EndChar

StartChar: uni0196
Encoding: 406 406 344
Width: 358
GlyphClass: 2
Flags: W
LayerCount: 2
Fore
SplineSet
84 164 m 2,0,-1
 84 735 l 1,1,-1
 205 735 l 1,2,-1
 205 169 l 2,3,4
 205 126 205 126 220 106.5 c 128,-1,5
 235 87 235 87 269 87 c 0,6,7
 310 87 310 87 345 94 c 1,8,-1
 345 -8 l 1,9,10
 286 -17 286 -17 245 -17 c 0,11,12
 175 -17 175 -17 129.5 26 c 128,-1,13
 84 69 84 69 84 164 c 2,0,-1
EndSplineSet
EndChar

StartChar: uni0197
Encoding: 407 407 345
Width: 287
GlyphClass: 2
Flags: W
LayerCount: 2
Fore
SplineSet
14 322 m 1,0,-1
 14 417 l 1,1,-1
 83 417 l 1,2,-1
 83 735 l 1,3,-1
 205 735 l 1,4,-1
 205 417 l 1,5,-1
 275 417 l 1,6,-1
 275 322 l 1,7,-1
 205 322 l 1,8,-1
 205 0 l 1,9,-1
 83 0 l 1,10,-1
 83 322 l 1,11,-1
 14 322 l 1,0,-1
EndSplineSet
EndChar

StartChar: uni0198
Encoding: 408 408 346
Width: 650
GlyphClass: 2
Flags: W
LayerCount: 2
Fore
SplineSet
83 0 m 1,0,-1
 83 735 l 1,1,-1
 205 735 l 1,2,-1
 205 402 l 1,3,-1
 207 402 l 1,4,-1
 448 681 l 2,5,6
 509 752 509 752 606 752 c 0,7,8
 660 752 660 752 697 741 c 1,9,-1
 697 636 l 1,10,11
 661 647 661 647 610 647 c 0,12,13
 570 647 570 647 549 623 c 2,14,-1
 363 414 l 1,15,-1
 655 0 l 1,16,-1
 507 0 l 1,17,-1
 286 327 l 1,18,-1
 205 235 l 1,19,-1
 205 0 l 1,20,-1
 83 0 l 1,0,-1
EndSplineSet
EndChar

StartChar: uni0199
Encoding: 409 409 347
Width: 528
GlyphClass: 2
Flags: W
LayerCount: 2
Fore
SplineSet
71 0 m 1,0,-1
 71 617 l 2,1,2
 71 700 71 700 121 743 c 128,-1,3
 171 786 171 786 251 786 c 0,4,5
 271 786 271 786 343 781 c 1,6,-1
 343 678 l 1,7,8
 294 683 294 683 273 683 c 0,9,10
 237 683 237 683 212.5 659.5 c 128,-1,11
 188 636 188 636 188 595 c 2,12,-1
 188 322 l 1,13,-1
 378 536 l 1,14,-1
 526 536 l 1,15,-1
 327 318 l 1,16,-1
 538 0 l 1,17,-1
 400 0 l 1,18,-1
 252 235 l 1,19,-1
 188 164 l 1,20,-1
 188 0 l 1,21,-1
 71 0 l 1,0,-1
EndSplineSet
EndChar

StartChar: uni019A
Encoding: 410 410 348
Width: 265
GlyphClass: 2
Flags: W
LayerCount: 2
Fore
SplineSet
-5 372 m 1,0,-1
 -5 468 l 1,1,-1
 74 468 l 1,2,-1
 74 759 l 1,3,-1
 192 759 l 1,4,-1
 192 468 l 1,5,-1
 271 468 l 1,6,-1
 271 372 l 1,7,-1
 192 372 l 1,8,-1
 192 0 l 1,9,-1
 74 0 l 1,10,-1
 74 372 l 1,11,-1
 -5 372 l 1,0,-1
EndSplineSet
EndChar

StartChar: uni019B
Encoding: 411 411 349
Width: 518
GlyphClass: 2
Flags: W
LayerCount: 2
Fore
SplineSet
6 0 m 1,0,-1
 206 523 l 1,1,-1
 198 547 l 1,2,-1
 89 465 l 1,3,-1
 33 538 l 1,4,-1
 152 625 l 1,5,6
 130 656 130 656 79 656 c 2,7,-1
 59 656 l 1,8,-1
 59 755 l 1,9,-1
 98 755 l 2,10,11
 191 755 191 755 243 690 c 1,12,-1
 341 761 l 1,13,-1
 397 689 l 1,14,-1
 289 612 l 1,15,-1
 294 601 l 1,16,-1
 514 0 l 1,17,-1
 385 0 l 1,18,-1
 301 274 l 2,19,20
 273 368 273 368 266 399 c 1,21,-1
 263 399 l 1,22,23
 253 356 253 356 228 274 c 2,24,-1
 136 0 l 1,25,-1
 6 0 l 1,0,-1
EndSplineSet
EndChar

StartChar: uni019C
Encoding: 412 412 350
Width: 960
GlyphClass: 2
Flags: W
LayerCount: 2
Fore
SplineSet
82 249 m 2,0,-1
 82 735 l 1,1,-1
 203 735 l 1,2,-1
 203 235 l 2,3,4
 203 87 203 87 292 87 c 0,5,6
 347 87 347 87 383 140.5 c 128,-1,7
 419 194 419 194 419 268 c 2,8,-1
 419 735 l 1,9,-1
 542 735 l 1,10,-1
 542 231 l 2,11,12
 542 154 542 154 567.5 120.5 c 128,-1,13
 593 87 593 87 631 87 c 0,14,15
 689 87 689 87 722.5 137 c 128,-1,16
 756 187 756 187 756 266 c 2,17,-1
 756 735 l 1,18,-1
 878 735 l 1,19,-1
 878 0 l 1,20,-1
 762 0 l 1,21,-1
 762 71 l 1,22,-1
 760 71 l 1,23,24
 738 31 738 31 694.5 6.5 c 128,-1,25
 651 -18 651 -18 604 -18 c 0,26,27
 486 -18 486 -18 449 87 c 1,28,29
 427 43 427 43 380.5 13 c 128,-1,30
 334 -17 334 -17 265 -17 c 0,31,32
 212 -17 212 -17 175 3 c 128,-1,33
 138 23 138 23 118 61 c 128,-1,34
 98 99 98 99 90 144.5 c 128,-1,35
 82 190 82 190 82 249 c 2,0,-1
EndSplineSet
EndChar

StartChar: uni019D
Encoding: 413 413 351
Width: 710
GlyphClass: 2
Flags: W
LayerCount: 2
Fore
SplineSet
83 735 m 1,0,-1
 211 735 l 1,1,-1
 449 306 l 1,2,-1
 514 182 l 1,3,-1
 518 182 l 1,4,5
 505 325 505 325 505 394 c 2,6,-1
 505 735 l 1,7,-1
 628 735 l 1,8,-1
 628 0 l 1,9,-1
 500 0 l 1,10,-1
 262 424 l 1,11,-1
 196 551 l 1,12,-1
 191 551 l 1,13,14
 205 431 205 431 205 339 c 2,15,-1
 205 -1 l 2,16,17
 205 -119 205 -119 154 -171 c 128,-1,18
 103 -223 103 -223 31 -223 c 0,19,20
 -6 -223 -6 -223 -41 -216 c 1,21,-1
 -41 -113 l 1,22,23
 -23 -118 -23 -118 7 -118 c 0,24,25
 47 -118 47 -118 65 -89.5 c 128,-1,26
 83 -61 83 -61 83 0 c 2,27,-1
 83 735 l 1,0,-1
EndSplineSet
EndChar

StartChar: uni019E
Encoding: 414 414 352
Width: 571
GlyphClass: 2
Flags: W
LayerCount: 2
Fore
SplineSet
64 0 m 1,0,-1
 64 536 l 1,1,-1
 177 536 l 1,2,-1
 177 470 l 1,3,-1
 179 470 l 1,4,5
 224 552 224 552 327 552 c 0,6,7
 502 552 502 552 502 345 c 2,8,-1
 502 -219 l 1,9,-1
 385 -219 l 1,10,-1
 385 330 l 2,11,12
 385 453 385 453 301 453 c 0,13,14
 251 453 251 453 216.5 411.5 c 128,-1,15
 182 370 182 370 182 310 c 2,16,-1
 182 0 l 1,17,-1
 64 0 l 1,0,-1
EndSplineSet
EndChar

StartChar: uni019F
Encoding: 415 415 353
Width: 709
GlyphClass: 2
Flags: W
LayerCount: 2
Fore
SplineSet
39 367 m 0,0,1
 39 540 39 540 125.5 646 c 128,-1,2
 212 752 212 752 355 752 c 256,3,4
 498 752 498 752 584.5 646.5 c 128,-1,5
 671 541 671 541 671 367 c 256,6,7
 671 193 671 193 584 88 c 128,-1,8
 497 -17 497 -17 355 -17 c 0,9,10
 212 -17 212 -17 125.5 87.5 c 128,-1,11
 39 192 39 192 39 367 c 0,0,1
541 315 m 1,12,-1
 168 315 l 1,13,14
 178 208 178 208 227 148 c 128,-1,15
 276 88 276 88 355 88 c 0,16,17
 433 88 433 88 482.5 148.5 c 128,-1,18
 532 209 532 209 541 315 c 1,12,-1
167 411 m 1,19,-1
 542 411 l 1,20,21
 532 520 532 520 484 583.5 c 128,-1,22
 436 647 436 647 355 647 c 256,23,24
 274 647 274 647 225 584 c 128,-1,25
 176 521 176 521 167 411 c 1,19,-1
EndSplineSet
EndChar

StartChar: uni01A2
Encoding: 418 418 356
Width: 964
GlyphClass: 2
Flags: W
LayerCount: 2
Fore
SplineSet
39 365 m 0,0,1
 39 541 39 541 126 646.5 c 128,-1,2
 213 752 213 752 352 752 c 0,3,4
 390 752 390 752 491.5 732 c 128,-1,5
 593 712 593 712 651 712 c 0,6,7
 752 712 752 712 882 735 c 1,8,-1
 882 0 l 1,9,-1
 761 0 l 1,10,-1
 761 616 l 1,11,12
 713 607 713 607 650 607 c 0,13,14
 610 607 610 607 556 615 c 1,15,-1
 556 61 l 1,16,17
 473 -17 473 -17 352 -17 c 0,18,19
 213 -17 213 -17 126 88 c 128,-1,20
 39 193 39 193 39 365 c 0,0,1
165 365 m 0,21,22
 165 237 165 237 216 162 c 128,-1,23
 267 87 267 87 352 87 c 0,24,25
 392 87 392 87 433 110 c 1,26,-1
 433 633 l 1,27,28
 383 648 383 648 352 648 c 0,29,30
 268 648 268 648 216.5 572 c 128,-1,31
 165 496 165 496 165 365 c 0,21,22
EndSplineSet
EndChar

StartChar: uni01A3
Encoding: 419 419 357
Width: 764
GlyphClass: 2
Flags: W
LayerCount: 2
Fore
SplineSet
33 268 m 256,0,1
 33 401 33 401 99.5 476.5 c 128,-1,2
 166 552 166 552 281 552 c 0,3,4
 322 552 322 552 400 537.5 c 128,-1,5
 478 523 478 523 518 523 c 0,6,7
 607 523 607 523 701 542 c 1,8,-1
 701 0 l 1,9,-1
 584 0 l 1,10,-1
 584 427 l 1,11,12
 558 423 558 423 517 423 c 0,13,14
 482 423 482 423 453 427 c 1,15,-1
 453 54 l 1,16,17
 389 -17 389 -17 281 -17 c 0,18,19
 167 -17 167 -17 100 59 c 128,-1,20
 33 135 33 135 33 268 c 256,0,1
154 268 m 0,21,22
 154 180 154 180 189 132 c 128,-1,23
 224 84 224 84 281 84 c 0,24,25
 305 84 305 84 335 111 c 1,26,-1
 335 445 l 1,27,28
 301 453 301 453 281 453 c 0,29,30
 221 453 221 453 187.5 403.5 c 128,-1,31
 154 354 154 354 154 268 c 0,21,22
EndSplineSet
EndChar

StartChar: uni01A5
Encoding: 421 421 359
Width: 584
GlyphClass: 2
Flags: W
LayerCount: 2
Fore
SplineSet
186 269 m 0,0,1
 186 183 186 183 219 133.5 c 128,-1,2
 252 84 252 84 308 84 c 0,3,4
 363 84 363 84 397 133 c 128,-1,5
 431 182 431 182 431 269 c 0,6,7
 431 352 431 352 398.5 402.5 c 128,-1,8
 366 453 366 453 308 453 c 0,9,10
 252 453 252 453 219 402 c 128,-1,11
 186 351 186 351 186 269 c 0,0,1
70 -219 m 1,12,-1
 70 596 l 2,13,14
 70 680 70 680 121 723.5 c 128,-1,15
 172 767 172 767 249 767 c 0,16,17
 264 767 264 767 338 762 c 1,18,-1
 338 659 l 1,19,20
 297 663 297 663 270 663 c 0,21,22
 232 663 232 663 209 638.5 c 128,-1,23
 186 614 186 614 186 575 c 2,24,-1
 186 471 l 1,25,26
 203 503 203 503 239.5 527.5 c 128,-1,27
 276 552 276 552 325 552 c 0,28,29
 423 552 423 552 487 476 c 128,-1,30
 551 400 551 400 551 269 c 0,31,32
 551 194 551 194 530 136.5 c 128,-1,33
 509 79 509 79 475 47 c 128,-1,34
 441 15 441 15 402.5 -1 c 128,-1,35
 364 -17 364 -17 324 -17 c 0,36,37
 270 -17 270 -17 236 7.5 c 128,-1,38
 202 32 202 32 187 61 c 1,39,-1
 187 -219 l 1,40,-1
 70 -219 l 1,12,-1
EndSplineSet
EndChar

StartChar: uni01A6
Encoding: 422 422 360
Width: 652
GlyphClass: 2
Flags: W
LayerCount: 2
Fore
SplineSet
198 320 m 1,0,-1
 347 320 l 2,1,2
 470 320 470 320 470 434 c 0,3,4
 470 537 470 537 348 537 c 2,5,-1
 198 537 l 1,6,-1
 198 320 l 1,0,-1
76 0 m 1,7,-1
 76 735 l 1,8,-1
 198 735 l 1,9,-1
 198 641 l 1,10,-1
 370 641 l 2,11,12
 481 641 481 641 538.5 585 c 128,-1,13
 596 529 596 529 596 444 c 0,14,15
 596 321 596 321 479 262 c 1,16,17
 498 249 498 249 511 236 c 128,-1,18
 524 223 524 223 532.5 204 c 128,-1,19
 541 185 541 185 544 172.5 c 128,-1,20
 547 160 547 160 554 132 c 0,21,22
 584 8 584 8 638 -85 c 1,23,-1
 502 -85 l 1,24,25
 493 -72 493 -72 486 -57 c 128,-1,26
 479 -42 479 -42 473.5 -30.5 c 128,-1,27
 468 -19 468 -19 462 -1.5 c 128,-1,28
 456 16 456 16 453 24.5 c 128,-1,29
 450 33 450 33 444.5 52.5 c 128,-1,30
 439 72 439 72 437.5 76.5 c 128,-1,31
 436 81 436 81 430.5 102 c 128,-1,32
 425 123 425 123 425 125 c 0,33,34
 412 174 412 174 395 195.5 c 128,-1,35
 378 217 378 217 338 217 c 2,36,-1
 198 217 l 1,37,-1
 198 0 l 1,38,-1
 76 0 l 1,7,-1
EndSplineSet
EndChar

StartChar: uni01A7
Encoding: 423 423 361
Width: 605
GlyphClass: 2
Flags: W
LayerCount: 2
Fore
SplineSet
30 200 m 0,0,1
 30 245 30 245 46.5 281.5 c 128,-1,2
 63 318 63 318 94.5 342 c 128,-1,3
 126 366 126 366 158 381.5 c 128,-1,4
 190 397 190 397 234 412 c 0,5,6
 339 446 339 446 367 461 c 0,7,8
 431 495 431 495 431 550 c 0,9,10
 431 594 431 594 396 620.5 c 128,-1,11
 361 647 361 647 301 647 c 0,12,13
 205 647 205 647 141 561 c 1,14,-1
 38 596 l 1,15,16
 71 663 71 663 138 707.5 c 128,-1,17
 205 752 205 752 300 752 c 0,18,19
 415 752 415 752 486.5 696 c 128,-1,20
 558 640 558 640 558 549 c 0,21,22
 558 519 558 519 550.5 493.5 c 128,-1,23
 543 468 543 468 533 450.5 c 128,-1,24
 523 433 523 433 501 415.5 c 128,-1,25
 479 398 479 398 465.5 388.5 c 128,-1,26
 452 379 452 379 421 366 c 128,-1,27
 390 353 390 353 376.5 348.5 c 128,-1,28
 363 344 363 344 329 333 c 0,29,30
 318 329 318 329 312 327 c 0,31,32
 275 314 275 314 252.5 304.5 c 128,-1,33
 230 295 230 295 205 279.5 c 128,-1,34
 180 264 180 264 168.5 243 c 128,-1,35
 157 222 157 222 157 195 c 0,36,37
 157 148 157 148 195 117.5 c 128,-1,38
 233 87 233 87 294 87 c 0,39,40
 348 87 348 87 399 117.5 c 128,-1,41
 450 148 450 148 476 192 c 1,42,-1
 582 155 l 1,43,44
 546 77 546 77 470 30 c 128,-1,45
 394 -17 394 -17 296 -17 c 0,46,47
 179 -17 179 -17 104.5 40.5 c 128,-1,48
 30 98 30 98 30 200 c 0,0,1
EndSplineSet
EndChar

StartChar: uni01A8
Encoding: 424 424 362
Width: 490
GlyphClass: 2
Flags: W
LayerCount: 2
Fore
SplineSet
29 145 m 0,0,1
 29 178 29 178 43.5 204.5 c 128,-1,2
 58 231 58 231 84.5 250 c 128,-1,3
 111 269 111 269 135.5 280.5 c 128,-1,4
 160 292 160 292 194 303 c 0,5,6
 277 329 277 329 299 346 c 0,7,8
 325 365 325 365 325 392 c 0,9,10
 325 421 325 421 302 437 c 128,-1,11
 279 453 279 453 240 453 c 0,12,13
 165 453 165 453 111 381 c 1,14,-1
 32 429 l 1,15,16
 60 482 60 482 116 517 c 128,-1,17
 172 552 172 552 243 552 c 0,18,19
 329 552 329 552 387 509 c 128,-1,20
 445 466 445 466 445 391 c 0,21,22
 445 358 445 358 432 332 c 128,-1,23
 419 306 419 306 394 287.5 c 128,-1,24
 369 269 369 269 345.5 258.5 c 128,-1,25
 322 248 322 248 289 237 c 0,26,27
 282 235 282 235 266.5 230 c 128,-1,28
 251 225 251 225 243.5 222.5 c 128,-1,29
 236 220 236 220 223 215 c 128,-1,30
 210 210 210 210 203 206.5 c 128,-1,31
 196 203 196 203 186 197.5 c 128,-1,32
 176 192 176 192 170.5 187 c 128,-1,33
 165 182 165 182 159.5 175.5 c 128,-1,34
 154 169 154 169 152 161 c 128,-1,35
 150 153 150 153 150 145 c 0,36,37
 150 116 150 116 173.5 99.5 c 128,-1,38
 197 83 197 83 238 83 c 0,39,40
 324 83 324 83 381 161 c 1,41,-1
 466 112 l 1,42,43
 434 56 434 56 374 19.5 c 128,-1,44
 314 -17 314 -17 238 -17 c 0,45,46
 136 -17 136 -17 82.5 30 c 128,-1,47
 29 77 29 77 29 145 c 0,0,1
EndSplineSet
EndChar

StartChar: uni01A9
Encoding: 425 425 363
Width: 619
GlyphClass: 2
Flags: W
LayerCount: 2
Fore
SplineSet
74 0 m 1,0,-1
 74 80 l 1,1,-1
 334 369 l 1,2,-1
 74 655 l 1,3,-1
 74 735 l 1,4,-1
 566 735 l 1,5,-1
 566 629 l 1,6,-1
 246 629 l 1,7,-1
 473 369 l 1,8,-1
 246 104 l 1,9,-1
 572 104 l 1,10,-1
 572 0 l 1,11,-1
 74 0 l 1,0,-1
EndSplineSet
EndChar

StartChar: uni01AA
Encoding: 426 426 364
Width: 445
GlyphClass: 2
Flags: W
LayerCount: 2
Fore
SplineSet
52 597 m 0,0,1
 52 569 52 569 70 553 c 128,-1,2
 88 537 88 537 112 537 c 0,3,4
 154 537 154 537 180 561 c 1,5,6
 180 604 180 604 164 631 c 128,-1,7
 148 658 148 658 114 658 c 0,8,9
 88 658 88 658 70 640.5 c 128,-1,10
 52 623 52 623 52 597 c 0,0,1
-59 593 m 0,11,12
 -59 664 -59 664 -10.5 708 c 128,-1,13
 38 752 38 752 116 752 c 0,14,15
 203 752 203 752 249 699.5 c 128,-1,16
 295 647 295 647 295 553 c 2,17,-1
 295 -40 l 2,18,19
 295 -119 295 -119 363 -119 c 0,20,21
 390 -119 390 -119 434 -112 c 1,22,-1
 434 -214 l 1,23,24
 350 -223 350 -223 339 -223 c 0,25,26
 268 -223 268 -223 222.5 -181 c 128,-1,27
 177 -139 177 -139 177 -47 c 2,28,-1
 177 464 l 1,29,30
 151 441 151 441 95 441 c 0,31,32
 29 441 29 441 -15 484 c 128,-1,33
 -59 527 -59 527 -59 593 c 0,11,12
EndSplineSet
EndChar

StartChar: uni01AB
Encoding: 427 427 365
Width: 368
GlyphClass: 2
Flags: W
LayerCount: 2
Fore
SplineSet
17 436 m 1,0,-1
 17 536 l 1,1,-1
 99 536 l 1,2,-1
 99 695 l 1,3,-1
 217 695 l 1,4,-1
 217 536 l 1,5,-1
 339 536 l 1,6,-1
 339 436 l 1,7,-1
 217 436 l 1,8,-1
 217 172 l 2,9,10
 217 134 217 134 232 117 c 128,-1,11
 247 100 247 100 279 100 c 0,12,13
 313 100 313 100 350 106 c 1,14,-1
 350 6 l 2,15,16
 350 -107 350 -107 304 -165 c 128,-1,17
 258 -223 258 -223 174 -223 c 0,18,19
 133 -223 133 -223 98 -216 c 1,20,-1
 98 -112 l 1,21,22
 136 -119 136 -119 160 -119 c 0,23,24
 194 -119 194 -119 215.5 -94 c 128,-1,25
 237 -69 237 -69 237 -14 c 2,26,-1
 237 4 l 1,27,28
 203 8 203 8 187 14 c 0,29,30
 99 45 99 45 99 164 c 2,31,-1
 99 436 l 1,32,-1
 17 436 l 1,0,-1
EndSplineSet
EndChar

StartChar: uni01AC
Encoding: 428 428 366
Width: 619
GlyphClass: 2
Flags: W
LayerCount: 2
Fore
SplineSet
-34 570 m 0,0,1
 -34 655 -34 655 22.5 695 c 128,-1,2
 79 735 79 735 167 735 c 2,3,-1
 610 735 l 1,4,-1
 610 630 l 1,5,-1
 399 630 l 1,6,-1
 399 0 l 1,7,-1
 276 0 l 1,8,-1
 276 630 l 1,9,-1
 168 630 l 2,10,11
 122 630 122 630 98 611.5 c 128,-1,12
 74 593 74 593 74 561 c 0,13,14
 74 534 74 534 79 513 c 1,15,-1
 -28 513 l 1,16,17
 -34 537 -34 537 -34 570 c 0,0,1
EndSplineSet
EndChar

StartChar: uni01AD
Encoding: 429 429 367
Width: 368
GlyphClass: 2
Flags: W
LayerCount: 2
Fore
SplineSet
17 436 m 1,0,-1
 17 536 l 1,1,-1
 99 536 l 1,2,-1
 99 592 l 2,3,4
 99 675 99 675 150 718.5 c 128,-1,5
 201 762 201 762 281 762 c 0,6,7
 299 762 299 762 371 757 c 1,8,-1
 371 654 l 1,9,10
 332 658 332 658 302 658 c 0,11,12
 263 658 263 658 240 635.5 c 128,-1,13
 217 613 217 613 217 576 c 2,14,-1
 217 536 l 1,15,-1
 339 536 l 1,16,-1
 339 436 l 1,17,-1
 217 436 l 1,18,-1
 217 172 l 2,19,20
 217 134 217 134 232 117 c 128,-1,21
 247 100 247 100 279 100 c 2,22,-1
 340 100 l 1,23,-1
 340 0 l 1,24,-1
 264 0 l 2,25,26
 99 0 99 0 99 164 c 2,27,-1
 99 436 l 1,28,-1
 17 436 l 1,0,-1
EndSplineSet
EndChar

StartChar: uni01AE
Encoding: 430 430 368
Width: 565
GlyphClass: 2
Flags: W
LayerCount: 2
Fore
SplineSet
10 630 m 1,0,-1
 10 735 l 1,1,-1
 557 735 l 1,2,-1
 557 630 l 1,3,-1
 345 630 l 1,4,-1
 345 -14 l 2,5,6
 345 -69 345 -69 362.5 -94 c 128,-1,7
 380 -119 380 -119 418 -119 c 0,8,9
 438 -119 438 -119 469 -113 c 1,10,-1
 469 -216 l 1,11,12
 420 -223 420 -223 395 -223 c 0,13,14
 363 -223 363 -223 335 -213.5 c 128,-1,15
 307 -204 307 -204 280.5 -182.5 c 128,-1,16
 254 -161 254 -161 238 -117.5 c 128,-1,17
 222 -74 222 -74 222 -14 c 2,18,-1
 222 630 l 1,19,-1
 10 630 l 1,0,-1
EndSplineSet
EndChar

StartChar: uni01B1
Encoding: 433 433 371
Width: 734
GlyphClass: 2
Flags: W
LayerCount: 2
Fore
SplineSet
39 307 m 0,0,1
 39 411 39 411 91.5 485 c 128,-1,2
 144 559 144 559 238 595 c 1,3,-1
 238 630 l 1,4,-1
 51 630 l 1,5,-1
 51 735 l 1,6,-1
 329 735 l 1,7,-1
 329 527 l 1,8,9
 248 505 248 505 208 445 c 128,-1,10
 168 385 168 385 168 307 c 0,11,12
 168 216 168 216 222 153 c 128,-1,13
 276 90 276 90 367 90 c 0,14,15
 457 90 457 90 512.5 153 c 128,-1,16
 568 216 568 216 568 307 c 0,17,18
 568 382 568 382 528.5 443 c 128,-1,19
 489 504 489 504 406 527 c 1,20,-1
 406 735 l 1,21,-1
 684 735 l 1,22,-1
 684 630 l 1,23,-1
 497 630 l 1,24,-1
 497 595 l 1,25,26
 591 560 591 560 643.5 485.5 c 128,-1,27
 696 411 696 411 696 307 c 0,28,29
 696 166 696 166 607.5 74.5 c 128,-1,30
 519 -17 519 -17 367 -17 c 0,31,32
 216 -17 216 -17 127.5 74.5 c 128,-1,33
 39 166 39 166 39 307 c 0,0,1
EndSplineSet
EndChar

StartChar: uni01B2
Encoding: 434 434 372
Width: 715
GlyphClass: 2
Flags: W
LayerCount: 2
Fore
SplineSet
80 259 m 2,0,-1
 80 735 l 1,1,-1
 203 735 l 1,2,-1
 203 270 l 2,3,4
 203 167 203 167 236 127 c 128,-1,5
 269 87 269 87 335 87 c 0,6,7
 420 87 420 87 484.5 180.5 c 128,-1,8
 549 274 549 274 549 417 c 0,9,10
 549 532 549 532 519.5 589.5 c 128,-1,11
 490 647 490 647 440 647 c 0,12,13
 403 647 403 647 361 634 c 1,14,-1
 361 742 l 1,15,16
 412 752 412 752 457 752 c 0,17,18
 563 752 563 752 619.5 666.5 c 128,-1,19
 676 581 676 581 676 419 c 0,20,21
 676 304 676 304 636.5 206 c 128,-1,22
 597 108 597 108 517.5 45.5 c 128,-1,23
 438 -17 438 -17 335 -17 c 0,24,25
 203 -17 203 -17 141.5 50.5 c 128,-1,26
 80 118 80 118 80 259 c 2,0,-1
EndSplineSet
EndChar

StartChar: uni01B3
Encoding: 435 435 373
Width: 627
GlyphClass: 2
Flags: W
LayerCount: 2
Fore
SplineSet
-2 735 m 1,0,-1
 138 735 l 1,1,-1
 256 508 l 2,2,3
 281 461 281 461 312 394 c 1,4,-1
 316 394 l 1,5,6
 340 446 340 446 374 509 c 2,7,-1
 445 646 l 2,8,9
 498 752 498 752 590 752 c 0,10,11
 619 752 619 752 656 747 c 1,12,-1
 656 644 l 1,13,14
 641 648 641 648 605 648 c 0,15,16
 580 648 580 648 542 581 c 2,17,-1
 375 298 l 1,18,-1
 375 0 l 1,19,-1
 253 0 l 1,20,-1
 253 298 l 1,21,-1
 -2 735 l 1,0,-1
EndSplineSet
EndChar

StartChar: uni01B4
Encoding: 436 436 374
Width: 518
GlyphClass: 2
Flags: W
LayerCount: 2
Fore
SplineSet
7 536 m 1,0,-1
 136 536 l 1,1,-1
 227 261 l 2,2,3
 251 180 251 180 263 136 c 1,4,-1
 266 136 l 1,5,6
 271 159 271 159 302 260 c 2,7,-1
 363 460 l 2,8,9
 388 548 388 548 497 548 c 0,10,11
 514 548 514 548 569 541 c 1,12,-1
 569 436 l 1,13,14
 539 444 539 444 521 444 c 0,15,16
 479 444 479 444 466 408 c 2,17,-1
 295 -62 l 2,18,19
 265 -146 265 -146 217.5 -182.5 c 128,-1,20
 170 -219 170 -219 101 -219 c 2,21,-1
 62 -219 l 1,22,-1
 62 -121 l 1,23,-1
 82 -121 l 2,24,25
 123 -121 123 -121 150 -100.5 c 128,-1,26
 177 -80 177 -80 192 -31 c 2,27,-1
 207 13 l 1,28,-1
 7 536 l 1,0,-1
EndSplineSet
EndChar

StartChar: uni01B5
Encoding: 437 437 375
Width: 603
GlyphClass: 2
Flags: W
LayerCount: 2
Fore
SplineSet
88 314 m 1,0,-1
 88 411 l 1,1,-1
 259 411 l 1,2,-1
 413 630 l 1,3,-1
 62 630 l 1,4,-1
 62 735 l 1,5,-1
 564 735 l 1,6,-1
 564 644 l 1,7,-1
 400 411 l 1,8,-1
 501 411 l 1,9,-1
 501 314 l 1,10,-1
 330 314 l 1,11,-1
 183 104 l 1,12,-1
 574 104 l 1,13,-1
 574 0 l 1,14,-1
 32 0 l 1,15,-1
 32 88 l 1,16,-1
 190 314 l 1,17,-1
 88 314 l 1,0,-1
EndSplineSet
EndChar

StartChar: uni01B6
Encoding: 438 438 376
Width: 489
GlyphClass: 2
Flags: W
LayerCount: 2
Fore
SplineSet
24 0 m 1,0,-1
 24 78 l 1,1,-1
 138 225 l 1,2,-1
 61 225 l 1,3,-1
 61 321 l 1,4,-1
 213 321 l 1,5,-1
 301 436 l 1,6,-1
 46 436 l 1,7,-1
 46 536 l 1,8,-1
 454 536 l 1,9,-1
 454 463 l 1,10,-1
 346 321 l 1,11,-1
 423 321 l 1,12,-1
 423 225 l 1,13,-1
 270 225 l 1,14,-1
 176 100 l 1,15,-1
 466 100 l 1,16,-1
 466 0 l 1,17,-1
 24 0 l 1,0,-1
EndSplineSet
EndChar

StartChar: uni01B7
Encoding: 439 439 377
Width: 697
GlyphClass: 2
Flags: W
LayerCount: 2
Fore
SplineSet
46 -8 m 1,0,-1
 151 33 l 1,1,2
 170 -27 170 -27 218 -70.5 c 128,-1,3
 266 -114 266 -114 339 -114 c 0,4,5
 425 -114 425 -114 476 -58.5 c 128,-1,6
 527 -3 527 -3 527 88 c 0,7,8
 527 180 527 180 468.5 236 c 128,-1,9
 410 292 410 292 308 292 c 2,10,-1
 207 292 l 1,11,-1
 207 387 l 1,12,-1
 423 630 l 1,13,-1
 78 630 l 1,14,-1
 78 735 l 1,15,-1
 608 735 l 1,16,-1
 608 664 l 1,17,-1
 362 393 l 1,18,-1
 376 392 l 1,19,20
 501 375 501 375 577 295 c 128,-1,21
 653 215 653 215 653 88 c 0,22,23
 653 -47 653 -47 566 -132.5 c 128,-1,24
 479 -218 479 -218 343 -218 c 0,25,26
 280 -218 280 -218 227.5 -200 c 128,-1,27
 175 -182 175 -182 140 -151 c 128,-1,28
 105 -120 105 -120 82 -84.5 c 128,-1,29
 59 -49 59 -49 46 -8 c 1,0,-1
EndSplineSet
EndChar

StartChar: uni01B8
Encoding: 440 440 378
Width: 697
GlyphClass: 2
Flags: W
LayerCount: 2
Fore
SplineSet
44 88 m 0,0,1
 44 215 44 215 122 297 c 128,-1,2
 200 379 200 379 321 392 c 1,3,-1
 335 393 l 1,4,-1
 90 664 l 1,5,-1
 90 735 l 1,6,-1
 619 735 l 1,7,-1
 619 630 l 1,8,-1
 274 630 l 1,9,-1
 490 387 l 1,10,-1
 490 292 l 1,11,-1
 390 292 l 2,12,13
 288 292 288 292 229 236 c 128,-1,14
 170 180 170 180 170 88 c 0,15,16
 170 -3 170 -3 221 -58.5 c 128,-1,17
 272 -114 272 -114 358 -114 c 0,18,19
 431 -114 431 -114 479 -70.5 c 128,-1,20
 527 -27 527 -27 545 33 c 1,21,-1
 651 -8 l 1,22,23
 638 -49 638 -49 615 -84.5 c 128,-1,24
 592 -120 592 -120 557 -151 c 128,-1,25
 522 -182 522 -182 469.5 -200 c 128,-1,26
 417 -218 417 -218 354 -218 c 0,27,28
 217 -218 217 -218 130.5 -132.5 c 128,-1,29
 44 -47 44 -47 44 88 c 0,0,1
EndSplineSet
EndChar

StartChar: uni01B9
Encoding: 441 441 379
Width: 579
GlyphClass: 2
Flags: W
LayerCount: 2
Fore
SplineSet
40 27 m 0,0,1
 40 119 40 119 101 187.5 c 128,-1,2
 162 256 162 256 255 264 c 1,3,-1
 267 264 l 1,4,-1
 73 464 l 1,5,-1
 73 536 l 1,6,-1
 510 536 l 1,7,-1
 510 436 l 1,8,-1
 247 436 l 1,9,-1
 414 257 l 1,10,-1
 414 177 l 1,11,-1
 322 177 l 2,12,13
 244 177 244 177 202.5 134.5 c 128,-1,14
 161 92 161 92 161 27 c 0,15,16
 161 -37 161 -37 198 -80 c 128,-1,17
 235 -123 235 -123 298 -123 c 0,18,19
 352 -123 352 -123 387.5 -88.5 c 128,-1,20
 423 -54 423 -54 437 -5 c 1,21,-1
 541 -33 l 1,22,23
 518 -114 518 -114 455 -168.5 c 128,-1,24
 392 -223 392 -223 294 -223 c 0,25,26
 179 -223 179 -223 109.5 -151.5 c 128,-1,27
 40 -80 40 -80 40 27 c 0,0,1
EndSplineSet
EndChar

StartChar: uni01BA
Encoding: 442 442 380
Width: 448
GlyphClass: 2
Flags: W
LayerCount: 2
Fore
SplineSet
36 -61 m 0,0,1
 36 -23 36 -23 61 9.5 c 128,-1,2
 86 42 86 42 122 63.5 c 128,-1,3
 158 85 158 85 194 105 c 128,-1,4
 230 125 230 125 255.5 144.5 c 128,-1,5
 281 164 281 164 281 184 c 0,6,7
 281 209 281 209 246.5 225 c 128,-1,8
 212 241 212 241 153 241 c 2,9,-1
 118 241 l 1,10,-1
 118 302 l 1,11,-1
 261 436 l 1,12,-1
 40 436 l 1,13,-1
 40 536 l 1,14,-1
 413 536 l 1,15,-1
 413 458 l 1,16,-1
 250 308 l 1,17,-1
 270 306 l 2,18,19
 326 302 326 302 363 273.5 c 128,-1,20
 400 245 400 245 400 190 c 0,21,22
 400 152 400 152 375 120.5 c 128,-1,23
 350 89 350 89 314.5 67 c 128,-1,24
 279 45 279 45 243 26 c 128,-1,25
 207 7 207 7 182 -13 c 128,-1,26
 157 -33 157 -33 157 -53 c 0,27,28
 157 -102 157 -102 227 -102 c 0,29,30
 267 -102 267 -102 336 -88 c 1,31,-1
 336 -190 l 1,32,33
 260 -203 260 -203 209 -203 c 0,34,35
 133 -203 133 -203 84.5 -165.5 c 128,-1,36
 36 -128 36 -128 36 -61 c 0,0,1
EndSplineSet
EndChar

StartChar: uni01BB
Encoding: 443 443 381
Width: 553
GlyphClass: 2
Flags: W
LayerCount: 2
Fore
SplineSet
98 306 m 1,0,-1
 98 402 l 1,1,-1
 310 402 l 1,2,3
 372 468 372 468 372 543 c 0,4,5
 372 596 372 596 342.5 623.5 c 128,-1,6
 313 651 313 651 274 651 c 0,7,8
 272 651 272 651 271 651 c 0,9,10
 179 650 179 650 144 523 c 1,11,-1
 41 554 l 1,12,13
 60 642 60 642 118.5 697 c 128,-1,14
 177 752 177 752 275 752 c 0,15,16
 374 752 374 752 436 694.5 c 128,-1,17
 498 637 498 637 498 538 c 0,18,19
 498 468 498 468 453 402 c 1,20,-1
 529 402 l 1,21,-1
 529 306 l 1,22,-1
 370 306 l 1,23,24
 362 298 362 298 341.5 278 c 128,-1,25
 321 258 321 258 312.5 250 c 128,-1,26
 304 242 304 242 286.5 224 c 128,-1,27
 269 206 269 206 260 195 c 128,-1,28
 251 184 251 184 238 167.5 c 128,-1,29
 225 151 225 151 215 134.5 c 128,-1,30
 205 118 205 118 197 100 c 1,31,-1
 495 100 l 1,32,-1
 495 0 l 1,33,-1
 48 0 l 1,34,35
 48 80 48 80 92 152.5 c 128,-1,36
 136 225 136 225 214 306 c 1,37,-1
 98 306 l 1,0,-1
EndSplineSet
EndChar

StartChar: uni01BC
Encoding: 444 444 382
Width: 590
GlyphClass: 2
Flags: W
LayerCount: 2
Fore
SplineSet
44 136 m 1,0,-1
 143 172 l 1,1,2
 161 131 161 131 196.5 107.5 c 128,-1,3
 232 84 232 84 281 84 c 0,4,5
 341 84 341 84 377 122.5 c 128,-1,6
 413 161 413 161 413 225 c 0,7,8
 413 282 413 282 371 324 c 128,-1,9
 329 366 329 366 247 366 c 0,10,11
 183 366 183 366 115 350 c 1,12,-1
 152 631 l 1,13,-1
 106 631 l 1,14,-1
 106 735 l 1,15,-1
 504 735 l 1,16,-1
 504 630 l 1,17,-1
 266 630 l 1,18,-1
 244 465 l 1,19,20
 261 467 261 467 294 467 c 0,21,22
 404 467 404 467 472.5 400 c 128,-1,23
 541 333 541 333 541 228 c 0,24,25
 541 180 541 180 525.5 137.5 c 128,-1,26
 510 95 510 95 480 60 c 128,-1,27
 450 25 450 25 400 4 c 128,-1,28
 350 -17 350 -17 286 -17 c 0,29,30
 196 -17 196 -17 132.5 26.5 c 128,-1,31
 69 70 69 70 44 136 c 1,0,-1
EndSplineSet
EndChar

StartChar: uni01BD
Encoding: 445 445 383
Width: 481
GlyphClass: 2
Flags: W
LayerCount: 2
Fore
SplineSet
42 108 m 1,0,-1
 136 149 l 1,1,2
 149 119 149 119 174 101 c 128,-1,3
 199 83 199 83 229 83 c 0,4,5
 269 83 269 83 293.5 106 c 128,-1,6
 318 129 318 129 318 166 c 0,7,8
 318 202 318 202 288.5 229 c 128,-1,9
 259 256 259 256 208 256 c 0,10,11
 162 256 162 256 97 245 c 1,12,-1
 125 437 l 1,13,-1
 91 437 l 1,14,-1
 91 536 l 1,15,-1
 401 536 l 1,16,-1
 401 436 l 1,17,-1
 228 436 l 1,18,-1
 214 356 l 1,19,-1
 238 357 l 2,20,21
 327 357 327 357 382.5 304 c 128,-1,22
 438 251 438 251 438 172 c 0,23,24
 438 95 438 95 385.5 39 c 128,-1,25
 333 -17 333 -17 229 -17 c 0,26,27
 102 -17 102 -17 42 108 c 1,0,-1
EndSplineSet
EndChar

StartChar: uni01BE
Encoding: 446 446 384
Width: 445
GlyphClass: 2
Flags: W
LayerCount: 2
Fore
SplineSet
23 436 m 1,0,-1
 23 536 l 1,1,-1
 99 536 l 1,2,-1
 99 692 l 1,3,-1
 216 692 l 1,4,-1
 216 536 l 1,5,-1
 335 536 l 1,6,-1
 335 436 l 1,7,-1
 216 436 l 1,8,-1
 216 402 l 2,9,10
 216 370 216 370 235.5 346 c 128,-1,11
 255 322 255 322 282.5 306 c 128,-1,12
 310 290 310 290 338.5 271.5 c 128,-1,13
 367 253 367 253 386.5 221.5 c 128,-1,14
 406 190 406 190 406 147 c 0,15,16
 406 80 406 80 361.5 31.5 c 128,-1,17
 317 -17 317 -17 221 -17 c 0,18,19
 97 -17 97 -17 32 100 c 1,20,-1
 115 146 l 1,21,22
 157 84 157 84 217 84 c 0,23,24
 251 84 251 84 270 100.5 c 128,-1,25
 289 117 289 117 289 143 c 0,26,27
 289 167 289 167 269.5 185 c 128,-1,28
 250 203 250 203 222 218.5 c 128,-1,29
 194 234 194 234 166 253 c 128,-1,30
 138 272 138 272 118.5 307.5 c 128,-1,31
 99 343 99 343 99 391 c 2,32,-1
 99 436 l 1,33,-1
 23 436 l 1,0,-1
EndSplineSet
EndChar

StartChar: uni01BF
Encoding: 447 447 385
Width: 576
GlyphClass: 2
Flags: W
LayerCount: 2
Fore
SplineSet
70 -219 m 1,0,-1
 70 536 l 1,1,-1
 184 536 l 1,2,-1
 184 493 l 1,3,4
 240 552 240 552 331 552 c 0,5,6
 434 552 434 552 488.5 493 c 128,-1,7
 543 434 543 434 543 338 c 0,8,9
 543 57 543 57 187 2 c 1,10,-1
 187 -219 l 1,11,-1
 70 -219 l 1,0,-1
187 98 m 1,12,13
 286 113 286 113 355 171 c 128,-1,14
 424 229 424 229 424 324 c 0,15,16
 424 389 424 389 393.5 421 c 128,-1,17
 363 453 363 453 316 453 c 0,18,19
 276 453 276 453 240 431.5 c 128,-1,20
 204 410 204 410 187 379 c 1,21,-1
 187 98 l 1,12,13
EndSplineSet
EndChar

StartChar: uni01C0
Encoding: 448 448 386
Width: 258
GlyphClass: 2
Flags: W
LayerCount: 2
Fore
SplineSet
76 -202 m 1,0,-1
 76 814 l 1,1,-1
 183 814 l 1,2,-1
 183 -202 l 1,3,-1
 76 -202 l 1,0,-1
EndSplineSet
EndChar

StartChar: uni01C1
Encoding: 449 449 387
Width: 452
GlyphClass: 2
Flags: W
LayerCount: 2
Fore
SplineSet
76 -202 m 1,0,-1
 76 814 l 1,1,-1
 183 814 l 1,2,-1
 183 -202 l 1,3,-1
 76 -202 l 1,0,-1
269 -202 m 1,4,-1
 269 814 l 1,5,-1
 376 814 l 1,6,-1
 376 -202 l 1,7,-1
 269 -202 l 1,4,-1
EndSplineSet
EndChar

StartChar: uni01C2
Encoding: 450 450 388
Width: 355
GlyphClass: 2
Flags: W
LayerCount: 2
Fore
SplineSet
15 412 m 1,0,-1
 15 493 l 1,1,-1
 125 493 l 1,2,-1
 125 814 l 1,3,-1
 233 814 l 1,4,-1
 233 493 l 1,5,-1
 341 493 l 1,6,-1
 341 412 l 1,7,-1
 233 412 l 1,8,-1
 233 281 l 1,9,-1
 341 281 l 1,10,-1
 341 198 l 1,11,-1
 233 198 l 1,12,-1
 233 -202 l 1,13,-1
 125 -202 l 1,14,-1
 125 198 l 1,15,-1
 15 198 l 1,16,-1
 15 281 l 1,17,-1
 125 281 l 1,18,-1
 125 412 l 1,19,-1
 15 412 l 1,0,-1
EndSplineSet
EndChar

StartChar: uni01DD
Encoding: 477 477 415
Width: 558
GlyphClass: 2
Flags: W
LayerCount: 2
Fore
SplineSet
33 261 m 0,0,1
 33 294 33 294 34 308 c 1,2,-1
 406 308 l 1,3,4
 406 370 406 370 369.5 413.5 c 128,-1,5
 333 457 333 457 269 457 c 0,6,7
 223 457 223 457 189.5 435 c 128,-1,8
 156 413 156 413 139 379 c 1,9,-1
 42 413 l 1,10,11
 68 473 68 473 125.5 512.5 c 128,-1,12
 183 552 183 552 271 552 c 0,13,14
 385 552 385 552 455 473.5 c 128,-1,15
 525 395 525 395 525 265 c 0,16,17
 525 136 525 136 454.5 59.5 c 128,-1,18
 384 -17 384 -17 276 -17 c 0,19,20
 170 -17 170 -17 101.5 60.5 c 128,-1,21
 33 138 33 138 33 261 c 0,0,1
151 226 m 1,22,23
 151 164 151 164 184 120.5 c 128,-1,24
 217 77 217 77 276 77 c 0,25,26
 334 77 334 77 369 120.5 c 128,-1,27
 404 164 404 164 406 226 c 1,28,-1
 151 226 l 1,22,23
EndSplineSet
EndChar

StartChar: uni01E4
Encoding: 484 484 422
Width: 725
GlyphClass: 2
Flags: W
LayerCount: 2
Fore
SplineSet
39 368 m 0,0,1
 39 474 39 474 75.5 560 c 128,-1,2
 112 646 112 646 189.5 699 c 128,-1,3
 267 752 267 752 373 752 c 0,4,5
 427 752 427 752 473.5 733.5 c 128,-1,6
 520 715 520 715 552 686.5 c 128,-1,7
 584 658 584 658 603.5 631 c 128,-1,8
 623 604 623 604 637 576 c 1,9,-1
 532 542 l 1,10,11
 517 564 517 564 508.5 574.5 c 128,-1,12
 500 585 500 585 479 606 c 128,-1,13
 458 627 458 627 431.5 637 c 128,-1,14
 405 647 405 647 373 647 c 0,15,16
 276 647 276 647 220.5 571.5 c 128,-1,17
 165 496 165 496 165 368 c 0,18,19
 165 241 165 241 220.5 164.5 c 128,-1,20
 276 88 276 88 364 88 c 0,21,22
 410 88 410 88 449.5 108.5 c 128,-1,23
 489 129 489 129 511 170 c 1,24,-1
 336 170 l 1,25,-1
 336 246 l 1,26,-1
 537 246 l 1,27,-1
 540 277 l 1,28,-1
 540 309 l 1,29,-1
 359 309 l 1,30,-1
 359 411 l 1,31,-1
 658 411 l 1,32,-1
 658 246 l 1,33,-1
 718 246 l 1,34,-1
 718 170 l 1,35,-1
 658 170 l 1,36,-1
 658 0 l 1,37,-1
 573 0 l 1,38,-1
 562 75 l 1,39,40
 502 -17 502 -17 363 -17 c 256,41,42
 224 -17 224 -17 131.5 86.5 c 128,-1,43
 39 190 39 190 39 368 c 0,0,1
EndSplineSet
EndChar

StartChar: uni01E5
Encoding: 485 485 423
Width: 572
GlyphClass: 2
Flags: W
LayerCount: 2
Fore
SplineSet
36 295 m 0,0,1
 36 409 36 409 99 480.5 c 128,-1,2
 162 552 162 552 259 552 c 0,3,4
 308 552 308 552 342.5 528 c 128,-1,5
 377 504 377 504 389 476 c 1,6,-1
 389 536 l 1,7,-1
 506 536 l 1,8,-1
 506 98 l 2,9,10
 506 42 506 42 503 6 c 1,11,-1
 568 6 l 1,12,-1
 568 -65 l 1,13,-1
 491 -65 l 1,14,15
 467 -142 467 -142 414 -182.5 c 128,-1,16
 361 -223 361 -223 266 -223 c 0,17,18
 132 -223 132 -223 56 -119 c 1,19,-1
 134 -65 l 1,20,21
 184 -128 184 -128 268 -128 c 0,22,23
 335 -128 335 -128 369 -65 c 1,24,-1
 199 -65 l 1,25,-1
 199 6 l 1,26,-1
 386 6 l 1,27,28
 390 33 390 33 390 68 c 2,29,-1
 390 112 l 1,30,31
 373 82 373 82 336 62.5 c 128,-1,32
 299 43 299 43 259 43 c 0,33,34
 163 43 163 43 99.5 110.5 c 128,-1,35
 36 178 36 178 36 295 c 0,0,1
156 295 m 0,36,37
 156 222 156 222 190.5 182.5 c 128,-1,38
 225 143 225 143 271 143 c 0,39,40
 322 143 322 143 354.5 184.5 c 128,-1,41
 387 226 387 226 387 298 c 0,42,43
 387 369 387 369 354.5 411 c 128,-1,44
 322 453 322 453 273 453 c 0,45,46
 221 453 221 453 188.5 408.5 c 128,-1,47
 156 364 156 364 156 295 c 0,36,37
EndSplineSet
EndChar

StartChar: uni01EF
Encoding: 495 495 433
Width: 579
GlyphClass: 2
Flags: W
LayerCount: 2
Fore
SplineSet
84 787 m 1,0,-1
 198 787 l 1,1,-1
 286 686 l 1,2,-1
 374 787 l 1,3,-1
 489 787 l 1,4,-1
 335 624 l 1,5,-1
 234 624 l 1,6,-1
 84 787 l 1,0,-1
39 -33 m 1,7,-1
 144 -5 l 1,8,9
 158 -54 158 -54 193 -88.5 c 128,-1,10
 228 -123 228 -123 282 -123 c 0,11,12
 345 -123 345 -123 382 -80.5 c 128,-1,13
 419 -38 419 -38 419 28 c 0,14,15
 419 92 419 92 377.5 134.5 c 128,-1,16
 336 177 336 177 259 177 c 2,17,-1
 165 177 l 1,18,-1
 165 257 l 1,19,-1
 334 436 l 1,20,-1
 71 436 l 1,21,-1
 71 536 l 1,22,-1
 507 536 l 1,23,-1
 507 464 l 1,24,-1
 312 264 l 1,25,-1
 355 257 l 1,26,27
 434 240 434 240 487 176.5 c 128,-1,28
 540 113 540 113 540 28 c 0,29,30
 540 -81 540 -81 470 -152 c 128,-1,31
 400 -223 400 -223 285 -223 c 0,32,33
 187 -223 187 -223 124 -168.5 c 128,-1,34
 61 -114 61 -114 39 -33 c 1,7,-1
EndSplineSet
EndChar

StartChar: uni01F6
Encoding: 502 502 440
Width: 998
GlyphClass: 2
Flags: W
LayerCount: 2
Fore
SplineSet
83 0 m 1,0,-1
 83 735 l 1,1,-1
 205 735 l 1,2,-1
 205 429 l 1,3,-1
 496 429 l 1,4,-1
 496 735 l 1,5,-1
 620 735 l 1,6,-1
 620 204 l 2,7,8
 620 144 620 144 647.5 114 c 128,-1,9
 675 84 675 84 722 84 c 0,10,11
 764 84 764 84 791.5 114.5 c 128,-1,12
 819 145 819 145 819 193 c 2,13,-1
 819 536 l 1,14,-1
 941 536 l 1,15,-1
 941 178 l 2,16,17
 941 82 941 82 877 32.5 c 128,-1,18
 813 -17 813 -17 721 -17 c 0,19,20
 677 -17 677 -17 639 -7 c 128,-1,21
 601 3 601 3 567.5 24.5 c 128,-1,22
 534 46 534 46 515 85.5 c 128,-1,23
 496 125 496 125 496 178 c 2,24,-1
 496 326 l 1,25,-1
 205 326 l 1,26,-1
 205 0 l 1,27,-1
 83 0 l 1,0,-1
EndSplineSet
EndChar

StartChar: uni01F7
Encoding: 503 503 441
Width: 645
GlyphClass: 2
Flags: W
LayerCount: 2
Fore
SplineSet
84 -215 m 1,0,-1
 84 735 l 1,1,-1
 205 735 l 1,2,-1
 205 669 l 1,3,4
 295 752 295 752 390 752 c 0,5,6
 498 752 498 752 552.5 683.5 c 128,-1,7
 607 615 607 615 607 492 c 0,8,9
 607 404 607 404 569 322.5 c 128,-1,10
 531 241 531 241 468 180 c 128,-1,11
 405 119 405 119 340 75.5 c 128,-1,12
 275 32 275 32 205 1 c 1,13,-1
 205 -215 l 1,14,-1
 84 -215 l 1,0,-1
205 119 m 1,15,16
 253 143 253 143 299 178.5 c 128,-1,17
 345 214 345 214 387 261 c 128,-1,18
 429 308 429 308 455 367 c 128,-1,19
 481 426 481 426 481 487 c 0,20,21
 481 565 481 565 451.5 606.5 c 128,-1,22
 422 648 422 648 365 648 c 0,23,24
 323 648 323 648 279 619 c 128,-1,25
 235 590 235 590 205 549 c 1,26,-1
 205 119 l 1,15,16
EndSplineSet
EndChar

StartChar: Aringacute
Encoding: 506 506 444
Width: 658
GlyphClass: 2
Flags: W
LayerCount: 2
Fore
SplineSet
-4 0 m 1,0,-1
 261 733 l 1,1,2
 243 742 243 742 227 757 c 0,3,4
 185 795 185 795 185 853 c 0,5,6
 185 908 185 908 226 948 c 0,7,8
 251 973 251 973 284 982 c 1,9,-1
 365 1108 l 1,10,-1
 506 1108 l 1,11,-1
 387 978 l 1,12,13
 413 968 413 968 433 948 c 0,14,15
 474 907 474 907 474 853 c 0,16,17
 474 795 474 795 432 757 c 0,18,19
 416 742 416 742 398 733 c 1,20,-1
 662 0 l 1,21,-1
 532 0 l 1,22,-1
 471 182 l 1,23,-1
 187 182 l 1,24,-1
 126 0 l 1,25,-1
 -4 0 l 1,0,-1
219 281 m 1,26,-1
 439 281 l 1,27,-1
 376 471 l 2,28,29
 370 492 370 492 362 517 c 128,-1,30
 354 542 354 542 345 572 c 128,-1,31
 336 602 336 602 332 617 c 1,32,-1
 326 617 l 1,33,34
 323 608 323 608 282 471 c 1,35,-1
 219 281 l 1,26,-1
266 853 m 256,36,37
 266 827 266 827 283.5 809 c 128,-1,38
 301 791 301 791 329 791 c 0,39,40
 355 791 355 791 373 808.5 c 128,-1,41
 391 826 391 826 391 853 c 0,42,43
 391 879 391 879 373.5 897 c 128,-1,44
 356 915 356 915 329 915 c 256,45,46
 302 915 302 915 284 897 c 128,-1,47
 266 879 266 879 266 853 c 256,36,37
EndSplineSet
EndChar

StartChar: aringacute
Encoding: 507 507 445
Width: 547
GlyphClass: 2
Flags: W
LayerCount: 2
Fore
SplineSet
33 140 m 0,0,1
 33 292 33 292 257 325 c 0,2,3
 339 337 339 337 373 348 c 1,4,-1
 373 376 l 2,5,6
 373 415 373 415 345 437.5 c 128,-1,7
 317 460 317 460 270 460 c 0,8,9
 182 460 182 460 118 387 c 1,10,-1
 46 449 l 1,11,12
 88 498 88 498 146 525.5 c 128,-1,13
 204 553 204 553 269 553 c 0,14,15
 388 553 388 553 439.5 495 c 128,-1,16
 491 437 491 437 491 333 c 2,17,-1
 491 0 l 1,18,-1
 376 0 l 1,19,-1
 376 67 l 1,20,21
 360 33 360 33 318.5 8 c 128,-1,22
 277 -17 277 -17 221 -17 c 0,23,24
 133 -17 133 -17 83 27 c 128,-1,25
 33 71 33 71 33 140 c 0,0,1
130 728 m 0,26,27
 130 783 130 783 171 823 c 0,28,29
 197 848 197 848 230 857 c 1,30,-1
 310 983 l 1,31,-1
 452 983 l 1,32,-1
 332 853 l 1,33,34
 358 843 358 843 378 823 c 0,35,36
 419 782 419 782 419 728 c 0,37,38
 419 671 419 671 377 632.5 c 128,-1,39
 335 594 335 594 274 594 c 0,40,41
 215 594 215 594 172.5 632.5 c 128,-1,42
 130 671 130 671 130 728 c 0,26,27
151 151 m 0,43,44
 151 121 151 121 175 101 c 128,-1,45
 199 81 199 81 238 81 c 0,46,47
 294 81 294 81 333.5 118 c 128,-1,48
 373 155 373 155 373 216 c 2,49,-1
 373 265 l 1,50,51
 330 255 330 255 269 245 c 0,52,53
 151 227 151 227 151 151 c 0,43,44
211 728 m 0,54,55
 211 702 211 702 228.5 684 c 128,-1,56
 246 666 246 666 274 666 c 0,57,58
 300 666 300 666 318 684 c 128,-1,59
 336 702 336 702 336 728 c 0,60,61
 336 755 336 755 318.5 773 c 128,-1,62
 301 791 301 791 274 791 c 256,63,64
 247 791 247 791 229 773 c 128,-1,65
 211 755 211 755 211 728 c 0,54,55
EndSplineSet
EndChar

StartChar: uni021C
Encoding: 540 540 478
Width: 576
GlyphClass: 2
Flags: W
LayerCount: 2
Fore
SplineSet
37 -94 m 1,0,1
 111 -111 111 -111 192 -111 c 0,2,3
 289 -111 289 -111 348 -58.5 c 128,-1,4
 407 -6 407 -6 407 84 c 0,5,6
 407 180 407 180 360.5 223.5 c 128,-1,7
 314 267 314 267 251 267 c 0,8,9
 198 267 198 267 136 243 c 1,10,-1
 136 349 l 1,11,-1
 243 373 l 2,12,13
 310 387 310 387 352 426.5 c 128,-1,14
 394 466 394 466 394 526 c 0,15,16
 394 579 394 579 359 612 c 128,-1,17
 324 645 324 645 263 645 c 0,18,19
 217 645 217 645 187.5 623.5 c 128,-1,20
 158 602 158 602 136 558 c 1,21,-1
 39 605 l 1,22,23
 67 674 67 674 127 713 c 128,-1,24
 187 752 187 752 265 752 c 0,25,26
 390 752 390 752 456 693.5 c 128,-1,27
 522 635 522 635 522 540 c 0,28,29
 522 458 522 458 481 403.5 c 128,-1,30
 440 349 440 349 386 326 c 1,31,-1
 386 325 l 1,32,33
 447 305 447 305 490.5 242.5 c 128,-1,34
 534 180 534 180 534 82 c 0,35,36
 534 -59 534 -59 439 -138.5 c 128,-1,37
 344 -218 344 -218 193 -218 c 0,38,39
 123 -218 123 -218 37 -203 c 1,40,-1
 37 -94 l 1,0,1
EndSplineSet
EndChar

StartChar: uni021D
Encoding: 541 541 479
Width: 451
GlyphClass: 2
Flags: W
LayerCount: 2
Fore
SplineSet
32 -110 m 1,0,1
 93 -123 93 -123 151 -123 c 0,2,3
 216 -123 216 -123 255.5 -86.5 c 128,-1,4
 295 -50 295 -50 295 18 c 0,5,6
 295 80 295 80 262.5 115.5 c 128,-1,7
 230 151 230 151 187 151 c 0,8,9
 154 151 154 151 107 135 c 1,10,-1
 107 233 l 1,11,-1
 187 251 l 2,12,13
 233 261 233 261 260.5 292.5 c 128,-1,14
 288 324 288 324 288 364 c 0,15,16
 288 403 288 403 267.5 428 c 128,-1,17
 247 453 247 453 212 453 c 0,18,19
 151 453 151 453 125 384 c 1,20,-1
 35 419 l 1,21,22
 50 476 50 476 98 514 c 128,-1,23
 146 552 146 552 220 552 c 0,24,25
 306 552 306 552 355.5 501.5 c 128,-1,26
 405 451 405 451 405 381 c 0,27,28
 405 260 405 260 304 207 c 1,29,30
 348 191 348 191 381 141 c 128,-1,31
 414 91 414 91 414 21 c 0,32,33
 414 -98 414 -98 346 -160.5 c 128,-1,34
 278 -223 278 -223 153 -223 c 0,35,36
 103 -223 103 -223 32 -213 c 1,37,-1
 32 -110 l 1,0,1
EndSplineSet
EndChar

StartChar: uni0220
Encoding: 544 544 482
Width: 701
GlyphClass: 2
Flags: W
LayerCount: 2
Fore
SplineSet
83 0 m 1,0,-1
 83 735 l 1,1,-1
 200 735 l 1,2,-1
 200 652 l 1,3,-1
 201 652 l 1,4,5
 283 752 283 752 405 752 c 0,6,7
 621 752 621 752 621 489 c 2,8,-1
 621 -219 l 1,9,-1
 498 -219 l 1,10,-1
 498 480 l 2,11,12
 498 560 498 560 469 603.5 c 128,-1,13
 440 647 440 647 374 647 c 256,14,15
 308 647 308 647 256.5 589.5 c 128,-1,16
 205 532 205 532 205 457 c 2,17,-1
 205 0 l 1,18,-1
 83 0 l 1,0,-1
EndSplineSet
EndChar

StartChar: uni0221
Encoding: 545 545 483
Width: 741
GlyphClass: 2
Flags: W
LayerCount: 2
Fore
SplineSet
528 -83 m 1,0,1
 534 -107 534 -107 553.5 -122.5 c 128,-1,2
 573 -138 573 -138 601 -138 c 0,3,4
 624 -138 624 -138 637.5 -125.5 c 128,-1,5
 651 -113 651 -113 651 -96 c 0,6,7
 651 -77 651 -77 636.5 -63.5 c 128,-1,8
 622 -50 622 -50 597 -50 c 0,9,10
 558 -50 558 -50 528 -83 c 1,0,1
33 269 m 0,11,12
 33 400 33 400 97.5 476 c 128,-1,13
 162 552 162 552 262 552 c 0,14,15
 309 552 309 552 344.5 529.5 c 128,-1,16
 380 507 380 507 398 476 c 1,17,-1
 398 759 l 1,18,-1
 515 759 l 1,19,-1
 515 62 l 2,20,21
 515 19 515 19 517 11 c 1,22,23
 553 37 553 37 601 37 c 0,24,25
 668 37 668 37 708 -0.5 c 128,-1,26
 748 -38 748 -38 748 -93 c 0,27,28
 748 -152 748 -152 708.5 -187.5 c 128,-1,29
 669 -223 669 -223 602 -223 c 0,30,31
 530 -223 530 -223 481 -170 c 1,32,33
 467 -194 467 -194 457 -224 c 1,34,-1
 361 -188 l 1,35,36
 387 -121 387 -121 414 -82 c 1,37,38
 402 -49 402 -49 399 25 c 2,39,-1
 399 69 l 1,40,41
 384 36 384 36 347 9.5 c 128,-1,42
 310 -17 310 -17 261 -17 c 0,43,44
 219 -17 219 -17 180 -1 c 128,-1,45
 141 15 141 15 107 47.5 c 128,-1,46
 73 80 73 80 53 137 c 128,-1,47
 33 194 33 194 33 269 c 0,11,12
154 269 m 0,48,49
 154 181 154 181 188 132.5 c 128,-1,50
 222 84 222 84 278 84 c 0,51,52
 332 84 332 84 365.5 133 c 128,-1,53
 399 182 399 182 399 269 c 0,54,55
 399 351 399 351 366 402 c 128,-1,56
 333 453 333 453 278 453 c 0,57,58
 219 453 219 453 186.5 403.5 c 128,-1,59
 154 354 154 354 154 269 c 0,48,49
EndSplineSet
EndChar

StartChar: uni0222
Encoding: 546 546 484
Width: 710
GlyphClass: 2
Flags: W
LayerCount: 2
Fore
SplineSet
37 243 m 0,0,1
 37 310 37 310 74 368.5 c 128,-1,2
 111 427 111 427 178 465 c 1,3,4
 65 520 65 520 65 644 c 0,5,6
 65 700 65 700 80 735 c 1,7,-1
 200 735 l 1,8,9
 192 702 192 702 192 651 c 0,10,11
 192 595 192 595 236.5 552 c 128,-1,12
 281 509 281 509 356 509 c 0,13,14
 429 509 429 509 473.5 551.5 c 128,-1,15
 518 594 518 594 518 651 c 0,16,17
 518 690 518 690 510 735 c 1,18,-1
 631 735 l 1,19,20
 646 700 646 700 646 644 c 0,21,22
 646 519 646 519 532 465 c 1,23,24
 600 429 600 429 637 369.5 c 128,-1,25
 674 310 674 310 674 243 c 0,26,27
 674 196 674 196 655.5 152 c 128,-1,28
 637 108 637 108 600.5 69 c 128,-1,29
 564 30 564 30 500.5 6.5 c 128,-1,30
 437 -17 437 -17 356 -17 c 256,31,32
 275 -17 275 -17 211.5 6.5 c 128,-1,33
 148 30 148 30 111 69 c 128,-1,34
 74 108 74 108 55.5 152 c 128,-1,35
 37 196 37 196 37 243 c 0,0,1
164 243 m 0,36,37
 164 172 164 172 217.5 129.5 c 128,-1,38
 271 87 271 87 356 87 c 0,39,40
 439 87 439 87 492.5 130 c 128,-1,41
 546 173 546 173 546 243 c 256,42,43
 546 313 546 313 491.5 357.5 c 128,-1,44
 437 402 437 402 356 402 c 256,45,46
 275 402 275 402 219.5 358.5 c 128,-1,47
 164 315 164 315 164 243 c 0,36,37
EndSplineSet
EndChar

StartChar: uni0223
Encoding: 547 547 485
Width: 558
GlyphClass: 2
Flags: W
LayerCount: 2
Fore
SplineSet
33 246 m 0,0,1
 33 325 33 325 66 384 c 128,-1,2
 99 443 99 443 154 469 c 1,3,4
 56 521 56 521 56 650 c 0,5,6
 56 702 56 702 70 743 c 1,7,-1
 186 743 l 1,8,9
 176 684 176 684 176 658 c 0,10,11
 176 597 176 597 199.5 555.5 c 128,-1,12
 223 514 223 514 279 514 c 0,13,14
 333 514 333 514 357.5 555.5 c 128,-1,15
 382 597 382 597 382 658 c 0,16,17
 382 684 382 684 372 743 c 1,18,-1
 487 743 l 1,19,20
 501 703 501 703 501 650 c 0,21,22
 501 518 501 518 404 469 c 1,23,24
 459 444 459 444 491.5 384.5 c 128,-1,25
 524 325 524 325 524 246 c 0,26,27
 524 208 524 208 516 172 c 128,-1,28
 508 136 508 136 489.5 101 c 128,-1,29
 471 66 471 66 443.5 40.5 c 128,-1,30
 416 15 416 15 374 -1 c 128,-1,31
 332 -17 332 -17 279 -17 c 0,32,33
 227 -17 227 -17 184.5 -1 c 128,-1,34
 142 15 142 15 114 40.5 c 128,-1,35
 86 66 86 66 67.5 100.5 c 128,-1,36
 49 135 49 135 41 171 c 128,-1,37
 33 207 33 207 33 246 c 0,0,1
154 246 m 0,38,39
 154 174 154 174 188.5 129 c 128,-1,40
 223 84 223 84 279 84 c 256,41,42
 335 84 335 84 369.5 128.5 c 128,-1,43
 404 173 404 173 404 246 c 0,44,45
 404 318 404 318 369.5 365.5 c 128,-1,46
 335 413 335 413 279 413 c 0,47,48
 224 413 224 413 189 366.5 c 128,-1,49
 154 320 154 320 154 246 c 0,38,39
EndSplineSet
EndChar

StartChar: uni0224
Encoding: 548 548 486
Width: 603
GlyphClass: 2
Flags: W
LayerCount: 2
Fore
SplineSet
32 0 m 1,0,-1
 32 88 l 1,1,-1
 413 630 l 1,2,-1
 62 630 l 1,3,-1
 62 735 l 1,4,-1
 564 735 l 1,5,-1
 564 644 l 1,6,-1
 183 104 l 1,7,-1
 453 104 l 2,8,9
 626 104 626 104 626 -85 c 0,10,11
 626 -152 626 -152 597 -219 c 1,12,-1
 486 -219 l 1,13,14
 517 -156 517 -156 517 -101 c 0,15,16
 517 -59 517 -59 494.5 -29.5 c 128,-1,17
 472 0 472 0 422 0 c 2,18,-1
 32 0 l 1,0,-1
EndSplineSet
EndChar

StartChar: uni0225
Encoding: 549 549 487
Width: 481
GlyphClass: 2
Flags: W
LayerCount: 2
Fore
SplineSet
24 0 m 1,0,-1
 24 78 l 1,1,-1
 301 438 l 1,2,-1
 46 438 l 1,3,-1
 46 537 l 1,4,-1
 454 537 l 1,5,-1
 454 464 l 1,6,-1
 176 100 l 1,7,-1
 374 100 l 2,8,9
 539 100 539 100 539 -83 c 0,10,11
 539 -170 539 -170 518 -219 c 1,12,-1
 414 -219 l 1,13,14
 436 -176 436 -176 436 -103 c 0,15,16
 436 -52 436 -52 415.5 -26 c 128,-1,17
 395 0 395 0 346 0 c 2,18,-1
 24 0 l 1,0,-1
EndSplineSet
EndChar

StartChar: uni0234
Encoding: 564 564 502
Width: 412
GlyphClass: 2
Flags: W
LayerCount: 2
Fore
SplineSet
203 -82 m 1,0,1
 208 -105 208 -105 228 -121.5 c 128,-1,2
 248 -138 248 -138 275 -138 c 0,3,4
 299 -138 299 -138 312.5 -126 c 128,-1,5
 326 -114 326 -114 326 -97 c 0,6,7
 326 -77 326 -77 310.5 -63.5 c 128,-1,8
 295 -50 295 -50 272 -50 c 0,9,10
 232 -50 232 -50 203 -82 c 1,0,1
35 -188 m 1,11,12
 69 -111 69 -111 89 -82 c 1,13,14
 72 -41 72 -41 72 35 c 2,15,-1
 72 759 l 1,16,-1
 190 759 l 1,17,-1
 190 62 l 2,18,19
 190 27 190 27 191 10 c 1,20,21
 228 37 228 37 276 37 c 0,22,23
 342 37 342 37 382.5 -0.5 c 128,-1,24
 423 -38 423 -38 423 -93 c 0,25,26
 423 -152 423 -152 383.5 -187.5 c 128,-1,27
 344 -223 344 -223 277 -223 c 0,28,29
 203 -223 203 -223 155 -170 c 1,30,31
 139 -197 139 -197 131 -224 c 1,32,-1
 35 -188 l 1,11,12
EndSplineSet
EndChar

StartChar: uni0235
Encoding: 565 565 503
Width: 726
GlyphClass: 2
Flags: W
LayerCount: 2
Fore
SplineSet
516 -82 m 1,0,1
 522 -106 522 -106 542.5 -122 c 128,-1,2
 563 -138 563 -138 589 -138 c 0,3,4
 612 -138 612 -138 625.5 -126 c 128,-1,5
 639 -114 639 -114 639 -96 c 256,6,7
 639 -78 639 -78 624.5 -64 c 128,-1,8
 610 -50 610 -50 585 -50 c 0,9,10
 545 -50 545 -50 516 -82 c 1,0,1
64 0 m 1,11,-1
 64 536 l 1,12,-1
 177 536 l 1,13,-1
 177 468 l 1,14,-1
 178 468 l 1,15,16
 193 499 193 499 231 525.5 c 128,-1,17
 269 552 269 552 327 552 c 0,18,19
 502 552 502 552 502 345 c 2,20,-1
 502 59 l 2,21,22
 502 49 502 49 502 40 c 0,23,24
 502 23 502 23 503 11 c 1,25,26
 538 37 538 37 588 37 c 0,27,28
 654 37 654 37 695 0 c 128,-1,29
 736 -37 736 -37 736 -93 c 0,30,31
 736 -152 736 -152 696 -187.5 c 128,-1,32
 656 -223 656 -223 589 -223 c 0,33,34
 518 -223 518 -223 469 -169 c 1,35,36
 450 -207 450 -207 444 -224 c 1,37,-1
 348 -188 l 1,38,39
 368 -133 368 -133 402 -82 c 1,40,41
 385 -39 385 -39 385 37 c 2,42,-1
 385 330 l 2,43,44
 385 453 385 453 301 453 c 0,45,46
 251 453 251 453 216.5 411.5 c 128,-1,47
 182 370 182 370 182 310 c 2,48,-1
 182 0 l 1,49,-1
 64 0 l 1,11,-1
EndSplineSet
EndChar

StartChar: uni0236
Encoding: 566 566 504
Width: 444
GlyphClass: 2
Flags: W
LayerCount: 2
Fore
SplineSet
230 -82 m 1,0,1
 235 -103 235 -103 255.5 -120.5 c 128,-1,2
 276 -138 276 -138 303 -138 c 0,3,4
 328 -138 328 -138 341 -125.5 c 128,-1,5
 354 -113 354 -113 354 -97 c 0,6,7
 354 -80 354 -80 339.5 -65 c 128,-1,8
 325 -50 325 -50 300 -50 c 0,9,10
 259 -50 259 -50 230 -82 c 1,0,1
17 436 m 1,11,-1
 17 536 l 1,12,-1
 99 536 l 1,13,-1
 99 695 l 1,14,-1
 217 695 l 1,15,-1
 217 536 l 1,16,-1
 339 536 l 1,17,-1
 339 436 l 1,18,-1
 217 436 l 1,19,-1
 217 11 l 1,20,21
 253 37 253 37 303 37 c 0,22,23
 370 37 370 37 410 -0.5 c 128,-1,24
 450 -38 450 -38 450 -93 c 0,25,26
 450 -152 450 -152 410.5 -187.5 c 128,-1,27
 371 -223 371 -223 304 -223 c 0,28,29
 231 -223 231 -223 183 -170 c 1,30,31
 164 -207 164 -207 158 -224 c 1,32,-1
 63 -188 l 1,33,34
 97 -108 97 -108 116 -82 c 1,35,36
 99 -40 99 -40 99 38 c 2,37,-1
 99 436 l 1,38,-1
 17 436 l 1,11,-1
EndSplineSet
EndChar

StartChar: uni0237
Encoding: 567 567 505
Width: 271
GlyphClass: 2
Flags: W
LayerCount: 2
Fore
SplineSet
-12 -113 m 1,0,-1
 7 -113 l 2,1,2
 43 -113 43 -113 61 -88.5 c 128,-1,3
 79 -64 79 -64 79 -9 c 2,4,-1
 79 536 l 1,5,-1
 198 536 l 1,6,-1
 198 -14 l 2,7,8
 198 -112 198 -112 153.5 -163 c 128,-1,9
 109 -214 109 -214 26 -214 c 2,10,-1
 -12 -214 l 1,11,-1
 -12 -113 l 1,0,-1
EndSplineSet
EndChar

StartChar: uni0238
Encoding: 568 568 506
Width: 911
GlyphClass: 2
Flags: W
LayerCount: 2
Fore
SplineSet
33 269 m 0,0,1
 33 402 33 402 98.5 477 c 128,-1,2
 164 552 164 552 261 552 c 0,3,4
 308 552 308 552 343.5 529 c 128,-1,5
 379 506 379 506 397 476 c 1,6,-1
 397 759 l 1,7,-1
 515 759 l 1,8,-1
 515 477 l 1,9,10
 565 552 565 552 651 552 c 0,11,12
 751 552 751 552 814.5 477 c 128,-1,13
 878 402 878 402 878 269 c 0,14,15
 878 193 878 193 857.5 135.5 c 128,-1,16
 837 78 837 78 802.5 46 c 128,-1,17
 768 14 768 14 730 -1.5 c 128,-1,18
 692 -17 692 -17 652 -17 c 0,19,20
 602 -17 602 -17 566 8.5 c 128,-1,21
 530 34 530 34 514 68 c 1,22,-1
 514 0 l 1,23,-1
 398 0 l 1,24,-1
 398 69 l 1,25,26
 380 33 380 33 343.5 8 c 128,-1,27
 307 -17 307 -17 260 -17 c 0,28,29
 220 -17 220 -17 182 -1.5 c 128,-1,30
 144 14 144 14 109.5 45.5 c 128,-1,31
 75 77 75 77 54 134.5 c 128,-1,32
 33 192 33 192 33 269 c 0,0,1
154 269 m 0,33,34
 154 179 154 179 188.5 131.5 c 128,-1,35
 223 84 223 84 278 84 c 256,36,37
 333 84 333 84 366 133 c 128,-1,38
 399 182 399 182 399 262 c 2,39,-1
 399 268 l 2,40,41
 399 348 399 348 366 400.5 c 128,-1,42
 333 453 333 453 277 453 c 256,43,44
 221 453 221 453 187.5 404.5 c 128,-1,45
 154 356 154 356 154 269 c 0,33,34
513 261 m 2,46,47
 513 183 513 183 547 133.5 c 128,-1,48
 581 84 581 84 635 84 c 256,49,50
 689 84 689 84 723 131.5 c 128,-1,51
 757 179 757 179 757 269 c 0,52,53
 757 354 757 354 723.5 403.5 c 128,-1,54
 690 453 690 453 635 453 c 0,55,56
 579 453 579 453 546 400.5 c 128,-1,57
 513 348 513 348 513 267 c 2,58,-1
 513 261 l 2,46,47
EndSplineSet
EndChar

StartChar: uni0239
Encoding: 569 569 507
Width: 912
GlyphClass: 2
Flags: W
LayerCount: 2
Fore
SplineSet
33 269 m 0,0,1
 33 400 33 400 97 476 c 128,-1,2
 161 552 161 552 261 552 c 0,3,4
 350 552 350 552 398 472 c 1,5,-1
 398 536 l 1,6,-1
 515 536 l 1,7,-1
 515 473 l 1,8,9
 560 552 560 552 653 552 c 0,10,11
 753 552 753 552 816 476 c 128,-1,12
 879 400 879 400 879 269 c 0,13,14
 879 195 879 195 859 138 c 128,-1,15
 839 81 839 81 806 48.5 c 128,-1,16
 773 16 773 16 734.5 -0.5 c 128,-1,17
 696 -17 696 -17 653 -17 c 0,18,19
 601 -17 601 -17 566 8 c 128,-1,20
 531 33 531 33 515 67 c 1,21,-1
 515 -219 l 1,22,-1
 397 -219 l 1,23,-1
 397 66 l 1,24,25
 378 33 378 33 342.5 8 c 128,-1,26
 307 -17 307 -17 260 -17 c 0,27,28
 217 -17 217 -17 178.5 -0.5 c 128,-1,29
 140 16 140 16 106.5 48.5 c 128,-1,30
 73 81 73 81 53 138 c 128,-1,31
 33 195 33 195 33 269 c 0,0,1
153 269 m 0,32,33
 153 181 153 181 187 132.5 c 128,-1,34
 221 84 221 84 276 84 c 0,35,36
 334 84 334 84 366.5 133 c 128,-1,37
 399 182 399 182 399 269 c 2,38,-1
 399 274 l 2,39,40
 399 353 399 353 365.5 403 c 128,-1,41
 332 453 332 453 276 453 c 0,42,43
 218 453 218 453 185.5 401.5 c 128,-1,44
 153 350 153 350 153 269 c 0,32,33
513 269 m 2,45,46
 513 184 513 184 547.5 134 c 128,-1,47
 582 84 582 84 637 84 c 256,48,49
 692 84 692 84 725 132 c 128,-1,50
 758 180 758 180 758 269 c 0,51,52
 758 352 758 352 726.5 402.5 c 128,-1,53
 695 453 695 453 637 453 c 0,54,55
 584 453 584 453 548.5 402.5 c 128,-1,56
 513 352 513 352 513 275 c 2,57,-1
 513 269 l 2,45,46
EndSplineSet
EndChar

StartChar: uni023A
Encoding: 570 570 508
Width: 658
GlyphClass: 2
Flags: W
LayerCount: 2
Fore
SplineSet
219 281 m 1,0,-1
 247 281 l 1,1,-1
 374 480 l 1,2,3
 347 565 347 565 332 617 c 1,4,-1
 326 617 l 1,5,6
 302 534 302 534 282 471 c 2,7,-1
 219 281 l 1,0,-1
334 281 m 1,8,-1
 440 281 l 1,9,-1
 404 390 l 1,10,-1
 334 281 l 1,8,-1
-4 0 m 1,11,-1
 262 735 l 1,12,-1
 397 735 l 1,13,-1
 448 594 l 1,14,-1
 567 781 l 1,15,-1
 653 781 l 1,16,-1
 479 508 l 1,17,-1
 662 0 l 1,18,-1
 532 0 l 1,19,-1
 471 182 l 1,20,-1
 271 182 l 1,21,-1
 94 -95 l 1,22,-1
 7 -95 l 1,23,-1
 68 0 l 1,24,-1
 -4 0 l 1,11,-1
EndSplineSet
EndChar

StartChar: uni023B
Encoding: 571 571 509
Width: 663
GlyphClass: 2
Flags: W
LayerCount: 2
Fore
SplineSet
39 368 m 0,0,1
 39 541 39 541 128 646.5 c 128,-1,2
 217 752 217 752 365 752 c 0,3,4
 416 752 416 752 464 734 c 1,5,-1
 483 789 l 1,6,-1
 573 789 l 1,7,-1
 537 691 l 1,8,9
 595 647 595 647 624 574 c 1,10,-1
 519 540 l 1,11,12
 508 560 508 560 493 577 c 1,13,-1
 314 97 l 1,14,15
 336 88 336 88 364 88 c 0,16,17
 424 88 424 88 468 124.5 c 128,-1,18
 512 161 512 161 532 210 c 1,19,-1
 643 176 l 1,20,21
 629 143 629 143 608.5 114 c 128,-1,22
 588 85 588 85 555 53 c 128,-1,23
 522 21 522 21 473 2 c 128,-1,24
 424 -17 424 -17 365 -17 c 0,25,26
 315 -17 315 -17 276 -5 c 1,27,-1
 256 -58 l 1,28,-1
 167 -58 l 1,29,-1
 199 28 l 1,30,31
 123 76 123 76 81 163 c 128,-1,32
 39 250 39 250 39 368 c 0,0,1
241 140 m 1,33,-1
 427 634 l 1,34,35
 396 647 396 647 364 647 c 0,36,37
 270 647 270 647 217.5 569 c 128,-1,38
 165 491 165 491 165 368 c 0,39,40
 165 217 165 217 241 140 c 1,33,-1
EndSplineSet
EndChar

StartChar: uni023C
Encoding: 572 572 510
Width: 515
GlyphClass: 2
Flags: W
LayerCount: 2
Fore
SplineSet
33 269 m 0,0,1
 33 392 33 392 99.5 472 c 128,-1,2
 166 552 166 552 284 552 c 0,3,4
 317 552 317 552 348 542 c 1,5,-1
 370 603 l 1,6,-1
 452 603 l 1,7,-1
 415 504 l 1,8,9
 438 488 438 488 458 457 c 128,-1,10
 478 426 478 426 485 394 c 1,11,-1
 391 367 l 1,12,13
 385 383 385 383 375 397 c 1,14,-1
 262 85 l 1,15,16
 269 84 269 84 282 84 c 0,17,18
 359 84 359 84 398 177 c 1,19,-1
 497 149 l 1,20,21
 481 89 481 89 424 36 c 128,-1,22
 367 -17 367 -17 281 -17 c 0,23,24
 250 -17 250 -17 225 -11 c 1,25,-1
 209 -58 l 1,26,-1
 126 -58 l 1,27,-1
 154 17 l 1,28,29
 94 53 94 53 63.5 121.5 c 128,-1,30
 33 190 33 190 33 269 c 0,0,1
197 131 m 1,31,-1
 311 446 l 1,32,33
 300 452 300 452 282 452 c 0,34,35
 221 452 221 452 187.5 400 c 128,-1,36
 154 348 154 348 154 269 c 0,37,38
 154 181 154 181 197 131 c 1,31,-1
EndSplineSet
EndChar

StartChar: uni023D
Encoding: 573 573 511
Width: 547
GlyphClass: 2
Flags: W
LayerCount: 2
Fore
SplineSet
6 365 m 1,0,-1
 6 462 l 1,1,-1
 83 462 l 1,2,-1
 83 735 l 1,3,-1
 205 735 l 1,4,-1
 205 462 l 1,5,-1
 388 462 l 1,6,-1
 388 365 l 1,7,-1
 205 365 l 1,8,-1
 205 104 l 1,9,-1
 538 104 l 1,10,-1
 538 0 l 1,11,-1
 83 0 l 1,12,-1
 83 365 l 1,13,-1
 6 365 l 1,0,-1
EndSplineSet
EndChar

StartChar: uni023E
Encoding: 574 574 512
Width: 565
GlyphClass: 2
Flags: W
LayerCount: 2
Fore
SplineSet
344 630 m 1,0,-1
 344 508 l 1,1,-1
 411 630 l 1,2,-1
 344 630 l 1,0,-1
10 630 m 1,3,-1
 10 735 l 1,4,-1
 469 735 l 1,5,-1
 499 789 l 1,6,-1
 582 789 l 1,7,-1
 552 735 l 1,8,-1
 556 735 l 1,9,-1
 556 630 l 1,10,-1
 494 630 l 1,11,-1
 344 357 l 1,12,-1
 344 0 l 1,13,-1
 222 0 l 1,14,-1
 222 135 l 1,15,-1
 121 -48 l 1,16,-1
 38 -48 l 1,17,-1
 222 286 l 1,18,-1
 222 630 l 1,19,-1
 10 630 l 1,3,-1
EndSplineSet
EndChar

StartChar: uni023F
Encoding: 575 575 513
Width: 490
GlyphClass: 2
Flags: W
LayerCount: 2
Fore
SplineSet
24 112 m 1,0,-1
 108 161 l 1,1,2
 162 79 162 79 254 79 c 0,3,4
 295 79 295 79 321.5 96 c 128,-1,5
 348 113 348 113 348 142 c 0,6,7
 348 156 348 156 341 167.5 c 128,-1,8
 334 179 334 179 324 187 c 128,-1,9
 314 195 314 195 295.5 203.5 c 128,-1,10
 277 212 277 212 263.5 216.5 c 128,-1,11
 250 221 250 221 226.5 228.5 c 128,-1,12
 203 236 203 236 190 241 c 0,13,14
 122 265 122 265 84 299 c 128,-1,15
 46 333 46 333 46 395 c 0,16,17
 46 468 46 468 106 510 c 128,-1,18
 166 552 166 552 251 552 c 0,19,20
 322 552 322 552 378.5 517.5 c 128,-1,21
 435 483 435 483 465 429 c 1,22,-1
 387 382 l 1,23,24
 330 457 330 457 250 457 c 0,25,26
 210 457 210 457 187.5 439.5 c 128,-1,27
 165 422 165 422 165 393 c 0,28,29
 165 339 165 339 269 311 c 0,30,31
 308 300 308 300 337.5 288 c 128,-1,32
 367 276 367 276 399.5 256.5 c 128,-1,33
 432 237 432 237 449.5 207.5 c 128,-1,34
 467 178 467 178 467 142 c 0,35,36
 467 73 467 73 410.5 28 c 128,-1,37
 354 -17 354 -17 253 -17 c 0,38,39
 203 -17 203 -17 164 -1 c 1,40,41
 186 -73 186 -73 199 -93 c 0,42,43
 228 -139 228 -139 289 -139 c 0,44,45
 327 -139 327 -139 349 -134 c 1,46,-1
 349 -217 l 1,47,48
 308 -223 308 -223 283 -223 c 0,49,50
 241 -223 241 -223 207.5 -209 c 128,-1,51
 174 -195 174 -195 153.5 -175.5 c 128,-1,52
 133 -156 133 -156 116 -124.5 c 128,-1,53
 99 -93 99 -93 92 -68.5 c 128,-1,54
 85 -44 85 -44 76 -9 c 0,55,56
 59 72 59 72 24 112 c 1,0,-1
EndSplineSet
EndChar

StartChar: uni0240
Encoding: 576 576 514
Width: 489
GlyphClass: 2
Flags: W
LayerCount: 2
Fore
SplineSet
24 0 m 1,0,-1
 24 78 l 1,1,-1
 301 436 l 1,2,-1
 46 436 l 1,3,-1
 46 536 l 1,4,-1
 454 536 l 1,5,-1
 454 463 l 1,6,-1
 158 77 l 1,7,8
 190 70 190 70 218.5 46 c 128,-1,9
 247 22 247 22 267.5 -5.5 c 128,-1,10
 288 -33 288 -33 308 -60 c 128,-1,11
 328 -87 328 -87 353 -105 c 128,-1,12
 378 -123 378 -123 406 -123 c 0,13,14
 440 -123 440 -123 467 -118 c 1,15,-1
 467 -216 l 1,16,17
 440 -223 440 -223 399 -223 c 0,18,19
 354 -223 354 -223 318 -201 c 128,-1,20
 282 -179 282 -179 256 -148 c 128,-1,21
 230 -117 230 -117 207 -85 c 128,-1,22
 184 -53 184 -53 154 -28.5 c 128,-1,23
 124 -4 124 -4 89 0 c 1,24,-1
 24 0 l 1,0,-1
EndSplineSet
EndChar

StartChar: uni0241
Encoding: 577 577 515
Width: 585
GlyphClass: 2
Flags: W
LayerCount: 2
Fore
SplineSet
57 571 m 1,0,1
 78 650 78 650 143 701 c 128,-1,2
 208 752 208 752 298 752 c 0,3,4
 396 752 396 752 459 694.5 c 128,-1,5
 522 637 522 637 522 544 c 0,6,7
 522 499 522 499 504.5 463 c 128,-1,8
 487 427 487 427 462 401.5 c 128,-1,9
 437 376 437 376 412 352 c 128,-1,10
 387 328 387 328 369.5 297 c 128,-1,11
 352 266 352 266 352 229 c 2,12,-1
 352 0 l 1,13,-1
 230 0 l 1,14,-1
 230 239 l 2,15,16
 230 282 230 282 247.5 319 c 128,-1,17
 265 356 265 356 289 381 c 128,-1,18
 313 406 313 406 337 429.5 c 128,-1,19
 361 453 361 453 378.5 483.5 c 128,-1,20
 396 514 396 514 396 548 c 0,21,22
 396 593 396 593 368.5 620.5 c 128,-1,23
 341 648 341 648 299 648 c 0,24,25
 254 648 254 648 219.5 619 c 128,-1,26
 185 590 185 590 167 538 c 1,27,-1
 57 571 l 1,0,1
EndSplineSet
EndChar

StartChar: uni0250
Encoding: 592 592 516
Width: 547
GlyphClass: 2
Flags: W
LayerCount: 2
Fore
SplineSet
177 270 m 1,0,1
 231 283 231 283 279 291 c 0,2,3
 338 301 338 301 367.5 323.5 c 128,-1,4
 397 346 397 346 397 385 c 0,5,6
 397 414 397 414 373 434 c 128,-1,7
 349 454 349 454 310 454 c 0,8,9
 256 454 256 454 216.5 417 c 128,-1,10
 177 380 177 380 177 325 c 2,11,-1
 177 270 l 1,0,1
59 203 m 2,12,-1
 59 536 l 1,13,-1
 173 536 l 1,14,-1
 173 469 l 1,15,16
 188 501 188 501 229.5 526.5 c 128,-1,17
 271 552 271 552 328 552 c 0,18,19
 414 552 414 552 465.5 509 c 128,-1,20
 517 466 517 466 517 395 c 0,21,22
 517 243 517 243 282 209 c 0,23,24
 219 200 219 200 176 188 c 0,25,26
 176 184 176 184 176.5 172 c 128,-1,27
 177 160 177 160 177 156 c 0,28,29
 177 120 177 120 205.5 98 c 128,-1,30
 234 76 234 76 279 76 c 0,31,32
 367 76 367 76 431 149 c 1,33,-1
 503 87 l 1,34,35
 461 37 461 37 402.5 10 c 128,-1,36
 344 -17 344 -17 280 -17 c 0,37,38
 163 -17 163 -17 111 40.5 c 128,-1,39
 59 98 59 98 59 203 c 2,12,-1
EndSplineSet
EndChar

StartChar: uni0251
Encoding: 593 593 517
Width: 577
GlyphClass: 2
Flags: W
LayerCount: 2
Fore
SplineSet
154 269 m 0,0,1
 154 179 154 179 188.5 131.5 c 128,-1,2
 223 84 223 84 277 84 c 0,3,4
 323 84 323 84 359.5 129.5 c 128,-1,5
 396 175 396 175 396 269 c 0,6,7
 396 351 396 351 363.5 402 c 128,-1,8
 331 453 331 453 276 453 c 0,9,10
 220 453 220 453 187 403.5 c 128,-1,11
 154 354 154 354 154 269 c 0,0,1
33 269 m 0,12,13
 33 400 33 400 96.5 476 c 128,-1,14
 160 552 160 552 260 552 c 0,15,16
 307 552 307 552 342 528.5 c 128,-1,17
 377 505 377 505 394 477 c 1,18,-1
 394 536 l 1,19,-1
 511 536 l 1,20,-1
 511 0 l 1,21,-1
 397 0 l 1,22,-1
 397 70 l 1,23,24
 380 34 380 34 342.5 8.5 c 128,-1,25
 305 -17 305 -17 258 -17 c 0,26,27
 217 -17 217 -17 178 -0.5 c 128,-1,28
 139 16 139 16 106 48.5 c 128,-1,29
 73 81 73 81 53 137.5 c 128,-1,30
 33 194 33 194 33 269 c 0,12,13
EndSplineSet
EndChar

StartChar: uni0252
Encoding: 594 594 518
Width: 577
GlyphClass: 2
Flags: W
LayerCount: 2
Fore
SplineSet
67 0 m 1,0,-1
 67 536 l 1,1,-1
 183 536 l 1,2,-1
 183 476 l 1,3,4
 234 552 234 552 320 552 c 0,5,6
 419 552 419 552 482 476 c 128,-1,7
 545 400 545 400 545 269 c 0,8,9
 545 193 545 193 524.5 136 c 128,-1,10
 504 79 504 79 470.5 47 c 128,-1,11
 437 15 437 15 399 -1 c 128,-1,12
 361 -17 361 -17 321 -17 c 0,13,14
 271 -17 271 -17 234.5 9 c 128,-1,15
 198 35 198 35 182 69 c 1,16,-1
 182 0 l 1,17,-1
 67 0 l 1,0,-1
182 269 m 0,18,19
 182 183 182 183 215.5 133.5 c 128,-1,20
 249 84 249 84 302 84 c 0,21,22
 357 84 357 84 390.5 132 c 128,-1,23
 424 180 424 180 424 269 c 0,24,25
 424 354 424 354 391 403.5 c 128,-1,26
 358 453 358 453 302 453 c 0,27,28
 247 453 247 453 214.5 402 c 128,-1,29
 182 351 182 351 182 269 c 0,18,19
EndSplineSet
EndChar

StartChar: uni0253
Encoding: 595 595 519
Width: 583
GlyphClass: 2
Flags: W
LayerCount: 2
Fore
SplineSet
184 269 m 0,0,1
 184 183 184 183 217.5 133.5 c 128,-1,2
 251 84 251 84 307 84 c 0,3,4
 362 84 362 84 395.5 132 c 128,-1,5
 429 180 429 180 429 269 c 0,6,7
 429 352 429 352 396.5 402.5 c 128,-1,8
 364 453 364 453 307 453 c 0,9,10
 251 453 251 453 217.5 402.5 c 128,-1,11
 184 352 184 352 184 269 c 0,0,1
69 0 m 1,12,-1
 69 589 l 2,13,14
 69 681 69 681 120 730.5 c 128,-1,15
 171 780 171 780 256 780 c 0,16,17
 285 780 285 780 359 771 c 1,18,-1
 357 667 l 1,19,20
 295 675 295 675 276 675 c 0,21,22
 234 675 234 675 209.5 646.5 c 128,-1,23
 185 618 185 618 185 568 c 2,24,-1
 185 476 l 1,25,26
 206 509 206 509 242 530.5 c 128,-1,27
 278 552 278 552 323 552 c 0,28,29
 424 552 424 552 487 475.5 c 128,-1,30
 550 399 550 399 550 269 c 0,31,32
 550 129 550 129 483 56 c 128,-1,33
 416 -17 416 -17 324 -17 c 0,34,35
 273 -17 273 -17 237.5 9 c 128,-1,36
 202 35 202 35 183 69 c 1,37,-1
 183 0 l 1,38,-1
 69 0 l 1,12,-1
EndSplineSet
EndChar

StartChar: uni0254
Encoding: 596 596 520
Width: 515
GlyphClass: 2
Flags: W
LayerCount: 2
Fore
SplineSet
19 149 m 1,0,-1
 118 177 l 1,1,2
 130 140 130 140 161 112 c 128,-1,3
 192 84 192 84 233 84 c 0,4,5
 289 84 289 84 325 132 c 128,-1,6
 361 180 361 180 361 268 c 0,7,8
 361 348 361 348 328 400.5 c 128,-1,9
 295 453 295 453 233 453 c 0,10,11
 196 453 196 453 169 427 c 128,-1,12
 142 401 142 401 131 366 c 1,13,-1
 32 394 l 1,14,15
 46 455 46 455 100.5 503.5 c 128,-1,16
 155 552 155 552 235 552 c 0,17,18
 346 552 346 552 414 475 c 128,-1,19
 482 398 482 398 482 268 c 256,20,21
 482 138 482 138 414 60.5 c 128,-1,22
 346 -17 346 -17 235 -17 c 0,23,24
 155 -17 155 -17 95.5 33 c 128,-1,25
 36 83 36 83 19 149 c 1,0,-1
EndSplineSet
EndChar

StartChar: uni0255
Encoding: 597 597 521
Width: 517
GlyphClass: 2
Flags: W
LayerCount: 2
Fore
SplineSet
262 82 m 1,0,1
 290 67 290 67 322 67 c 0,2,3
 355 67 355 67 374 79 c 128,-1,4
 393 91 393 91 393 109 c 0,5,6
 393 125 393 125 380 134 c 128,-1,7
 367 143 367 143 347 143 c 0,8,9
 291 143 291 143 262 82 c 1,0,1
33 275 m 0,10,11
 33 392 33 392 99 472 c 128,-1,12
 165 552 165 552 282 552 c 0,13,14
 364 552 364 552 416.5 502.5 c 128,-1,15
 469 453 469 453 484 394 c 1,16,-1
 385 366 l 1,17,18
 374 401 374 401 348 427 c 128,-1,19
 322 453 322 453 282 453 c 0,20,21
 222 453 222 453 188 400.5 c 128,-1,22
 154 348 154 348 154 269 c 0,23,24
 154 188 154 188 191 137 c 1,25,26
 216 174 216 174 257 200.5 c 128,-1,27
 298 227 298 227 351 227 c 0,28,29
 413 227 413 227 452 194.5 c 128,-1,30
 491 162 491 162 491 110 c 0,31,32
 491 51 491 51 445.5 17 c 128,-1,33
 400 -17 400 -17 319 -17 c 0,34,35
 265 -17 265 -17 227 -7 c 1,36,37
 214 -44 214 -44 211 -64 c 1,38,-1
 110 -42 l 1,39,40
 116 -7 116 -7 134 33 c 1,41,42
 33 113 33 113 33 275 c 0,10,11
EndSplineSet
EndChar

StartChar: uni0256
Encoding: 598 598 522
Width: 579
GlyphClass: 2
Flags: W
LayerCount: 2
Fore
SplineSet
33 269 m 0,0,1
 33 402 33 402 98.5 477 c 128,-1,2
 164 552 164 552 262 552 c 0,3,4
 309 552 309 552 344.5 529.5 c 128,-1,5
 380 507 380 507 398 477 c 1,6,-1
 398 759 l 1,7,-1
 515 759 l 1,8,-1
 515 -30 l 2,9,10
 515 -119 515 -119 584 -119 c 0,11,12
 609 -119 609 -119 658 -112 c 1,13,-1
 658 -214 l 1,14,15
 571 -223 571 -223 562 -223 c 0,16,17
 491 -223 491 -223 445.5 -180.5 c 128,-1,18
 400 -138 400 -138 400 -37 c 2,19,-1
 400 69 l 1,20,21
 382 33 382 33 345 8 c 128,-1,22
 308 -17 308 -17 261 -17 c 0,23,24
 219 -17 219 -17 180 -1 c 128,-1,25
 141 15 141 15 107 47.5 c 128,-1,26
 73 80 73 80 53 137 c 128,-1,27
 33 194 33 194 33 269 c 0,0,1
154 269 m 0,28,29
 154 182 154 182 187 133 c 128,-1,30
 220 84 220 84 278 84 c 0,31,32
 332 84 332 84 365.5 134 c 128,-1,33
 399 184 399 184 399 269 c 0,34,35
 399 351 399 351 366.5 402 c 128,-1,36
 334 453 334 453 278 453 c 256,37,38
 222 453 222 453 188 404 c 128,-1,39
 154 355 154 355 154 269 c 0,28,29
EndSplineSet
EndChar

StartChar: uni0257
Encoding: 599 599 523
Width: 579
GlyphClass: 2
Flags: W
LayerCount: 2
Fore
SplineSet
33 269 m 0,0,1
 33 401 33 401 98 477 c 128,-1,2
 163 553 163 553 262 553 c 0,3,4
 308 553 308 553 344.5 529.5 c 128,-1,5
 381 506 381 506 398 476 c 1,6,-1
 398 611 l 2,7,8
 398 693 398 693 448 736.5 c 128,-1,9
 498 780 498 780 577 780 c 0,10,11
 617 780 617 780 666 775 c 1,12,-1
 666 671 l 1,13,14
 641 675 641 675 598 675 c 0,15,16
 562 675 562 675 538.5 651.5 c 128,-1,17
 515 628 515 628 515 587 c 2,18,-1
 515 0 l 1,19,-1
 400 0 l 1,20,-1
 400 71 l 1,21,22
 384 35 384 35 346 9 c 128,-1,23
 308 -17 308 -17 261 -17 c 0,24,25
 218 -17 218 -17 179 -0.5 c 128,-1,26
 140 16 140 16 106.5 48.5 c 128,-1,27
 73 81 73 81 53 137.5 c 128,-1,28
 33 194 33 194 33 269 c 0,0,1
154 269 m 0,29,30
 154 179 154 179 187.5 131.5 c 128,-1,31
 221 84 221 84 278 84 c 0,32,33
 331 84 331 84 365 132.5 c 128,-1,34
 399 181 399 181 399 269 c 0,35,36
 399 351 399 351 366 402 c 128,-1,37
 333 453 333 453 278 453 c 0,38,39
 220 453 220 453 187 403 c 128,-1,40
 154 353 154 353 154 269 c 0,29,30
EndSplineSet
EndChar

StartChar: uni0258
Encoding: 600 600 524
Width: 558
GlyphClass: 2
Flags: W
LayerCount: 2
Fore
SplineSet
34 228 m 1,0,1
 33 243 33 243 33 275 c 0,2,3
 33 400 33 400 102.5 476.5 c 128,-1,4
 172 553 172 553 276 553 c 0,5,6
 384 553 384 553 454.5 476.5 c 128,-1,7
 525 400 525 400 525 270 c 0,8,9
 525 138 525 138 453.5 60.5 c 128,-1,10
 382 -17 382 -17 270 -17 c 0,11,12
 183 -17 183 -17 125 22.5 c 128,-1,13
 67 62 67 62 41 122 c 1,14,-1
 139 156 l 1,15,16
 156 122 156 122 190 100 c 128,-1,17
 224 78 224 78 269 78 c 0,18,19
 332 78 332 78 368.5 121 c 128,-1,20
 405 164 405 164 405 228 c 1,21,-1
 34 228 l 1,0,1
152 310 m 1,22,-1
 404 310 l 1,23,24
 402 372 402 372 368.5 415 c 128,-1,25
 335 458 335 458 276 458 c 256,26,27
 217 458 217 458 184.5 415 c 128,-1,28
 152 372 152 372 152 310 c 1,22,-1
EndSplineSet
EndChar

StartChar: uni025A
Encoding: 602 602 526
Width: 657
GlyphClass: 2
Flags: W
LayerCount: 2
Fore
SplineSet
33 229 m 1,0,-1
 387 384 l 1,1,2
 348 457 348 457 270 457 c 0,3,4
 183 457 183 457 138 379 c 1,5,-1
 40 413 l 1,6,7
 67 474 67 474 125.5 513 c 128,-1,8
 184 552 184 552 272 552 c 0,9,10
 345 552 345 552 399.5 518.5 c 128,-1,11
 454 485 454 485 484 430 c 1,12,-1
 564 468 l 1,13,14
 575 433 575 433 597.5 411 c 128,-1,15
 620 389 620 389 647 389 c 0,16,17
 678 389 678 389 691 395 c 1,18,-1
 691 302 l 1,19,20
 664 294 664 294 637 294 c 0,21,22
 604 294 604 294 578 308.5 c 128,-1,23
 552 323 552 323 540 346 c 1,24,-1
 518 335 l 1,25,26
 524 300 524 300 524 267 c 0,27,28
 524 142 524 142 455.5 62.5 c 128,-1,29
 387 -17 387 -17 275 -17 c 0,30,31
 217 -17 217 -17 171 6 c 128,-1,32
 125 29 125 29 96 65.5 c 128,-1,33
 67 102 67 102 51 144 c 128,-1,34
 35 186 35 186 33 229 c 1,0,-1
158 180 m 1,35,36
 167 132 167 132 199.5 104.5 c 128,-1,37
 232 77 232 77 275 77 c 0,38,39
 325 77 325 77 357.5 112 c 128,-1,40
 390 147 390 147 397 204 c 1,41,42
 405 232 405 232 405 263 c 0,43,44
 405 274 405 274 404 286 c 1,45,-1
 158 180 l 1,35,36
EndSplineSet
EndChar

StartChar: uni025B
Encoding: 603 603 527
Width: 495
GlyphClass: 2
Flags: W
LayerCount: 2
Fore
SplineSet
33 154 m 0,0,1
 33 202 33 202 59 235 c 128,-1,2
 85 268 85 268 123 283 c 1,3,4
 53 323 53 323 53 398 c 0,5,6
 53 466 53 466 109 509 c 128,-1,7
 165 552 165 552 257 552 c 0,8,9
 397 552 397 552 466 424 c 1,10,-1
 371 385 l 1,11,12
 353 414 353 414 323 433.5 c 128,-1,13
 293 453 293 453 259 453 c 0,14,15
 217 453 217 453 195 436 c 128,-1,16
 173 419 173 419 173 389 c 0,17,18
 173 360 173 360 198.5 340.5 c 128,-1,19
 224 321 224 321 271 321 c 2,20,-1
 332 321 l 1,21,-1
 332 232 l 1,22,-1
 271 232 l 2,23,24
 211 232 211 232 182.5 210 c 128,-1,25
 154 188 154 188 154 155 c 0,26,27
 154 120 154 120 186.5 102 c 128,-1,28
 219 84 219 84 261 84 c 0,29,30
 300 84 300 84 334.5 103 c 128,-1,31
 369 122 369 122 387 149 c 1,32,-1
 478 108 l 1,33,34
 450 52 450 52 392.5 17.5 c 128,-1,35
 335 -17 335 -17 259 -17 c 0,36,37
 162 -17 162 -17 97.5 28.5 c 128,-1,38
 33 74 33 74 33 154 c 0,0,1
EndSplineSet
EndChar

StartChar: uni025C
Encoding: 604 604 528
Width: 495
GlyphClass: 2
Flags: W
LayerCount: 2
Fore
SplineSet
18 108 m 1,0,-1
 110 149 l 1,1,2
 127 122 127 122 161.5 103 c 128,-1,3
 196 84 196 84 235 84 c 0,4,5
 277 84 277 84 309.5 102 c 128,-1,6
 342 120 342 120 342 155 c 0,7,8
 342 188 342 188 313.5 210 c 128,-1,9
 285 232 285 232 225 232 c 2,10,-1
 164 232 l 1,11,-1
 164 321 l 1,12,-1
 225 321 l 2,13,14
 272 321 272 321 297 340.5 c 128,-1,15
 322 360 322 360 322 389 c 0,16,17
 322 419 322 419 300.5 436 c 128,-1,18
 279 453 279 453 237 453 c 0,19,20
 203 453 203 453 173 433.5 c 128,-1,21
 143 414 143 414 125 385 c 1,22,-1
 29 424 l 1,23,24
 98 552 98 552 239 552 c 0,25,26
 331 552 331 552 387 509 c 128,-1,27
 443 466 443 466 443 398 c 0,28,29
 443 324 443 324 373 283 c 1,30,-1
 374 283 l 1,31,32
 412 268 412 268 437.5 235 c 128,-1,33
 463 202 463 202 463 154 c 0,34,35
 463 74 463 74 399 28.5 c 128,-1,36
 335 -17 335 -17 237 -17 c 0,37,38
 162 -17 162 -17 104 18 c 128,-1,39
 46 53 46 53 18 108 c 1,0,-1
EndSplineSet
EndChar

StartChar: uni025D
Encoding: 605 605 529
Width: 585
GlyphClass: 2
Flags: W
LayerCount: 2
Fore
SplineSet
18 108 m 1,0,-1
 110 149 l 1,1,2
 125 124 125 124 159.5 104 c 128,-1,3
 194 84 194 84 235 84 c 0,4,5
 283 84 283 84 312.5 104.5 c 128,-1,6
 342 125 342 125 342 157 c 0,7,8
 342 190 342 190 312.5 211 c 128,-1,9
 283 232 283 232 224 232 c 2,10,-1
 164 232 l 1,11,-1
 164 321 l 1,12,-1
 224 321 l 2,13,14
 272 321 272 321 297 340.5 c 128,-1,15
 322 360 322 360 322 389 c 0,16,17
 322 453 322 453 238 453 c 0,18,19
 168 453 168 453 125 385 c 1,20,-1
 29 424 l 1,21,22
 102 552 102 552 239 552 c 0,23,24
 359 552 359 552 414 481 c 1,25,-1
 491 526 l 1,26,27
 502 491 502 491 526.5 466.5 c 128,-1,28
 551 442 551 442 578 442 c 0,29,30
 607 442 607 442 623 449 c 1,31,-1
 623 355 l 1,32,33
 596 347 596 347 569 347 c 0,34,35
 536 347 536 347 507.5 362.5 c 128,-1,36
 479 378 479 378 467 400 c 1,37,-1
 441 387 l 1,38,39
 439 364 439 364 438 362 c 0,40,41
 426 311 426 311 374 284 c 1,42,-1
 374 283 l 1,43,44
 410 268 410 268 436.5 235.5 c 128,-1,45
 463 203 463 203 463 156 c 0,46,47
 463 75 463 75 399.5 29 c 128,-1,48
 336 -17 336 -17 235 -17 c 0,49,50
 160 -17 160 -17 102 18.5 c 128,-1,51
 44 54 44 54 18 108 c 1,0,-1
EndSplineSet
EndChar

StartChar: uni025E
Encoding: 606 606 530
Width: 556
GlyphClass: 2
Flags: W
LayerCount: 2
Fore
SplineSet
154 269 m 0,0,1
 154 168 154 168 196.5 126 c 128,-1,2
 239 84 239 84 296 84 c 0,3,4
 401 84 401 84 401 155 c 0,5,6
 401 185 401 185 374.5 207 c 128,-1,7
 348 229 348 229 295 229 c 2,8,-1
 256 229 l 1,9,-1
 256 322 l 1,10,-1
 295 322 l 2,11,12
 337 322 337 322 359.5 341.5 c 128,-1,13
 382 361 382 361 382 388 c 0,14,15
 382 420 382 420 358 436.5 c 128,-1,16
 334 453 334 453 295 453 c 0,17,18
 239 453 239 453 196.5 408.5 c 128,-1,19
 154 364 154 364 154 269 c 0,0,1
33 269 m 0,20,21
 33 348 33 348 58.5 409.5 c 128,-1,22
 84 471 84 471 144 511.5 c 128,-1,23
 204 552 204 552 295 552 c 0,24,25
 380 552 380 552 441.5 512.5 c 128,-1,26
 503 473 503 473 503 398 c 0,27,28
 503 358 503 358 485 328 c 128,-1,29
 467 298 467 298 440 282 c 1,30,31
 523 244 523 244 523 156 c 0,32,33
 523 69 523 69 457.5 26 c 128,-1,34
 392 -17 392 -17 295 -17 c 0,35,36
 164 -17 164 -17 98.5 61.5 c 128,-1,37
 33 140 33 140 33 269 c 0,20,21
EndSplineSet
EndChar

StartChar: uni025F
Encoding: 607 607 531
Width: 273
GlyphClass: 2
Flags: W
LayerCount: 2
Fore
SplineSet
-18 250 m 1,0,-1
 -18 347 l 1,1,-1
 81 347 l 1,2,-1
 81 536 l 1,3,-1
 199 536 l 1,4,-1
 199 347 l 1,5,-1
 291 347 l 1,6,-1
 291 250 l 1,7,-1
 199 250 l 1,8,-1
 199 -14 l 2,9,10
 199 -112 199 -112 154.5 -163 c 128,-1,11
 110 -214 110 -214 27 -214 c 2,12,-1
 -11 -214 l 1,13,-1
 -11 -113 l 1,14,-1
 7 -113 l 2,15,16
 81 -113 81 -113 81 -9 c 2,17,-1
 81 250 l 1,18,-1
 -18 250 l 1,0,-1
EndSplineSet
EndChar

StartChar: uni0260
Encoding: 608 608 532
Width: 579
GlyphClass: 2
Flags: W
LayerCount: 2
Fore
SplineSet
36 279 m 0,0,1
 36 403 36 403 98.5 477.5 c 128,-1,2
 161 552 161 552 258 552 c 0,3,4
 306 552 306 552 339.5 528.5 c 128,-1,5
 373 505 373 505 389 474 c 1,6,-1
 389 611 l 2,7,8
 389 692 389 692 440.5 736 c 128,-1,9
 492 780 492 780 571 780 c 0,10,11
 589 780 589 780 662 775 c 1,12,-1
 662 672 l 1,13,14
 624 676 624 676 593 676 c 0,15,16
 557 676 557 676 531.5 652 c 128,-1,17
 506 628 506 628 506 588 c 2,18,-1
 506 74 l 2,19,20
 506 -68 506 -68 451 -145.5 c 128,-1,21
 396 -223 396 -223 265 -223 c 0,22,23
 133 -223 133 -223 57 -119 c 1,24,-1
 134 -65 l 1,25,26
 189 -128 189 -128 267 -128 c 0,27,28
 325 -128 325 -128 356 -84.5 c 128,-1,29
 387 -41 387 -41 388 26 c 2,30,-1
 390 74 l 1,31,32
 373 44 373 44 337.5 24.5 c 128,-1,33
 302 5 302 5 262 5 c 0,34,35
 162 5 162 5 99 79 c 128,-1,36
 36 153 36 153 36 279 c 0,0,1
156 279 m 0,37,38
 156 193 156 193 189.5 149 c 128,-1,39
 223 105 223 105 273 105 c 0,40,41
 327 105 327 105 357.5 150.5 c 128,-1,42
 388 196 388 196 388 280 c 0,43,44
 388 359 388 359 357.5 406 c 128,-1,45
 327 453 327 453 274 453 c 0,46,47
 222 453 222 453 189 407 c 128,-1,48
 156 361 156 361 156 279 c 0,37,38
EndSplineSet
EndChar

StartChar: uni0262
Encoding: 610 610 534
Width: 557
GlyphClass: 2
Flags: W
LayerCount: 2
Fore
SplineSet
33 266 m 0,0,1
 33 396 33 396 101.5 474 c 128,-1,2
 170 552 170 552 290 552 c 0,3,4
 434 552 434 552 500 415 c 1,5,-1
 402 374 l 1,6,7
 362 452 362 452 290 452 c 0,8,9
 227 452 227 452 190.5 402.5 c 128,-1,10
 154 353 154 353 154 266 c 0,11,12
 154 180 154 180 191 132.5 c 128,-1,13
 228 85 228 85 289 85 c 0,14,15
 335 85 335 85 364.5 112 c 128,-1,16
 394 139 394 139 400 186 c 1,17,-1
 400 214 l 1,18,-1
 272 214 l 1,19,-1
 272 304 l 1,20,-1
 510 304 l 1,21,-1
 510 0 l 1,22,-1
 422 0 l 1,23,-1
 418 47 l 1,24,25
 402 21 402 21 364.5 2 c 128,-1,26
 327 -17 327 -17 282 -17 c 0,27,28
 174 -17 174 -17 103.5 57 c 128,-1,29
 33 131 33 131 33 266 c 0,0,1
EndSplineSet
EndChar

StartChar: uni0263
Encoding: 611 611 535
Width: 520
GlyphClass: 2
Flags: W
LayerCount: 2
Fore
SplineSet
8 536 m 1,0,-1
 136 536 l 1,1,-1
 249 154 l 1,2,-1
 258 117 l 1,3,-1
 260 117 l 1,4,-1
 272 153 l 1,5,-1
 385 536 l 1,6,-1
 513 536 l 1,7,-1
 341 60 l 1,8,9
 411 -5 411 -5 411 -77 c 0,10,11
 411 -140 411 -140 369 -181.5 c 128,-1,12
 327 -223 327 -223 260 -223 c 0,13,14
 195 -223 195 -223 152.5 -183 c 128,-1,15
 110 -143 110 -143 110 -77 c 0,16,17
 110 -9 110 -9 179 59 c 1,18,-1
 8 536 l 1,0,-1
208 -77 m 0,19,20
 208 -103 208 -103 222.5 -121.5 c 128,-1,21
 237 -140 237 -140 260 -140 c 0,22,23
 284 -140 284 -140 299 -121 c 128,-1,24
 314 -102 314 -102 314 -77 c 0,25,26
 314 -27 314 -27 260 19 c 1,27,28
 208 -22 208 -22 208 -77 c 0,19,20
EndSplineSet
Substitution2: "'sups' Superscript lookup 5 subtable" uni02E0
Substitution2: "'aalt' Access All Alternates lookup 0 subtable" uni02E0
EndChar

StartChar: uni0264
Encoding: 612 612 536
Width: 486
GlyphClass: 2
Flags: W
LayerCount: 2
Fore
SplineSet
243 314 m 1,0,1
 183 237 183 237 183 168 c 0,2,3
 183 132 183 132 200 108 c 128,-1,4
 217 84 217 84 245 84 c 256,5,6
 273 84 273 84 288.5 108.5 c 128,-1,7
 304 133 304 133 304 168 c 0,8,9
 304 240 304 240 243 314 c 1,0,1
16 444 m 1,10,-1
 16 542 l 1,11,12
 55 552 55 552 85 552 c 0,13,14
 133 552 133 552 169 533.5 c 128,-1,15
 205 515 205 515 243 479 c 1,16,17
 315 552 315 552 403 552 c 0,18,19
 437 552 437 552 472 543 c 1,20,-1
 472 442 l 1,21,22
 441 452 441 452 405 452 c 0,23,24
 363 452 363 452 315 401 c 1,25,26
 369 334 369 334 393.5 283.5 c 128,-1,27
 418 233 418 233 418 166 c 0,28,29
 418 85 418 85 373 34 c 128,-1,30
 328 -17 328 -17 245 -17 c 0,31,32
 160 -17 160 -17 115.5 34.5 c 128,-1,33
 71 86 71 86 71 166 c 0,34,35
 71 233 71 233 98 286.5 c 128,-1,36
 125 340 125 340 174 401 c 1,37,38
 125 452 125 452 80 452 c 0,39,40
 72 452 72 452 16 444 c 1,10,-1
EndSplineSet
EndChar

StartChar: uni0265
Encoding: 613 613 537
Width: 564
GlyphClass: 2
Flags: W
LayerCount: 2
Fore
SplineSet
59 191 m 2,0,-1
 59 536 l 1,1,-1
 176 536 l 1,2,-1
 176 204 l 2,3,4
 176 84 176 84 262 84 c 0,5,6
 310 84 310 84 344 127.5 c 128,-1,7
 378 171 378 171 378 229 c 2,8,-1
 378 536 l 1,9,-1
 495 536 l 1,10,-1
 495 -219 l 1,11,-1
 378 -219 l 1,12,-1
 378 54 l 1,13,-1
 377 54 l 1,14,15
 358 25 358 25 321.5 4 c 128,-1,16
 285 -17 285 -17 237 -17 c 0,17,18
 211 -17 211 -17 187.5 -11.5 c 128,-1,19
 164 -6 164 -6 139.5 8.5 c 128,-1,20
 115 23 115 23 98 46 c 128,-1,21
 81 69 81 69 70 106 c 128,-1,22
 59 143 59 143 59 191 c 2,0,-1
EndSplineSet
EndChar

StartChar: uni0266
Encoding: 614 614 538
Width: 564
GlyphClass: 2
Flags: W
LayerCount: 2
Fore
SplineSet
70 0 m 1,0,-1
 70 607 l 2,1,2
 70 690 70 690 121.5 735 c 128,-1,3
 173 780 173 780 252 780 c 0,4,5
 290 780 290 780 353 774 c 1,6,-1
 353 671 l 1,7,8
 323 675 323 675 273 675 c 0,9,10
 234 675 234 675 210.5 649.5 c 128,-1,11
 187 624 187 624 187 585 c 2,12,-1
 187 481 l 1,13,-1
 188 481 l 1,14,15
 242 552 242 552 327 552 c 0,16,17
 361 552 361 552 390.5 542.5 c 128,-1,18
 420 533 420 533 447.5 511.5 c 128,-1,19
 475 490 475 490 490.5 447 c 128,-1,20
 506 404 506 404 506 345 c 2,21,-1
 506 0 l 1,22,-1
 389 0 l 1,23,-1
 389 330 l 2,24,25
 389 453 389 453 306 453 c 0,26,27
 256 453 256 453 221.5 409.5 c 128,-1,28
 187 366 187 366 187 307 c 2,29,-1
 187 0 l 1,30,-1
 70 0 l 1,0,-1
EndSplineSet
Substitution2: "'sups' Superscript lookup 5 subtable" uni02B1
Substitution2: "'aalt' Access All Alternates lookup 0 subtable" uni02B1
EndChar

StartChar: uni0267
Encoding: 615 615 539
Width: 567
GlyphClass: 2
Flags: W
LayerCount: 2
Fore
SplineSet
70 0 m 1,0,-1
 70 607 l 2,1,2
 70 690 70 690 121.5 735 c 128,-1,3
 173 780 173 780 252 780 c 0,4,5
 290 780 290 780 353 774 c 1,6,-1
 353 671 l 1,7,8
 323 675 323 675 273 675 c 0,9,10
 234 675 234 675 210.5 649 c 128,-1,11
 187 623 187 623 187 584 c 2,12,-1
 187 481 l 1,13,-1
 188 481 l 1,14,15
 242 552 242 552 327 552 c 0,16,17
 360 552 360 552 388.5 543 c 128,-1,18
 417 534 417 534 445 513 c 128,-1,19
 473 492 473 492 489.5 448.5 c 128,-1,20
 506 405 506 405 506 345 c 2,21,-1
 506 -23 l 2,22,23
 506 -125 506 -125 462 -173.5 c 128,-1,24
 418 -222 418 -222 325 -222 c 0,25,26
 291 -222 291 -222 237 -217 c 1,27,-1
 237 -117 l 1,28,29
 271 -122 271 -122 302 -122 c 0,30,31
 348 -122 348 -122 368.5 -99.5 c 128,-1,32
 389 -77 389 -77 389 -17 c 2,33,-1
 389 330 l 2,34,35
 389 453 389 453 306 453 c 0,36,37
 256 453 256 453 221.5 408.5 c 128,-1,38
 187 364 187 364 187 307 c 2,39,-1
 187 0 l 1,40,-1
 70 0 l 1,0,-1
EndSplineSet
EndChar

StartChar: uni0268
Encoding: 616 616 540
Width: 268
GlyphClass: 2
Flags: W
LayerCount: 2
Fore
SplineSet
72 616 m 1,0,-1
 72 745 l 1,1,-1
 197 745 l 1,2,-1
 197 616 l 1,3,-1
 72 616 l 1,0,-1
-4 247 m 1,4,-1
 -4 344 l 1,5,-1
 76 344 l 1,6,-1
 76 536 l 1,7,-1
 193 536 l 1,8,-1
 193 344 l 1,9,-1
 271 344 l 1,10,-1
 271 247 l 1,11,-1
 193 247 l 1,12,-1
 193 0 l 1,13,-1
 76 0 l 1,14,-1
 76 247 l 1,15,-1
 -4 247 l 1,4,-1
EndSplineSet
EndChar

StartChar: uni0269
Encoding: 617 617 541
Width: 335
GlyphClass: 2
Flags: W
LayerCount: 2
Fore
SplineSet
59 160 m 2,0,-1
 59 536 l 1,1,-1
 177 536 l 1,2,-1
 177 166 l 2,3,4
 177 87 177 87 245 87 c 0,5,6
 274 87 274 87 320 94 c 1,7,-1
 320 -8 l 1,8,9
 239 -17 239 -17 220 -17 c 0,10,11
 150 -17 150 -17 104.5 25.5 c 128,-1,12
 59 68 59 68 59 160 c 2,0,-1
EndSplineSet
EndChar

StartChar: uni026B
Encoding: 619 619 543
Width: 263
GlyphClass: 2
Flags: W
LayerCount: 2
Fore
SplineSet
-21 339 m 1,0,-1
 -21 440 l 1,1,2
 27 454 27 454 49 454 c 0,3,4
 52 454 52 454 61.5 453.5 c 128,-1,5
 71 453 71 453 73 453 c 1,6,-1
 73 759 l 1,7,-1
 190 759 l 1,8,-1
 190 431 l 1,9,10
 193 431 193 431 197 431 c 0,11,12
 213 431 213 431 236 434 c 0,13,14
 260 437 260 437 285 444 c 1,15,-1
 285 343 l 1,16,17
 261 336 261 336 238 334 c 0,18,19
 225 332 225 332 211 332 c 0,20,21
 201 332 201 332 190 333 c 1,22,-1
 190 0 l 1,23,-1
 73 0 l 1,24,-1
 73 352 l 1,25,26
 71 352 71 352 61.5 353 c 128,-1,27
 52 354 52 354 49 354 c 0,28,29
 34 354 34 354 23 352 c 128,-1,30
 12 350 12 350 -4 344.5 c 128,-1,31
 -20 339 -20 339 -21 339 c 1,0,-1
EndSplineSet
EndChar

StartChar: uni026C
Encoding: 620 620 544
Width: 453
GlyphClass: 2
Flags: W
LayerCount: 2
Fore
SplineSet
33 414 m 0,0,1
 33 466 33 466 67 502 c 128,-1,2
 101 538 101 538 161 538 c 0,3,4
 209 538 209 538 246 507 c 1,5,-1
 246 759 l 1,6,-1
 364 759 l 1,7,-1
 364 365 l 1,8,-1
 468 365 l 1,9,-1
 468 271 l 1,10,-1
 364 271 l 1,11,-1
 364 0 l 1,12,-1
 246 0 l 1,13,-1
 246 271 l 1,14,-1
 212 271 l 2,15,16
 135 271 135 271 84 310 c 128,-1,17
 33 349 33 349 33 414 c 0,0,1
133 414 m 0,18,19
 133 393 133 393 151 379 c 128,-1,20
 169 365 169 365 195 365 c 2,21,-1
 246 365 l 1,22,-1
 245 386 l 2,23,24
 243 411 243 411 222 431.5 c 128,-1,25
 201 452 201 452 176 452 c 0,26,27
 158 452 158 452 145.5 442 c 128,-1,28
 133 432 133 432 133 414 c 0,18,19
EndSplineSet
EndChar

StartChar: uni026D
Encoding: 621 621 545
Width: 348
GlyphClass: 2
Flags: W
LayerCount: 2
Fore
SplineSet
72 -46 m 2,0,-1
 72 759 l 1,1,-1
 190 759 l 1,2,-1
 190 -40 l 2,3,4
 190 -119 190 -119 257 -119 c 0,5,6
 281 -119 281 -119 333 -112 c 1,7,-1
 333 -214 l 1,8,9
 243 -223 243 -223 233 -223 c 0,10,11
 163 -223 163 -223 117.5 -180.5 c 128,-1,12
 72 -138 72 -138 72 -46 c 2,0,-1
EndSplineSet
EndChar

StartChar: uni026E
Encoding: 622 622 546
Width: 702
GlyphClass: 2
Flags: W
LayerCount: 2
Fore
SplineSet
172 -83 m 1,0,-1
 276 -50 l 1,1,2
 316 -123 316 -123 397 -123 c 0,3,4
 464 -123 464 -123 502.5 -82 c 128,-1,5
 541 -41 541 -41 541 23 c 0,6,7
 541 88 541 88 497 132 c 128,-1,8
 453 176 453 176 378 176 c 2,9,-1
 286 176 l 1,10,-1
 286 255 l 1,11,-1
 454 436 l 1,12,-1
 190 436 l 1,13,-1
 190 0 l 1,14,-1
 72 0 l 1,15,-1
 72 759 l 1,16,-1
 190 759 l 1,17,-1
 190 536 l 1,18,-1
 628 536 l 1,19,-1
 628 464 l 1,20,-1
 441 270 l 1,21,-1
 437 260 l 1,22,23
 533 254 533 254 597 186 c 128,-1,24
 661 118 661 118 661 23 c 0,25,26
 661 -85 661 -85 588.5 -154 c 128,-1,27
 516 -223 516 -223 401 -223 c 0,28,29
 230 -223 230 -223 172 -83 c 1,0,-1
EndSplineSet
EndChar

StartChar: uni026F
Encoding: 623 623 547
Width: 828
GlyphClass: 2
Flags: W
LayerCount: 2
Fore
SplineSet
58 193 m 2,0,-1
 58 536 l 1,1,-1
 176 536 l 1,2,-1
 176 197 l 2,3,4
 176 139 176 139 192 112 c 128,-1,5
 208 85 208 85 248 85 c 0,6,7
 295 85 295 85 324 124.5 c 128,-1,8
 353 164 353 164 353 221 c 2,9,-1
 353 536 l 1,10,-1
 470 536 l 1,11,-1
 470 193 l 2,12,13
 470 85 470 85 543 85 c 0,14,15
 593 85 593 85 620.5 122 c 128,-1,16
 648 159 648 159 648 219 c 2,17,-1
 648 536 l 1,18,-1
 765 536 l 1,19,-1
 765 0 l 1,20,-1
 651 0 l 1,21,-1
 651 62 l 1,22,-1
 650 62 l 1,23,24
 642 47 642 47 628 32.5 c 128,-1,25
 614 18 614 18 583 2 c 128,-1,26
 552 -14 552 -14 515 -14 c 0,27,28
 426 -14 426 -14 384 81 c 1,29,30
 378 70 378 70 368.5 57 c 128,-1,31
 359 44 359 44 340 26 c 128,-1,32
 321 8 321 8 289.5 -3 c 128,-1,33
 258 -14 258 -14 222 -14 c 0,34,35
 58 -14 58 -14 58 193 c 2,0,-1
EndSplineSet
EndChar

StartChar: uni0270
Encoding: 624 624 548
Width: 842
GlyphClass: 2
Flags: W
LayerCount: 2
Fore
SplineSet
58 193 m 2,0,-1
 58 536 l 1,1,-1
 176 536 l 1,2,-1
 176 197 l 2,3,4
 176 141 176 141 191.5 113 c 128,-1,5
 207 85 207 85 248 85 c 0,6,7
 295 85 295 85 324 124.5 c 128,-1,8
 353 164 353 164 353 221 c 2,9,-1
 353 536 l 1,10,-1
 470 536 l 1,11,-1
 470 193 l 2,12,13
 470 85 470 85 543 85 c 0,14,15
 593 85 593 85 620.5 122 c 128,-1,16
 648 159 648 159 648 219 c 2,17,-1
 648 536 l 1,18,-1
 765 536 l 1,19,-1
 765 -219 l 1,20,-1
 651 -219 l 1,21,-1
 651 62 l 1,22,-1
 650 62 l 1,23,24
 635 34 635 34 600.5 10 c 128,-1,25
 566 -14 566 -14 515 -14 c 0,26,27
 425 -14 425 -14 384 81 c 1,28,29
 368 47 368 47 327.5 16.5 c 128,-1,30
 287 -14 287 -14 222 -14 c 0,31,32
 58 -14 58 -14 58 193 c 2,0,-1
EndSplineSet
EndChar

StartChar: uni0271
Encoding: 625 625 549
Width: 831
GlyphClass: 2
Flags: W
LayerCount: 2
Fore
SplineSet
64 0 m 1,0,-1
 64 536 l 1,1,-1
 177 536 l 1,2,-1
 177 475 l 1,3,-1
 178 475 l 1,4,5
 187 490 187 490 201 505 c 128,-1,6
 215 520 215 520 246.5 536 c 128,-1,7
 278 552 278 552 315 552 c 0,8,9
 404 552 404 552 446 457 c 1,10,11
 464 493 464 493 504 522.5 c 128,-1,12
 544 552 544 552 607 552 c 0,13,14
 771 552 771 552 771 345 c 2,15,-1
 771 -46 l 2,16,17
 771 -131 771 -131 724.5 -177 c 128,-1,18
 678 -223 678 -223 588 -223 c 0,19,20
 549 -223 549 -223 501 -217 c 1,21,-1
 501 -112 l 1,22,23
 555 -119 555 -119 576 -119 c 0,24,25
 617 -119 617 -119 635 -100.5 c 128,-1,26
 653 -82 653 -82 653 -39 c 2,27,-1
 653 341 l 2,28,29
 653 397 653 397 637.5 425 c 128,-1,30
 622 453 622 453 582 453 c 0,31,32
 534 453 534 453 505 413.5 c 128,-1,33
 476 374 476 374 476 317 c 2,34,-1
 476 0 l 1,35,-1
 359 0 l 1,36,-1
 359 344 l 2,37,38
 359 453 359 453 287 453 c 0,39,40
 237 453 237 453 209.5 416 c 128,-1,41
 182 379 182 379 182 319 c 2,42,-1
 182 0 l 1,43,-1
 64 0 l 1,0,-1
EndSplineSet
EndChar

